<svg width="32" height="32" viewBox="0 0 32 32" fill="none" xmlns="http://www.w3.org/2000/svg">
<g clip-path="url(#clip0_235_604)">
<path d="M16 5.5C13.8739 5.5 11.7955 6.13048 10.0276 7.3117C8.2598 8.49293 6.88194 10.1718 6.0683 12.1362C5.25466 14.1005 5.04177 16.2619 5.45656 18.3472C5.87135 20.4325 6.89519 22.348 8.39861 23.8514C9.90202 25.3548 11.8175 26.3787 13.9028 26.7934C15.9881 27.2082 18.1495 26.9953 20.1139 26.1817C22.0782 25.3681 23.7571 23.9902 24.9383 22.2224C26.1195 20.4546 26.75 18.3761 26.75 16.25C26.75 13.3989 25.6174 10.6646 23.6014 8.6486C21.5854 6.63259 18.8511 5.5 16 5.5ZM23.865 22C23.1521 21.5821 22.3982 21.2386 21.615 20.975C21.9888 19.5966 22.1937 18.1779 22.225 16.75H25.725C25.6323 18.6443 24.9856 20.4698 23.865 22ZM6.2625 16.75H9.775C9.80534 18.1786 10.0093 19.5982 10.3825 20.9775C9.59934 21.2411 8.84537 21.5846 8.1325 22.0025C7.00792 20.4727 6.35766 18.6463 6.2625 16.75ZM8.135 10.5C8.84787 10.9179 9.60184 11.2614 10.385 11.525C10.0112 12.9034 9.80636 14.3221 9.775 15.75H6.275C6.36772 13.8557 7.01445 12.0302 8.135 10.5ZM16.5 12.405C17.8973 12.3724 19.2859 12.176 20.6375 11.82C20.9931 13.1011 21.1904 14.4209 21.225 15.75H16.5V12.405ZM16.5 11.405V6.5475C18.075 6.8425 19.4725 8.5 20.3325 10.8675C19.08 11.1939 17.794 11.3743 16.5 11.405ZM15.5 6.5475V11.405C14.206 11.3743 12.92 11.1939 11.6675 10.8675C12.5275 8.5 13.925 6.8425 15.5 6.5475ZM15.5 12.405V15.75H10.775C10.8097 14.4209 11.007 13.1011 11.3625 11.82C12.7141 12.176 14.1027 12.3724 15.5 12.405ZM10.775 16.75H15.5V20.095C14.1027 20.1276 12.7141 20.324 11.3625 20.68C11.007 19.3989 10.8097 18.0791 10.775 16.75ZM15.5 21.095V25.9525C13.925 25.6575 12.5275 24 11.6675 21.6325C12.92 21.3061 14.206 21.1257 15.5 21.095ZM16.5 25.9525V21.095C17.794 21.1257 19.08 21.3061 20.3325 21.6325C19.4725 24 18.075 25.6575 16.5 25.9525ZM16.5 20.095V16.75H21.225C21.1904 18.0791 20.9931 19.3989 20.6375 20.68C19.2859 20.324 17.8973 20.1276 16.5 20.095ZM22.225 15.75C22.1947 14.3214 21.9907 12.9018 21.6175 11.5225C22.4007 11.2589 23.1546 10.9154 23.8675 10.4975C24.9965 12.0258 25.6512 13.8524 25.75 15.75H22.225ZM23.225 9.7125C22.6169 10.0582 21.9774 10.3453 21.315 10.57C20.8879 9.2754 20.1966 8.08358 19.285 7.07C20.7965 7.6132 22.1507 8.52084 23.2275 9.7125H23.225ZM12.7125 7.0725C11.8009 8.08608 11.1096 9.2779 10.6825 10.5725C10.0201 10.3478 9.38058 10.0607 8.7725 9.715C9.84865 8.52368 11.2019 7.61607 12.7125 7.0725ZM8.7725 22.7875C9.38058 22.4418 10.0201 22.1547 10.6825 21.93C11.1096 23.2246 11.8009 24.4164 12.7125 25.43C11.2019 24.8864 9.84865 23.9788 8.7725 22.7875ZM19.2875 25.4275C20.1991 24.4139 20.8904 23.2221 21.3175 21.9275C21.9799 22.1522 22.6194 22.4393 23.2275 22.785C22.1514 23.9763 20.7981 24.8839 19.2875 25.4275Z" fill="black"/>
<path d="M16 1.97178e-07C13.2056 0.000473069 10.46 0.732818 8.0365 2.12414C5.61304 3.51547 3.59623 5.51725 2.18682 7.93023C0.77741 10.3432 0.024552 13.0833 0.00317997 15.8776C-0.018192 18.672 0.692668 21.4232 2.065 23.8575L0.0175045 31.3575C-0.00476052 31.4324 -0.0091715 31.5114 0.00462527 31.5883C0.018422 31.6652 0.0500427 31.7378 0.0969519 31.8003C0.143861 31.8627 0.204754 31.9133 0.274748 31.948C0.344741 31.9827 0.421889 32.0005 0.500005 32C0.543126 32.0003 0.58607 31.9944 0.627505 31.9825L8.22501 29.9825C10.3604 31.1703 12.7395 31.8532 15.1798 31.9788C17.62 32.1045 20.0567 31.6695 22.3028 30.7074C24.5489 29.7452 26.5448 28.2813 28.1374 26.4281C29.7299 24.5749 30.8769 22.3815 31.4902 20.0162C32.1036 17.651 32.1671 15.1766 31.6758 12.783C31.1845 10.3894 30.1515 8.14012 28.656 6.20768C27.1605 4.27525 25.2423 2.71101 23.0485 1.63496C20.8547 0.558902 18.4435 -0.000383388 16 1.97178e-07ZM16 31C13.3822 30.9955 10.8112 30.306 8.5425 29C8.4663 28.9568 8.38009 28.9344 8.2925 28.935C8.24957 28.9351 8.20678 28.9401 8.165 28.95L1.21 30.795L3.0825 23.92C3.09991 23.8561 3.10446 23.7894 3.09588 23.7237C3.08729 23.6581 3.06575 23.5948 3.0325 23.5375C1.37229 20.681 0.701609 17.3563 1.12461 14.0796C1.5476 10.8028 3.04061 7.75744 5.37181 5.4162C7.70301 3.07497 10.742 1.5689 14.0168 1.13183C17.2917 0.694762 20.6193 1.35115 23.4829 2.99909C26.3465 4.64702 28.5859 7.19429 29.8534 10.2454C31.1209 13.2965 31.3456 16.6808 30.4926 19.8727C29.6396 23.0646 27.7567 25.8856 25.1361 27.8976C22.5155 29.9097 19.3039 31.0003 16 31Z" fill="black"/>
</g>
<defs>
<clipPath id="clip0_235_604">
<rect width="32" height="32" fill="white"/>
</clipPath>
</defs>
</svg>
