<svg width="32" height="32" viewBox="0 0 32 32" fill="none" xmlns="http://www.w3.org/2000/svg">
<path d="M24.25 8.25C19.97 8.25 16.5 11.72 16.5 16C16.5 20.2803 19.97 23.75 24.25 23.75C28.53 23.75 32 20.2803 32 16C32 11.72 28.53 8.25 24.25 8.25ZM24.25 22.75C20.528 22.75 17.5 19.722 17.5 16C17.5 12.278 20.528 9.25 24.25 9.25C27.972 9.25 31 12.278 31 16C31 19.722 27.972 22.75 24.25 22.75Z" fill="black"/>
<path d="M26 15.5C26.1326 15.5 26.2598 15.4473 26.3536 15.3536C26.4473 15.2598 26.5 15.1326 26.5 15C26.5 14.8674 26.4473 14.7402 26.3536 14.6464C26.2598 14.5527 26.1326 14.5 26 14.5H22.8495C23.363 13.4615 24.3895 12.75 25.572 12.75C25.6888 12.75 25.8065 12.7572 25.922 12.7715C26.0536 12.7875 26.1862 12.7507 26.2906 12.6691C26.3951 12.5875 26.4629 12.4678 26.4792 12.3363C26.4873 12.2711 26.4825 12.2049 26.465 12.1416C26.4474 12.0783 26.4176 12.0191 26.3772 11.9674C26.3368 11.9156 26.2865 11.8723 26.2294 11.84C26.1722 11.8077 26.1092 11.7869 26.044 11.779C25.8873 11.7599 25.7296 11.7503 25.5718 11.7502C23.833 11.7502 22.3495 12.8957 21.7668 14.5002H21C20.8674 14.5002 20.7402 14.5529 20.6464 14.6467C20.5527 14.7405 20.5 14.8676 20.5 15.0002C20.5 15.1329 20.5527 15.26 20.6464 15.3538C20.7402 15.4476 20.8674 15.5002 21 15.5002H21.5308C21.5111 15.6661 21.5009 15.833 21.5 16C21.5 16.1695 21.5123 16.3357 21.5308 16.5H21C20.8674 16.5 20.7402 16.5527 20.6464 16.6464C20.5527 16.7402 20.5 16.8674 20.5 17C20.5 17.1326 20.5527 17.2598 20.6464 17.3536C20.7402 17.4473 20.8674 17.5 21 17.5H21.7668C22.3495 19.1045 23.833 20.25 25.5718 20.25C25.7353 20.25 25.9005 20.2395 26.063 20.219C26.1938 20.2014 26.3122 20.1328 26.3926 20.0281C26.473 19.9235 26.5088 19.7914 26.4922 19.6605C26.4755 19.5296 26.4079 19.4106 26.3039 19.3294C26.1999 19.2482 26.068 19.2114 25.937 19.227C25.8163 19.2425 25.6933 19.2502 25.5718 19.2502C24.3895 19.2502 23.3628 18.5387 22.8493 17.5002H26C26.1326 17.5002 26.2598 17.4476 26.3536 17.3538C26.4473 17.26 26.5 17.1329 26.5 17.0002C26.5 16.8676 26.4473 16.7405 26.3536 16.6467C26.2598 16.5529 26.1326 16.5002 26 16.5002H22.5403C22.5146 16.3347 22.5012 16.1675 22.5 16C22.5 15.8295 22.5163 15.6632 22.5403 15.5H26ZM25.4188 2.5025C25.329 2.49311 25.2384 2.50891 25.1572 2.54812C25.0759 2.58733 25.0072 2.64841 24.9587 2.7245L24.0448 4.1235C21.7355 2.5805 19.0138 1.75 16.1615 1.75C12.1395 1.75 8.3005 3.44975 5.62875 6.413C5.54032 6.51138 5.49414 6.64059 5.50017 6.77273C5.50621 6.90487 5.56397 7.02934 5.661 7.11925C5.75798 7.20727 5.88589 7.25328 6.01671 7.24719C6.14754 7.2411 6.27062 7.1834 6.359 7.08675C8.844 4.33075 12.417 2.75 16.1615 2.75C18.8168 2.75 21.3492 3.52525 23.4975 4.96075L22.6343 6.2815C22.5875 6.35316 22.5598 6.43551 22.5536 6.52082C22.5475 6.60614 22.5631 6.69162 22.599 6.76925C22.6345 6.84654 22.6894 6.91337 22.7583 6.96329C22.8272 7.01321 22.9077 7.04454 22.9923 7.05425L26.9465 7.497C27.3428 7.54075 27.6378 7.103 27.4325 6.748L25.8277 2.8095C25.7941 2.72588 25.7382 2.65307 25.6661 2.59896C25.594 2.54484 25.5084 2.51148 25.4188 2.5025ZM23.905 6.15025L25.2693 4.0625L26.2257 6.41025L23.905 6.15025ZM27.3692 25.587C27.4586 25.489 27.5054 25.3596 27.4993 25.2271C27.4932 25.0947 27.4347 24.9701 27.3368 24.8808C27.2388 24.7914 27.1093 24.7446 26.9769 24.7507C26.8444 24.7568 26.7198 24.8153 26.6305 24.9132C24.117 27.6693 20.503 29.25 16.7148 29.25C14.0285 29.25 11.467 28.475 9.2935 27.0395L10.1667 25.7185C10.263 25.5733 10.2762 25.3885 10.2022 25.2307C10.166 25.1531 10.1103 25.0861 10.0407 25.0362C9.97101 24.9863 9.88968 24.9551 9.8045 24.9457L5.8045 24.5028C5.71827 24.4936 5.63115 24.5069 5.55156 24.5413C5.47198 24.5758 5.40264 24.6302 5.35025 24.6992C5.29799 24.7686 5.26471 24.8503 5.2537 24.9364C5.2427 25.0225 5.25435 25.11 5.2875 25.1903L6.93625 29.1903C6.97083 29.2742 7.02762 29.3472 7.10054 29.4013C7.17345 29.4554 7.25973 29.4886 7.3501 29.4973C7.44047 29.5061 7.53152 29.4901 7.61348 29.451C7.69543 29.4119 7.76518 29.3512 7.81525 29.2755L8.743 27.8722C11.0788 29.4157 13.8298 30.25 16.7148 30.25C20.7835 30.25 24.6667 28.5502 27.3692 25.587ZM7.50175 27.9375L6.534 25.5898L8.88175 25.8498L7.50175 27.9375ZM15.5 16C15.5 11.72 12.03 8.25 7.75 8.25C3.47 8.25 0 11.72 0 16C0 20.2803 3.47 23.75 7.75 23.75C12.03 23.75 15.5 20.2803 15.5 16ZM1 16C1 12.278 4.028 9.25 7.75 9.25C11.472 9.25 14.5 12.278 14.5 16C14.5 19.722 11.472 22.75 7.75 22.75C4.028 22.75 1 19.722 1 16Z" fill="black"/>
<path d="M8.25 20.2518V19.4673C8.66075 19.411 9.058 19.2795 9.4085 19.0572C9.8345 18.7875 10.1692 18.3495 10.232 17.8495C10.3527 16.8825 9.786 16.0655 8.84775 15.7938C8.6495 15.7365 8.45 15.678 8.25 15.6218V13.7653C8.42775 13.8168 8.59525 13.8898 8.7345 13.9875C8.9755 14.156 9.13525 14.4185 9.2415 14.6838C9.32275 14.886 9.47525 15.1062 9.70425 15.1602C9.9395 15.216 10.203 15.0713 10.24 14.824C10.287 14.5078 10.1692 14.154 9.87975 13.743C9.70025 13.4888 9.4825 13.2845 9.23275 13.1355C8.93325 12.9575 8.5965 12.8495 8.25 12.795V11.7485C8.24973 11.6161 8.19692 11.4892 8.10317 11.3958C8.00941 11.3023 7.88239 11.2499 7.75 11.25C7.4735 11.25 7.25 11.4733 7.25 11.7485V12.778C7.16293 12.7905 7.07669 12.8082 6.99175 12.831C6.2835 13.0245 5.62075 13.4663 5.45725 14.208C5.3435 14.7255 5.4015 15.322 5.78 15.7258C6.1625 16.1338 6.71725 16.2915 7.25 16.4278V18.496C6.937 18.3988 6.6615 18.2358 6.497 18.0173C6.327 17.7913 6.26325 17.5063 6.0815 17.287C5.883 17.0478 5.46325 17.0068 5.31 17.3058C5.19325 17.5335 5.2655 17.8628 5.36725 18.084C5.436 18.2338 5.52325 18.3832 5.6185 18.519C5.98975 19.045 6.53925 19.3577 7.25 19.4597V20.2515C7.25 20.5267 7.4735 20.75 7.75 20.75C8.026 20.75 8.25 20.5268 8.25 20.2518ZM8.25 16.6615C8.3465 16.688 8.44225 16.717 8.53575 16.751C9.14425 16.9737 9.422 17.653 8.994 18.1743C8.819 18.3878 8.55025 18.514 8.25 18.567V16.6615ZM7.25 15.3803C6.94875 15.2978 6.674 15.1738 6.51075 14.9055C6.207 14.405 6.70275 13.8832 7.16775 13.747C7.194 13.7392 7.22275 13.7348 7.25 13.7285V15.3803Z" fill="black"/>
</svg>
