<svg width="32" height="32" viewBox="0 0 32 32" fill="none" xmlns="http://www.w3.org/2000/svg">
<path d="M29.1016 9.18625C29.0589 9.10437 29.0006 9.0317 28.9299 8.97237C28.8591 8.91305 28.7774 8.86823 28.6894 8.84049C28.6013 8.81274 28.5087 8.80261 28.4167 8.81067C28.3248 8.81873 28.2353 8.84483 28.1534 8.88747C28.0716 8.9301 27.9989 8.98845 27.9396 9.05918C27.8802 9.1299 27.8354 9.21162 27.8077 9.29967C27.7799 9.38771 27.7698 9.48036 27.7779 9.57232C27.7859 9.66428 27.812 9.75375 27.8546 9.83562C29.174 12.3542 29.6521 15.2291 29.2187 18.0391C28.7853 20.8491 27.4633 23.4464 25.4465 25.4504C20.2378 30.6579 11.763 30.6591 6.55327 25.4504C6.45499 25.352 6.3297 25.2849 6.19327 25.2577C6.05684 25.2305 5.91541 25.2444 5.78688 25.2976C5.65835 25.3509 5.54851 25.441 5.47127 25.5567C5.39402 25.6724 5.35285 25.8084 5.35296 25.9476V29.5038C5.35296 29.6903 5.42704 29.8691 5.5589 30.001C5.69076 30.1329 5.8696 30.2069 6.05608 30.2069C6.24256 30.2069 6.4214 30.1329 6.55327 30.001C6.68513 29.8691 6.75921 29.6903 6.75921 29.5038V27.5219C9.5985 29.7932 13.175 30.939 16.8056 30.7403C20.4361 30.5415 23.8663 29.0123 26.4407 26.4447C31.022 21.8634 32.0915 14.9277 29.1016 9.18625ZM6.55314 6.55731C7.79362 5.31665 9.26634 4.33249 10.8872 3.66104C12.5081 2.98958 14.2453 2.64399 15.9997 2.64399C17.7542 2.64399 19.4914 2.98958 21.1123 3.66104C22.7331 4.33249 24.2059 5.31665 25.4463 6.55731C25.5446 6.65576 25.6699 6.72284 25.8063 6.75004C25.9428 6.77724 26.0842 6.76335 26.2127 6.71012C26.3412 6.65689 26.4511 6.56671 26.5283 6.45101C26.6056 6.33532 26.6468 6.1993 26.6466 6.06018V2.50394C26.6466 2.31745 26.5726 2.13861 26.4407 2.00675C26.3088 1.87489 26.13 1.80081 25.9435 1.80081C25.757 1.80081 25.5782 1.87489 25.4463 2.00675C25.3145 2.13861 25.2404 2.31745 25.2404 2.50394V4.48475C22.5971 2.36519 19.3053 1.21895 15.9172 1.23825C12.5291 1.25754 9.25064 2.44119 6.63162 4.59071C4.0126 6.74023 2.2123 9.7249 1.53261 13.0442C0.852917 16.3635 1.33518 19.8156 2.89852 22.8215C2.98463 22.9869 3.13291 23.1112 3.31073 23.1673C3.48855 23.2233 3.68134 23.2064 3.84671 23.1203C4.01207 23.0342 4.13645 22.8859 4.19249 22.7081C4.24853 22.5303 4.23163 22.3375 4.14552 22.1721C2.82592 19.6537 2.34772 16.7787 2.78101 13.9687C3.21429 11.1587 4.53622 8.56131 6.55314 6.55731Z" fill="black"/>
<path d="M15.9998 5.17569C14.525 5.17736 13.111 5.76399 12.0681 6.80688C11.0252 7.84977 10.4386 9.26376 10.4369 10.7386V13.5231H9.58765C8.95382 13.5238 8.34614 13.7759 7.89795 14.2241C7.44976 14.6722 7.19768 15.2799 7.19702 15.9138V22.7539C7.19768 23.3877 7.44976 23.9954 7.89795 24.4436C8.34614 24.8918 8.95382 25.1438 9.58765 25.1445H22.4126C23.0464 25.1438 23.6541 24.8918 24.1023 24.4436C24.5505 23.9954 24.8025 23.3877 24.8032 22.7539V15.9138C24.8025 15.2799 24.5505 14.6722 24.1023 14.2241C23.6541 13.7759 23.0464 13.5238 22.4126 13.5231H21.5633V10.7386C21.5616 9.26367 20.9749 7.84962 19.9319 6.80672C18.8889 5.76382 17.4748 5.17724 15.9998 5.17569ZM11.8431 10.7386C11.8431 9.63614 12.2811 8.57881 13.0607 7.79923C13.8403 7.01965 14.8976 6.58169 16.0001 6.58169C17.1026 6.58169 18.1599 7.01965 18.9395 7.79923C19.7191 8.57881 20.157 9.63614 20.157 10.7386V13.5231H11.8431V10.7386ZM23.3969 15.9138V22.7539C23.3966 23.0148 23.2927 23.265 23.1082 23.4496C22.9237 23.6341 22.6735 23.7379 22.4125 23.7383H9.58765C9.32668 23.7379 9.07649 23.6341 8.89195 23.4496C8.70742 23.265 8.6036 23.0148 8.60327 22.7539V15.9138C8.6036 15.6528 8.70742 15.4026 8.89195 15.2181C9.07649 15.0335 9.32668 14.9297 9.58765 14.9294H22.4126C22.6736 14.9297 22.9237 15.0335 23.1083 15.2181C23.2928 15.4026 23.3966 15.6528 23.397 15.9138H23.3969Z" fill="black"/>
<path d="M20.4998 20.7401C21.2765 20.7401 21.9061 20.1105 21.9061 19.3338C21.9061 18.5572 21.2765 17.9276 20.4998 17.9276C19.7232 17.9276 19.0936 18.5572 19.0936 19.3338C19.0936 20.1105 19.7232 20.7401 20.4998 20.7401Z" fill="black"/>
<path d="M15.9998 20.7401C16.7765 20.7401 17.4061 20.1105 17.4061 19.3338C17.4061 18.5572 16.7765 17.9276 15.9998 17.9276C15.2232 17.9276 14.5936 18.5572 14.5936 19.3338C14.5936 20.1105 15.2232 20.7401 15.9998 20.7401Z" fill="black"/>
<path d="M11.4998 20.7401C12.2765 20.7401 12.9061 20.1105 12.9061 19.3338C12.9061 18.5572 12.2765 17.9276 11.4998 17.9276C10.7232 17.9276 10.0936 18.5572 10.0936 19.3338C10.0936 20.1105 10.7232 20.7401 11.4998 20.7401Z" fill="black"/>
</svg>
