<svg width="16" height="16" viewBox="0 0 16 16" fill="none" xmlns="http://www.w3.org/2000/svg">
<g clip-path="url(#clip0_18_135)">
<path d="M15.1429 3.42857C15.381 3.42857 15.5833 3.5119 15.75 3.67857C15.9167 3.84524 16 4.04762 16 4.28571V15.1429C16 15.381 15.9167 15.5833 15.75 15.75C15.5833 15.9167 15.381 16 15.1429 16H6.57143C6.33333 16 6.13095 15.9167 5.96429 15.75C5.79762 15.5833 5.71429 15.381 5.71429 15.1429V12.5714H0.857143C0.619048 12.5714 0.416667 12.4881 0.25 12.3214C0.0833333 12.1548 0 11.9524 0 11.7143V5.71429C0 5.47619 0.0595238 5.21429 0.178571 4.92857C0.297619 4.64286 0.440476 4.41667 0.607143 4.25L4.25 0.607143C4.41667 0.440476 4.64286 0.297619 4.92857 0.178571C5.21429 0.0595238 5.47619 0 5.71429 0H9.42857C9.66667 0 9.86905 0.0833333 10.0357 0.25C10.2024 0.416667 10.2857 0.619048 10.2857 0.857143V3.78571C10.6905 3.54762 11.0714 3.42857 11.4286 3.42857H15.1429ZM10.2857 5.33036L7.61607 8H10.2857V5.33036ZM4.57143 1.90179L1.90179 4.57143H4.57143V1.90179ZM6.32143 7.67857L9.14286 4.85714V1.14286H5.71429V4.85714C5.71429 5.09524 5.63095 5.29762 5.46429 5.46429C5.29762 5.63095 5.09524 5.71429 4.85714 5.71429H1.14286V11.4286H5.71429V9.14286C5.71429 8.90476 5.77381 8.64286 5.89286 8.35714C6.01191 8.07143 6.15476 7.84524 6.32143 7.67857ZM14.8571 14.8571V4.57143H11.4286V8.28572C11.4286 8.52381 11.3452 8.72619 11.1786 8.89286C11.0119 9.05952 10.8095 9.14286 10.5714 9.14286H6.85714V14.8571H14.8571Z" fill="black"/>
</g>
<defs>
<clipPath id="clip0_18_135">
<rect width="16" height="16" fill="white"/>
</clipPath>
</defs>
</svg>
