<svg width="30" height="30" viewBox="0 0 30 30" fill="none" xmlns="http://www.w3.org/2000/svg">
<path d="M2.49854 11.1123C2.49854 11.1174 2.50122 11.1217 2.50146 11.1268V17.8184C2.50146 18.8828 3.3667 19.749 4.43115 19.749H8.36951C8.62732 23.2052 11.5081 25.9014 14.9946 25.9014C18.4982 25.9014 21.3718 23.1835 21.6285 19.749H25.5708C26.6353 19.749 27.5015 18.8828 27.5015 17.8184V6.02832C27.5015 4.94629 26.6538 4.09863 25.5708 4.09863H4.43115C3.3667 4.09863 2.50146 4.96387 2.50146 6.02832V7.71887C2.50122 7.724 2.49854 7.72827 2.49854 7.7334V11.1123ZM3.50146 8.2334H26.4985V10.6123H3.50146V8.2334ZM18.6208 14.9119L18.1382 15.3945C17.9429 15.5898 17.9429 15.9062 18.1382 16.1016C18.3335 16.2969 18.6499 16.2969 18.8452 16.1016L19.3279 15.6189C20.051 16.4814 20.5203 17.5615 20.6254 18.7456L19.9409 18.7451C19.6646 18.7451 19.4409 18.9688 19.4409 19.2451C19.4409 19.5205 19.6646 19.7451 19.9409 19.7451L20.6287 19.7456C20.525 20.9304 20.0557 22.0115 19.3313 22.8743L18.8462 22.3887C18.6509 22.1934 18.3345 22.1934 18.1392 22.3887C17.9438 22.584 17.9438 22.9004 18.1392 23.0957L18.6237 23.5808C17.7605 24.3032 16.6796 24.7717 15.4946 24.876V24.1924C15.4946 23.916 15.271 23.6924 14.9946 23.6924C14.7183 23.6924 14.4946 23.916 14.4946 24.1924V24.876C13.3103 24.7715 12.2301 24.3018 11.3679 23.5779L11.8501 23.0957C12.0454 22.9004 12.0454 22.584 11.8501 22.3887C11.6548 22.1934 11.3384 22.1934 11.1431 22.3887L10.6613 22.8705C9.93933 22.0077 9.47217 20.9271 9.36914 19.7432H10.0483C10.3247 19.7432 10.5483 19.5195 10.5483 19.2432C10.5483 18.9668 10.3247 18.7432 10.0483 18.7432H9.36987C9.47559 17.5605 9.94434 16.4817 10.6656 15.6202L11.145 16.0996C11.3403 16.2949 11.6567 16.2949 11.8521 16.0996C12.0474 15.9043 12.0474 15.5879 11.8521 15.3926L11.3722 14.9127C12.2336 14.1897 13.3123 13.7207 14.4946 13.6162V14.2998C14.4946 14.5762 14.7183 14.7998 14.9946 14.7998C15.271 14.7998 15.4946 14.5762 15.4946 14.2998V13.6162C16.6228 13.7156 17.7086 14.1467 18.6208 14.9119ZM25.5708 18.749H21.6323C21.631 18.7307 21.6272 18.7133 21.6257 18.6951C21.3397 15.2478 18.4274 12.5889 14.9907 12.5889C11.5148 12.5889 8.61734 15.3098 8.35986 18.749H4.43115C3.91846 18.749 3.50146 18.3311 3.50146 17.8184V11.6123H26.5015V17.8184C26.5015 18.3311 26.0835 18.749 25.5708 18.749ZM4.43115 5.09863H25.5708C26.0923 5.09863 26.5015 5.50684 26.5015 6.02832V7.2334H3.50146V6.02832C3.50146 5.50684 3.90967 5.09863 4.43115 5.09863Z" fill="black"/>
<path d="M15.02 15.248C14.7437 15.248 14.52 15.4717 14.52 15.748V19.0361L12.4653 21.0918C12.27 21.2871 12.27 21.6035 12.4653 21.7988C12.6606 21.9941 12.977 21.9941 13.1724 21.7988L15.3735 19.5967C15.4673 19.5029 15.52 19.376 15.52 19.2432V15.748C15.52 15.4717 15.2964 15.248 15.02 15.248Z" fill="black"/>
</svg>
