<svg width="68" height="68" viewBox="0 0 68 68" fill="none" xmlns="http://www.w3.org/2000/svg">
<path d="M29.7 36.2C36.5 36.2 42 30.7 42 23.9C42 17.1 36.5 11.6 29.7 11.6C22.9 11.6 17.4 17.1 17.4 23.9C17.4 30.7 22.9 36.2 29.7 36.2ZM29.7 13.6C35.4 13.6 40 18.2 40 23.9C40 29.6 35.4 34.2 29.7 34.2C24 34.2 19.4 29.6 19.4 23.9C19.4 18.2 24 13.6 29.7 13.6Z" fill="#010101"/>
<path d="M63.2 14.3C60.4 12.9 56.9 13.7 55 16.2C50 6.9 40.3 1 29.7 1C13.9 1 1 13.9 1 29.7C1 45.4 13.7 58.4 29.7 58.4C32.5 58.4 35.3 58 37.9 57.2L36.6 65.9C36.5 66.3 36.8 66.7 37.1 66.9C37.5 67.1 38 67 38.3 66.7L51.2 53.5C51.3 53.4 51.3 53.3 51.4 53.3C63.6 28.6 65.2 25.4 66.3 23.3C67.9 20 66.8 16 63.2 14.3ZM50.1 51.4L46.8 49.8L58.5 26L61.8 27.6L50.1 51.4ZM45 48.9L41.7 47.3L53.5 23.6L56.8 25.2L45 48.9ZM29.7 3C40 3 49.4 9 53.8 18.3C53 19.8 45 36.1 43 40C40.3 38.4 37.2 37.6 34 37.6H25.4C18.7 37.6 12.6 41.3 9.6 47.2C5.3 42.4 3 36.2 3 29.7C3 15 15 3 29.7 3ZM11.1 48.8C13.6 43.2 19.2 39.6 25.4 39.6H34C36.9 39.6 39.7 40.4 42.1 41.8L39.4 47.2L39.3 47.5L38.2 54.9C29 58.1 18.5 56 11.1 48.8ZM41.1 49.2L48.9 53L39.1 63.1L41.1 49.2ZM64.5 22.3L62.7 25.9L54.3 21.7L56.1 18.1C57.2 15.9 59.9 14.8 62.4 16C64.7 17.2 65.7 20 64.5 22.3Z" fill="#010101"/>
</svg>
