<svg width="17" height="16" viewBox="0 0 17 16" fill="none" xmlns="http://www.w3.org/2000/svg">
<path d="M13.5 2.5H3.5C3.17169 2.5 2.84661 2.56466 2.54329 2.6903C2.23998 2.81594 1.96438 3.00009 1.73223 3.23223C1.26339 3.70107 1 4.33696 1 5V10.395C0.992393 10.9144 1.14145 11.4241 1.42775 11.8575C1.71404 12.291 2.12429 12.6281 2.605 12.825C3.05828 13.0082 3.55664 13.049 4.03366 12.9418C4.51068 12.8346 4.9437 12.5845 5.275 12.225L7.39 10H9.61L11.725 12.225C12.0559 12.5851 12.4889 12.8356 12.9661 12.9428C13.4433 13.0501 13.9418 13.009 14.395 12.825C14.8757 12.6281 15.286 12.291 15.5723 11.8575C15.8585 11.4241 16.0076 10.9144 16 10.395V5C16 4.33696 15.7366 3.70107 15.2678 3.23223C14.7989 2.76339 14.163 2.5 13.5 2.5ZM15 10.395C15.0095 10.7146 14.9213 11.0294 14.7471 11.2975C14.5728 11.5655 14.3209 11.774 14.025 11.895C13.7576 12.0058 13.4623 12.0307 13.1801 11.9662C12.8979 11.9017 12.6427 11.751 12.45 11.535L10.19 9.155C10.1429 9.10564 10.0863 9.06642 10.0235 9.03977C9.96075 9.01311 9.89319 8.99958 9.825 9H7.175C7.10681 8.99958 7.03925 9.01311 6.97648 9.03977C6.91371 9.06642 6.85705 9.10564 6.81 9.155L4.55 11.535C4.35914 11.7459 4.1084 11.8933 3.83136 11.9577C3.55433 12.022 3.26425 12.0002 3 11.895C2.70409 11.774 2.45218 11.5655 2.27794 11.2975C2.10371 11.0294 2.01546 10.7146 2.025 10.395V5C2.02495 4.60647 2.17954 4.22868 2.45546 3.94808C2.73138 3.66748 3.10652 3.50656 3.5 3.5H13.5C13.8978 3.5 14.2794 3.65804 14.5607 3.93934C14.842 4.22064 15 4.60218 15 5V10.395ZM12 4.5C11.6044 4.5 11.2178 4.6173 10.8889 4.83706C10.56 5.05682 10.3036 5.36918 10.1522 5.73463C10.0009 6.10009 9.96126 6.50222 10.0384 6.89018C10.1156 7.27814 10.3061 7.63451 10.5858 7.91421C10.8655 8.19392 11.2219 8.3844 11.6098 8.46157C11.9978 8.53874 12.3999 8.49913 12.7654 8.34776C13.1308 8.19638 13.4432 7.94004 13.6629 7.61114C13.8827 7.28224 14 6.89556 14 6.5C14 5.96957 13.7893 5.46086 13.4142 5.08579C13.0391 4.71071 12.5304 4.5 12 4.5ZM12 7.5C11.8022 7.5 11.6089 7.44135 11.4444 7.33147C11.28 7.22159 11.1518 7.06541 11.0761 6.88268C11.0004 6.69996 10.9806 6.49889 11.0192 6.30491C11.0578 6.11093 11.153 5.93275 11.2929 5.79289C11.4327 5.65304 11.6109 5.5578 11.8049 5.51921C11.9989 5.48063 12.2 5.50043 12.3827 5.57612C12.5654 5.65181 12.7216 5.77998 12.8315 5.94443C12.9414 6.10888 13 6.30222 13 6.5C13 6.76522 12.8946 7.01957 12.7071 7.20711C12.5196 7.39464 12.2652 7.5 12 7.5ZM7 6.5C7 6.63261 6.94732 6.75979 6.85355 6.85355C6.75978 6.94732 6.63261 7 6.5 7H5.5V8C5.5 8.13261 5.44732 8.25979 5.35355 8.35355C5.25978 8.44732 5.13261 8.5 5 8.5C4.86739 8.5 4.74021 8.44732 4.64645 8.35355C4.55268 8.25979 4.5 8.13261 4.5 8V7H3.5C3.36739 7 3.24021 6.94732 3.14645 6.85355C3.05268 6.75979 3 6.63261 3 6.5C3 6.36739 3.05268 6.24021 3.14645 6.14645C3.24021 6.05268 3.36739 6 3.5 6H4.5V5C4.5 4.86739 4.55268 4.74021 4.64645 4.64645C4.74021 4.55268 4.86739 4.5 5 4.5C5.13261 4.5 5.25978 4.55268 5.35355 4.64645C5.44732 4.74021 5.5 4.86739 5.5 5V6H6.5C6.63261 6 6.75978 6.05268 6.85355 6.14645C6.94732 6.24021 7 6.36739 7 6.5Z" fill="black"/>
</svg>
