<svg width="17" height="16" viewBox="0 0 17 16" fill="none" xmlns="http://www.w3.org/2000/svg">
<path d="M6.6048 13.8476V11.8031C6.60479 11.2831 7.02873 10.8606 7.554 10.8571H9.47805C10.0058 10.8571 10.4337 11.2806 10.4337 11.8031V13.854C10.4335 14.2955 10.7895 14.6563 11.2353 14.6667H12.518C13.7967 14.6667 14.8333 13.6405 14.8333 12.3746V6.55857C14.8265 6.06056 14.5903 5.59291 14.192 5.2887L9.80514 1.79021C9.03661 1.18105 7.94413 1.18105 7.1756 1.79021L2.80801 5.29505C2.40816 5.59802 2.17158 6.06645 2.16666 6.56492V12.3746C2.16666 13.6405 3.20324 14.6667 4.48193 14.6667H5.76463C6.22156 14.6667 6.59197 14.3 6.59197 13.8476" stroke="#200E32" stroke-width="1.5" stroke-linecap="round" stroke-linejoin="round"/>
</svg>
