<svg width="64" height="64" viewBox="0 0 64 64" fill="none" xmlns="http://www.w3.org/2000/svg">
<path d="M57 13H7C4.243 13 2 15.243 2 18V46C2 48.757 4.243 51 7 51H57C59.757 51 62 48.757 62 46V18C62 15.243 59.757 13 57 13ZM60 46C60 47.654 58.654 49 57 49H7C5.346 49 4 47.654 4 46V18C4 16.346 5.346 15 7 15H57C58.654 15 60 16.346 60 18V46Z" fill="black"/>
<path d="M44 18C36.28 18 30 24.28 30 32C30 39.72 36.28 46 44 46C51.72 46 58 39.72 58 32C58 24.28 51.72 18 44 18ZM44 44C37.383 44 32 38.617 32 32C32 25.383 37.383 20 44 20C50.617 20 56 25.383 56 32C56 38.617 50.617 44 44 44Z" fill="black"/>
<path d="M44 22C38.486 22 34 26.486 34 32C34 37.514 38.486 42 44 42C49.514 42 54 37.514 54 32C54 26.486 49.514 22 44 22ZM44 40C39.589 40 36 36.411 36 32C36 27.589 39.589 24 44 24C48.411 24 52 27.589 52 32C52 36.411 48.411 40 44 40Z" fill="black"/>
<path d="M44 29C44.552 29 45 29.448 45 30H47C47 28.698 46.161 27.598 45 27.184V26H43V27.184C41.839 27.598 41 28.698 41 30C41 31.654 42.346 33 44 33C44.552 33 45 33.448 45 34C45 34.552 44.552 35 44 35C43.448 35 43 34.552 43 34H41C41 35.302 41.839 36.402 43 36.816V38H45V36.816C46.161 36.402 47 35.302 47 34C47 32.346 45.654 31 44 31C43.448 31 43 30.552 43 30C43 29.448 43.448 29 44 29ZM19 30C19 28.346 17.654 27 16 27H10C8.346 27 7 28.346 7 30V34C7 35.654 8.346 37 10 37H16C17.654 37 19 35.654 19 34V30ZM17 30V31H14V29H16C16.552 29 17 29.448 17 30ZM10 29H12V31H9V30C9 29.448 9.448 29 10 29ZM9 34V33H12V35H10C9.448 35 9 34.552 9 34ZM16 35H14V33H17V34C17 34.552 16.552 35 16 35Z" fill="black"/>
<path d="M9 40H7V42H9V40Z" fill="black"/>
<path d="M13 40H11V42H13V40Z" fill="black"/>
<path d="M17 40H15V42H17V40Z" fill="black"/>
<path d="M21 40H19V42H21V40Z" fill="black"/>
<path d="M25 40H23V42H25V40Z" fill="black"/>
<path d="M9 44H7V46H9V44Z" fill="black"/>
<path d="M13 44H11V46H13V44Z" fill="black"/>
<path d="M17 44H15V46H17V44Z" fill="black"/>
<path d="M21 44H19V46H21V44Z" fill="black"/>
<path d="M25 44H23V46H25V44Z" fill="black"/>
<path d="M38.558 4.773C39.164 4.919 39.775 5.086 40.372 5.275L40.972 3.367C40.33 3.166 39.675 2.984 39.025 2.828L38.558 4.773ZM48.725 9.55C49.229 9.927 49.72 10.321 50.198 10.729L51.499 9.209C50.989 8.772 50.459 8.349 49.923 7.948L48.725 9.55ZM36.71 4.396L37.046 2.423C36.389 2.312 35.715 2.221 35.044 2.153L34.845 4.143C35.473 4.208 36.095 4.291 36.71 4.396ZM45.56 7.503C46.111 7.809 46.65 8.132 47.176 8.474L48.264 6.794C47.703 6.432 47.12 6.082 46.531 5.755L45.56 7.503ZM27.32 4.391C27.937 4.287 28.56 4.203 29.19 4.14L28.991 2.15C28.324 2.217 27.65 2.307 26.988 2.419L27.32 4.391ZM32.964 4.016L33.028 2.018C32.359 1.995 31.68 1.994 31.007 2.017L31.075 4.015C31.704 3.994 32.339 3.997 32.964 4.016ZM16.843 8.461C17.371 8.12 17.911 7.796 18.462 7.49L17.491 5.742C16.908 6.065 16.325 6.414 15.759 6.779L16.843 8.461ZM13.823 10.713C14.3 10.304 14.791 9.912 15.295 9.536L14.1 7.933C13.556 8.338 13.025 8.763 12.521 9.196L13.823 10.713ZM42.151 5.9C42.734 6.128 43.316 6.377 43.881 6.643L44.733 4.832C44.127 4.547 43.502 4.279 42.876 4.036L42.151 5.9ZM20.142 6.632C20.71 6.366 21.288 6.118 21.875 5.891L21.15 4.025C20.53 4.266 19.905 4.534 19.294 4.821L20.142 6.632ZM23.656 5.267C24.246 5.081 24.857 4.913 25.472 4.766L25.008 2.82C24.347 2.978 23.691 3.159 23.057 3.358L23.656 5.267ZM15.736 57.206C16.297 57.568 16.88 57.918 17.469 58.245L18.44 56.497C17.889 56.191 17.35 55.868 16.824 55.526L15.736 57.206ZM19.267 59.167C19.873 59.452 20.498 59.72 21.124 59.963L21.849 58.1C21.266 57.872 20.684 57.623 20.119 57.357L19.267 59.167ZM12.502 54.791C13.012 55.228 13.542 55.651 14.078 56.052L15.275 54.45C14.771 54.073 14.28 53.679 13.802 53.271L12.502 54.791ZM23.028 60.633C23.67 60.834 24.325 61.016 24.975 61.172L25.442 59.227C24.836 59.081 24.225 58.914 23.628 58.725L23.028 60.633ZM42.125 58.109L42.85 59.974C43.47 59.733 44.095 59.465 44.706 59.178L43.858 57.367C43.29 57.634 42.713 57.882 42.125 58.109ZM45.538 56.51L46.509 58.258C47.092 57.935 47.675 57.586 48.241 57.221L47.157 55.539C46.629 55.88 46.089 56.204 45.538 56.51ZM48.705 54.464L49.9 56.068C50.444 55.663 50.975 55.238 51.479 54.805L50.176 53.287C49.7 53.696 49.209 54.088 48.705 54.464ZM26.954 61.576C27.611 61.687 28.285 61.778 28.956 61.846L29.155 59.856C28.527 59.793 27.905 59.71 27.29 59.604L26.954 61.576ZM38.527 59.234L38.992 61.179C39.653 61.021 40.309 60.84 40.943 60.641L40.343 58.733C39.754 58.919 39.143 59.087 38.527 59.234ZM34.81 59.86L35.009 61.85C35.676 61.783 36.35 61.693 37.012 61.581L36.68 59.608C36.062 59.713 35.439 59.797 34.81 59.86ZM31.036 59.984L30.972 61.982C31.312 61.994 31.655 62 32 62C32.332 62 32.662 61.995 32.992 61.983L32.924 59.985C32.296 60.006 31.66 60.003 31.036 59.984Z" fill="black"/>
</svg>
