<svg width="64" height="64" viewBox="0 0 64 64" fill="none" xmlns="http://www.w3.org/2000/svg">
<path d="M58.846 14.649H49.015V3.06499C49.015 2.52799 48.581 2.09399 48.045 2.09399H15.951C15.415 2.09399 14.981 2.52799 14.981 3.06499V14.649H5.154C2.312 14.649 0 16.962 0 19.804V52.224C0 55.066 2.312 57.378 5.154 57.378H13.451L13.285 60.89C13.273 61.156 13.369 61.413 13.552 61.607C13.735 61.798 13.989 61.906 14.254 61.906H49.974C50.241 61.906 50.496 61.797 50.679 61.603C50.862 61.408 50.957 61.146 50.942 60.88L50.738 57.378H58.844C61.686 57.378 63.998 55.065 63.998 52.224V19.804C64 16.962 61.688 14.649 58.846 14.649ZM16.921 4.03399H47.075V14.649H16.921V4.03399ZM15.271 59.966L16.188 40.528H47.817L48.946 59.966H15.271ZM62.061 52.224C62.061 53.997 60.619 55.439 58.846 55.439H50.627L49.761 40.529H54.194C54.729 40.529 55.164 40.095 55.164 39.558C55.164 39.023 54.729 38.589 54.194 38.589H9.803C9.267 38.589 8.833 39.023 8.833 39.558C8.833 40.095 9.267 40.529 9.803 40.529H14.247L13.543 55.439H5.154C3.382 55.439 1.939 53.998 1.939 52.224V19.804C1.939 18.031 3.381 16.589 5.154 16.589H58.845C60.617 16.589 62.06 18.03 62.06 19.804L62.061 52.224Z" fill="#010101"/>
<path d="M21.888 47.888H42.34C42.876 47.888 43.31 47.452 43.31 46.917C43.31 46.382 42.876 45.948 42.34 45.948H21.888C21.352 45.948 20.918 46.382 20.918 46.917C20.918 47.452 21.353 47.888 21.888 47.888ZM42.34 52.616H21.888C21.352 52.616 20.918 53.05 20.918 53.587C20.918 54.122 21.352 54.556 21.888 54.556H42.34C42.876 54.556 43.31 54.122 43.31 53.587C43.31 53.05 42.876 52.616 42.34 52.616ZM9.80301 22.448C7.73001 22.448 6.04401 24.134 6.04401 26.206C6.04401 28.28 7.73001 29.966 9.80301 29.966C11.876 29.966 13.562 28.28 13.562 26.206C13.562 24.134 11.875 22.448 9.80301 22.448ZM9.80301 28.026C8.80001 28.026 7.98401 27.21 7.98401 26.206C7.98401 25.202 8.80001 24.388 9.80301 24.388C10.806 24.388 11.622 25.202 11.622 26.206C11.622 27.21 10.806 28.026 9.80301 28.026Z" fill="#010101"/>
</svg>
