<svg width="64" height="64" viewBox="0 0 64 64" fill="none" xmlns="http://www.w3.org/2000/svg">
<path d="M58.0067 33.2689C58.0066 33.1136 57.9705 32.9604 57.901 32.8216C57.8315 32.6827 57.7306 32.5619 57.6064 32.4688L54.0751 29.8235C53.9022 29.6938 53.6918 29.6238 53.4757 29.6238H46.54V12.7226C46.54 12.5912 46.5142 12.4612 46.4639 12.3398C46.4137 12.2184 46.34 12.1082 46.2471 12.0153L38.5323 4.31026C38.3604 4.13516 38.1273 4.03354 37.882 4.02676C37.8275 3.95568 8.96303 4.05325 8.90057 4.01487C8.12386 4.01571 7.37919 4.32462 6.82993 4.87381C6.28068 5.423 5.9717 6.16763 5.97076 6.94435V57.0706C5.97166 57.8473 6.28065 58.592 6.82993 59.1412C7.37921 59.6904 8.12391 59.9992 8.90064 60H43.6111C44.3877 59.999 45.1322 59.6901 45.6812 59.1409C46.2303 58.5917 46.5391 57.8472 46.54 57.0706V54.5823C53.9993 51.2959 58.3842 40.8085 58.0067 33.2689ZM38.8233 7.42725L43.1289 11.7273H39.7518C39.5056 11.7269 39.2697 11.629 39.0956 11.455C38.9216 11.2809 38.8236 11.0449 38.8233 10.7988V7.42725ZM44.5405 57.0706C44.5374 57.3162 44.4385 57.5508 44.2649 57.7245C44.0913 57.8982 43.8567 57.9973 43.6111 58.0005H8.90064C8.65492 57.9975 8.42011 57.8985 8.2463 57.7248C8.07249 57.5511 7.97342 57.3163 7.97023 57.0706V6.94435C7.97342 6.69863 8.07249 6.46387 8.2463 6.29015C8.42011 6.11642 8.65492 6.01748 8.90064 6.01442H36.8239V10.7988C36.8247 11.5751 37.1334 12.3193 37.6824 12.8682C38.2313 13.4171 38.9755 13.7259 39.7518 13.7267H44.5405V29.6238H37.5961C37.3796 29.6239 37.1689 29.6941 36.9957 29.824L33.4644 32.4737C33.3476 32.5613 33.2515 32.6734 33.1829 32.8022C33.1142 32.9311 33.0746 33.0734 33.067 33.2191C32.6901 40.8115 37.0744 51.303 44.5405 54.5856V57.0706ZM45.5364 52.8964C38.9225 50.0324 34.8689 40.7944 35.045 33.7878L37.929 31.6233C41.7344 31.6248 49.3385 31.6222 53.1427 31.6233L56.0267 33.7839C56.2051 40.79 52.1523 50.0298 45.5364 52.8964Z" fill="black"/>
<path d="M50.0235 37.1311L44.3824 42.7722L41.9144 40.3051C41.7258 40.1236 41.4734 40.0232 41.2116 40.0257C40.9497 40.0282 40.6993 40.1333 40.5142 40.3185C40.329 40.5036 40.2239 40.754 40.2213 41.0159C40.2188 41.2777 40.3191 41.5301 40.5007 41.7188L43.6756 44.8928C43.7684 44.9856 43.8786 45.0593 43.9999 45.1095C44.1212 45.1598 44.2512 45.1856 44.3824 45.1856C44.5137 45.1856 44.6437 45.1598 44.765 45.1095C44.8863 45.0593 44.9965 44.9856 45.0893 44.8928L51.4372 38.5448C51.619 38.3562 51.7194 38.1038 51.717 37.8418C51.7146 37.5799 51.6094 37.3294 51.4242 37.1441C51.239 36.9589 50.9884 36.8538 50.7265 36.8513C50.4646 36.8489 50.2121 36.9494 50.0235 37.1311ZM14.2586 21.0104H34.2533C34.515 21.0052 34.7643 20.8976 34.9475 20.7107C35.1308 20.5238 35.2334 20.2724 35.2334 20.0107C35.2334 19.7489 35.1308 19.4975 34.9475 19.3106C34.7642 19.1237 34.5149 19.0161 34.2532 19.011H14.2586C13.9969 19.0161 13.7476 19.1237 13.5644 19.3106C13.3811 19.4976 13.2784 19.7489 13.2784 20.0107C13.2784 20.2725 13.3811 20.5238 13.5644 20.7107C13.7476 20.8977 13.9969 21.0053 14.2586 21.0104ZM14.2586 29.0083H30.2543C30.5161 29.0031 30.7653 28.8955 30.9486 28.7086C31.1319 28.5216 31.2345 28.2703 31.2345 28.0085C31.2345 27.7467 31.1318 27.4954 30.9486 27.3085C30.7653 27.1216 30.516 27.014 30.2543 27.0088H14.2586C13.9969 27.014 13.7476 27.1216 13.5644 27.3085C13.3811 27.4954 13.2784 27.7468 13.2784 28.0086C13.2784 28.2703 13.3811 28.5217 13.5644 28.7086C13.7476 28.8955 13.9969 29.0031 14.2586 29.0083ZM14.2586 37.0061H26.2554C26.5206 37.0061 26.7748 36.9008 26.9623 36.7133C27.1498 36.5258 27.2551 36.2716 27.2551 36.0064C27.2551 35.7413 27.1498 35.487 26.9623 35.2995C26.7748 35.112 26.5206 35.0067 26.2554 35.0067H14.2586C13.9969 35.0118 13.7475 35.1194 13.5642 35.3063C13.3809 35.4932 13.2782 35.7446 13.2782 36.0064C13.2782 36.2682 13.3809 36.5196 13.5642 36.7065C13.7475 36.8935 13.9969 37.001 14.2586 37.0061ZM14.2586 45.004H26.2554C26.387 45.0044 26.5173 44.9789 26.639 44.9288C26.7606 44.8788 26.8712 44.8052 26.9644 44.7123C27.0576 44.6194 27.1315 44.5091 27.1819 44.3876C27.2324 44.2661 27.2583 44.1358 27.2583 44.0043C27.2583 43.8727 27.2324 43.7425 27.1819 43.621C27.1315 43.4995 27.0576 43.3891 26.9644 43.2962C26.8712 43.2034 26.7606 43.1298 26.639 43.0797C26.5173 43.0297 26.387 43.0041 26.2554 43.0045H14.2586C13.9969 43.0097 13.7476 43.1173 13.5644 43.3042C13.3811 43.4912 13.2784 43.7425 13.2784 44.0043C13.2784 44.266 13.3811 44.5174 13.5644 44.7043C13.7476 44.8912 13.9969 44.9988 14.2586 45.004ZM34.2533 51.0024H14.2586C13.9969 51.0076 13.7476 51.1152 13.5644 51.3021C13.3811 51.4891 13.2785 51.7404 13.2785 52.0022C13.2785 52.2639 13.3811 52.5153 13.5644 52.7022C13.7477 52.8891 13.997 52.9967 14.2587 53.0019H34.2533C34.515 52.9967 34.7643 52.8891 34.9475 52.7022C35.1308 52.5153 35.2335 52.2639 35.2335 52.0021C35.2335 51.7404 35.1308 51.489 34.9475 51.3021C34.7643 51.1152 34.515 51.0076 34.2533 51.0024Z" fill="black"/>
</svg>
