<svg width="16" height="16" viewBox="0 0 16 16" fill="none" xmlns="http://www.w3.org/2000/svg">
<path fill-rule="evenodd" clip-rule="evenodd" d="M13.8711 5.08237L13.4561 4.36231C13.1051 3.75303 12.3271 3.54284 11.717 3.89244C11.4266 4.06352 11.08 4.11206 10.7538 4.02735C10.4275 3.94264 10.1484 3.73164 9.97788 3.44087C9.86819 3.25606 9.80925 3.04556 9.80702 2.83065C9.81692 2.48611 9.68693 2.15223 9.44667 1.90507C9.20641 1.65792 8.87635 1.51853 8.53166 1.51868H7.69566C7.35797 1.51868 7.0342 1.65324 6.79599 1.89259C6.55778 2.13194 6.42477 2.45635 6.4264 2.79404C6.41639 3.49124 5.84831 4.05117 5.15103 4.05109C4.93613 4.04886 4.72563 3.98992 4.54081 3.88023C3.9307 3.53064 3.15273 3.74082 2.80168 4.3501L2.35622 5.08237C2.0056 5.69089 2.21292 6.46836 2.81999 6.8215C3.21459 7.04932 3.45768 7.47035 3.45768 7.926C3.45768 8.38165 3.21459 8.80268 2.81999 9.0305C2.21369 9.38125 2.00614 10.1568 2.35622 10.7635L2.77727 11.4897C2.94175 11.7865 3.21773 12.0055 3.54412 12.0983C3.87051 12.191 4.22042 12.1499 4.5164 11.984C4.80738 11.8142 5.15412 11.7677 5.47955 11.8548C5.80498 11.9418 6.08215 12.1553 6.24943 12.4477C6.35912 12.6326 6.41806 12.8431 6.42029 13.058C6.42029 13.7623 6.99129 14.3333 7.69566 14.3333H8.53166C9.23365 14.3333 9.80366 13.766 9.80702 13.0641C9.80539 12.7253 9.93923 12.4 10.1788 12.1604C10.4183 11.9209 10.7436 11.7871 11.0824 11.7887C11.2968 11.7944 11.5064 11.8531 11.6926 11.9596C12.3011 12.3102 13.0786 12.1029 13.4317 11.4958L13.8711 10.7635C14.0412 10.4716 14.0878 10.124 14.0008 9.79754C13.9137 9.47112 13.7002 9.19286 13.4073 9.0244C13.1145 8.85593 12.9009 8.57768 12.8139 8.25125C12.7268 7.92483 12.7735 7.57717 12.9436 7.28527C13.0542 7.09218 13.2142 6.93209 13.4073 6.8215C14.0108 6.46855 14.2176 5.69562 13.8711 5.08847V5.08237Z" stroke="#200E32" stroke-width="1.5" stroke-linecap="round" stroke-linejoin="round"/>
<path d="M8.11668 9.68331C9.08723 9.68331 9.87401 8.89652 9.87401 7.92597C9.87401 6.95543 9.08723 6.16864 8.11668 6.16864C7.14613 6.16864 6.35934 6.95543 6.35934 7.92597C6.35934 8.89652 7.14613 9.68331 8.11668 9.68331Z" stroke="#200E32" stroke-width="1.5" stroke-linecap="round" stroke-linejoin="round"/>
</svg>
