<svg width="512" height="512" viewBox="0 0 512 512" fill="none" xmlns="http://www.w3.org/2000/svg">
<g clip-path="url(#clip0_244_556)">
<path d="M256 172.5C254.517 172.5 253.067 172.94 251.833 173.764C250.6 174.588 249.639 175.759 249.071 177.13C248.503 178.5 248.355 180.008 248.644 181.463C248.933 182.918 249.648 184.254 250.697 185.303C251.746 186.352 253.082 187.066 254.537 187.356C255.992 187.645 257.5 187.497 258.87 186.929C260.241 186.361 261.412 185.4 262.236 184.167C263.06 182.933 263.5 181.483 263.5 180C263.5 178.011 262.71 176.103 261.303 174.697C259.897 173.29 257.989 172.5 256 172.5ZM509.803 417.637L428.243 336.077C427.194 335.028 425.858 334.314 424.403 334.025C422.948 333.735 421.44 333.884 420.07 334.451C418.7 335.019 417.528 335.98 416.704 337.214C415.88 338.447 415.44 339.897 415.44 341.38V378.85H362.257C379.912 363.619 394.075 344.761 403.781 323.561C413.487 302.36 418.507 279.316 418.5 256C418.5 166.397 345.603 93.5 256 93.5C225.603 93.4656 195.813 102.01 170.055 118.15H89.06C87.0709 118.15 85.1632 118.94 83.7567 120.347C82.3502 121.753 81.56 123.661 81.56 125.65V152.514L18.106 89.06L81.56 25.606V52.47C81.56 54.4591 82.3502 56.3668 83.7567 57.7733C85.1632 59.1798 87.0709 59.97 89.06 59.97H223.89C225.879 59.97 227.787 59.1798 229.193 57.7733C230.6 56.3668 231.39 54.4591 231.39 52.47C231.39 50.4809 230.6 48.5732 229.193 47.1667C227.787 45.7601 225.879 44.97 223.89 44.97H96.56V7.49997C96.5601 6.01662 96.1203 4.56655 95.2963 3.33314C94.4722 2.09973 93.3009 1.13837 91.9305 0.570637C90.5601 0.00290567 89.0521 -0.145703 87.5972 0.143605C86.1424 0.432912 84.806 1.14714 83.757 2.19597L2.197 83.756C1.5005 84.4524 0.948006 85.2792 0.57106 86.1892C0.194115 87.0992 0.000102997 88.0745 0.000102997 89.0595C0.000102997 90.0444 0.194115 91.0198 0.57106 91.9297C0.948006 92.8397 1.5005 93.6665 2.197 94.363L83.757 175.923C84.8059 176.972 86.1422 177.686 87.597 177.975C89.0518 178.265 90.5597 178.116 91.93 177.548C93.3004 176.981 94.4717 176.02 95.2958 174.786C96.12 173.553 96.5599 172.103 96.56 170.62V133.15H149.743C132.088 148.381 117.925 167.239 108.219 188.439C98.5135 209.64 93.4929 232.683 93.5 256C93.5 345.603 166.397 418.5 256 418.5C286.397 418.534 316.187 409.99 341.945 393.85H422.94C424.929 393.85 426.837 393.06 428.243 391.653C429.65 390.247 430.44 388.339 430.44 386.35V359.486L493.894 422.94L430.44 486.394V459.53C430.44 457.541 429.65 455.633 428.243 454.227C426.837 452.82 424.929 452.03 422.94 452.03H288.11C286.121 452.03 284.213 452.82 282.807 454.227C281.4 455.633 280.61 457.541 280.61 459.53C280.61 461.519 281.4 463.427 282.807 464.833C284.213 466.24 286.121 467.03 288.11 467.03H415.44V504.5C415.44 505.983 415.88 507.433 416.704 508.667C417.528 509.9 418.699 510.862 420.069 511.429C421.44 511.997 422.948 512.146 424.403 511.856C425.858 511.567 427.194 510.853 428.243 509.804L509.803 428.244C510.5 427.548 511.052 426.721 511.429 425.811C511.806 424.901 512 423.925 512 422.94C512 421.955 511.806 420.98 511.429 420.07C511.052 419.16 510.5 418.333 509.803 417.637ZM256 403.5C174.668 403.5 108.5 337.332 108.5 256C108.5 174.668 174.668 108.5 256 108.5C337.332 108.5 403.5 174.668 403.5 256C403.5 337.332 337.332 403.5 256 403.5ZM341.282 206.57C341.246 206.231 341.188 205.896 341.106 205.565C341.09 205.502 341.074 205.439 341.057 205.377C340.882 204.719 340.617 204.088 340.27 203.502C340.235 203.443 340.199 203.385 340.163 203.328C339.985 203.042 339.788 202.768 339.573 202.508C339.55 202.48 339.523 202.455 339.5 202.428C339.29 202.185 339.065 201.956 338.826 201.742C338.796 201.716 338.774 201.685 338.744 201.659L267.491 139.622C264.299 136.862 260.22 135.343 256 135.343C251.78 135.343 247.701 136.862 244.509 139.622L173.256 201.659C173.226 201.685 173.203 201.716 173.174 201.742C172.935 201.956 172.71 202.185 172.5 202.427C172.476 202.455 172.45 202.48 172.427 202.507C172.212 202.767 172.015 203.041 171.837 203.327C171.801 203.385 171.765 203.443 171.73 203.502C171.383 204.088 171.118 204.719 170.943 205.377C170.926 205.439 170.91 205.502 170.894 205.565C170.812 205.896 170.754 206.231 170.718 206.57C170.717 206.584 170.718 206.598 170.716 206.612C170.693 206.846 170.682 207.08 170.681 207.315V227.315C170.686 231.955 172.532 236.403 175.812 239.683C179.093 242.964 183.541 244.81 188.181 244.815H188.5V303.973C186.244 304.945 184.218 306.382 182.555 308.19C180.892 309.998 179.629 312.137 178.848 314.466L171.07 337.647C170.692 338.775 170.587 339.976 170.764 341.153C170.942 342.329 171.397 343.446 172.092 344.412C172.786 345.378 173.7 346.165 174.759 346.707C175.818 347.25 176.99 347.533 178.18 347.533H333.82C335.01 347.533 336.182 347.25 337.241 346.707C338.3 346.165 339.214 345.378 339.908 344.412C340.603 343.446 341.058 342.329 341.236 341.153C341.413 339.976 341.308 338.775 340.93 337.647L333.152 314.465C332.371 312.136 331.108 309.998 329.445 308.19C327.781 306.382 325.756 304.945 323.5 303.973V244.815H323.82C328.46 244.81 332.908 242.964 336.189 239.683C339.469 236.403 341.315 231.955 341.32 227.315V207.315C341.319 207.08 341.307 206.846 341.284 206.612C341.283 206.598 341.284 206.584 341.282 206.57ZM254.358 150.935C254.814 150.541 255.397 150.324 256 150.324C256.603 150.324 257.186 150.541 257.642 150.935L313.784 199.815H198.216L254.358 150.935ZM188.608 332.533L193.068 319.238C193.234 318.741 193.553 318.309 193.978 318.003C194.404 317.697 194.915 317.532 195.439 317.533H316.561C317.085 317.533 317.595 317.697 318.021 318.003C318.446 318.309 318.765 318.74 318.931 319.237L323.392 332.533H188.608ZM203.5 302.533V244.815H218.5V302.533H203.5ZM233.5 302.533V244.815H248.5V302.533H233.5ZM263.5 302.533V244.815H278.5V302.533H263.5ZM293.5 302.533V244.815H308.5V302.533H293.5ZM326.32 227.315C326.319 227.978 326.056 228.613 325.587 229.082C325.118 229.551 324.483 229.814 323.82 229.815H188.18C187.517 229.814 186.882 229.551 186.413 229.082C185.944 228.613 185.681 227.978 185.68 227.315V214.815H326.32V227.315Z" fill="black"/>
</g>
<defs>
<clipPath id="clip0_244_556">
<rect width="512" height="512" fill="white"/>
</clipPath>
</defs>
</svg>
