<svg width="16" height="16" viewBox="0 0 16 16" fill="none" xmlns="http://www.w3.org/2000/svg">
<path d="M5.27223 8.99305C5.13975 8.99355 5.01286 9.04652 4.91936 9.14038C4.82585 9.23424 4.77335 9.36133 4.77335 9.49381C4.77385 9.62597 4.82657 9.75257 4.92002 9.84602C5.01347 9.93947 5.14007 9.99219 5.27223 9.99269H10.7712C10.837 9.99294 10.9022 9.98023 10.963 9.9553C11.0239 9.93036 11.0792 9.89368 11.1259 9.84736C11.1726 9.80103 11.2096 9.74597 11.235 9.68531C11.2604 9.62464 11.2736 9.55957 11.2739 9.49381C11.2739 9.42789 11.2609 9.36262 11.2356 9.30174C11.2103 9.24086 11.1732 9.18557 11.1265 9.13905C11.0798 9.09252 11.0244 9.05567 10.9634 9.03062C10.9025 9.00557 10.8371 8.9928 10.7712 8.99305H5.27223Z" fill="black"/>
<path d="M4.74879 0.995878C3.64899 0.995878 2.74761 1.89537 2.74761 2.99517V14.4958C2.74844 14.5897 2.77563 14.6814 2.82606 14.7605C2.87649 14.8396 2.94815 14.903 3.03286 14.9434C3.11756 14.9838 3.21191 14.9995 3.30514 14.9889C3.39838 14.9783 3.48675 14.9416 3.56017 14.8832L5.72198 13.1522L7.57387 14.8681C7.6678 14.9549 7.7914 15.0025 7.9193 15.0011C8.04721 14.9997 8.16972 14.9494 8.26172 14.8605L10.0418 13.1447L12.4512 14.9059C12.5257 14.9607 12.614 14.9938 12.7062 15.0015C12.7984 15.0092 12.8909 14.9912 12.9735 14.9495C13.0561 14.9078 13.1255 14.8441 13.1741 14.7653C13.2226 14.6866 13.2484 14.5959 13.2486 14.5034V2.99517C13.2486 1.89537 12.3472 0.993988 11.2474 0.993988L4.74879 0.995878ZM4.74879 1.99552H11.2493C11.8106 1.99552 12.249 2.43204 12.249 2.99517V13.517L10.2912 12.0884C10.1959 12.0191 10.0793 11.9857 9.96174 11.994C9.84423 12.0023 9.73341 12.0518 9.64875 12.1337L7.90835 13.8118L6.08858 12.1261C6.00042 12.0446 5.8859 11.9974 5.76588 11.9933C5.64586 11.9891 5.52834 12.0282 5.43475 12.1035L3.74914 13.4546V2.99517C3.74914 2.43204 4.18566 1.99363 4.74879 1.99363V1.99552Z" fill="black"/>
<path d="M5.27224 3.99481C5.14008 3.99531 5.01348 4.04803 4.92003 4.14148C4.82658 4.23493 4.77385 4.36153 4.77336 4.49369C4.77336 4.62617 4.82586 4.75326 4.91936 4.84712C5.01286 4.94098 5.13975 4.99396 5.27224 4.99446H7.76663C7.89911 4.99396 8.026 4.94098 8.1195 4.84712C8.213 4.75326 8.2655 4.62617 8.2655 4.49369C8.26501 4.36153 8.21229 4.23493 8.11884 4.14148C8.02539 4.04803 7.89878 3.99531 7.76663 3.99481H5.27224ZM5.27224 6.49298C5.20647 6.49323 5.1414 6.50643 5.08074 6.53182C5.02008 6.55722 4.96502 6.59431 4.91869 6.64099C4.87237 6.68766 4.83569 6.74301 4.81075 6.80386C4.78582 6.86471 4.77311 6.92988 4.77336 6.99564C4.77385 7.1278 4.82658 7.2544 4.92003 7.34785C5.01348 7.4413 5.14008 7.49402 5.27224 7.49452H10.7712C10.837 7.49477 10.9022 7.48206 10.963 7.45712C11.0239 7.43219 11.0792 7.39551 11.1259 7.34918C11.1726 7.30286 11.2097 7.24779 11.235 7.18713C11.2604 7.12647 11.2736 7.0614 11.2739 6.99564C11.2741 6.92956 11.2613 6.86408 11.2361 6.80298C11.211 6.74189 11.1739 6.68638 11.1272 6.63965C11.0805 6.59292 11.025 6.55591 10.9639 6.53073C10.9028 6.50556 10.8373 6.49273 10.7712 6.49298H5.27224Z" fill="black"/>
</svg>
