<svg width="64" height="64" viewBox="0 0 64 64" fill="none" xmlns="http://www.w3.org/2000/svg">
<path d="M54 13H10C8.6744 13.0016 7.40353 13.5288 6.46619 14.4662C5.52885 15.4035 5.00156 16.6744 5 18V46C5.00156 47.3256 5.52885 48.5965 6.46619 49.5338C7.40353 50.4712 8.6744 50.9984 10 51H54C55.3256 50.9984 56.5965 50.4712 57.5338 49.5338C58.4712 48.5965 58.9984 47.3256 59 46V18C58.9984 16.6744 58.4712 15.4035 57.5338 14.4662C56.5965 13.5288 55.3256 13.0016 54 13ZM10 15H54C54.7954 15.0009 55.5579 15.3172 56.1204 15.8796C56.6828 16.4421 56.9991 17.2046 57 18V19H7V18C7.00087 17.2046 7.31722 16.4421 7.87964 15.8796C8.44206 15.3172 9.20462 15.0009 10 15ZM57 27H7V21H57V27ZM54 49H10C9.20462 48.9991 8.44206 48.6828 7.87964 48.1204C7.31722 47.5579 7.00087 46.7954 7 46V29H57V46C56.9991 46.7954 56.6828 47.5579 56.1204 48.1204C55.5579 48.6828 54.7954 48.9991 54 49Z" fill="black"/>
</svg>
