<svg width="64" height="64" viewBox="0 0 64 64" fill="none" xmlns="http://www.w3.org/2000/svg">
<path d="M53.42 32.299C53.4193 35.8407 52.5403 39.3269 50.8619 42.4456C49.1835 45.5643 46.758 48.2182 43.8025 50.1696C40.8469 52.1211 37.4536 53.3093 33.9263 53.6278C30.399 53.9463 26.8478 53.3852 23.5905 51.9947C20.3332 50.6043 17.4715 48.4278 15.2615 45.6602C13.0516 42.8926 11.5624 39.6202 10.9273 36.136C10.2921 32.6517 10.5308 29.0644 11.622 25.695C12.7132 22.3256 14.6229 19.2794 17.18 16.829C17.5628 16.4617 18.0759 16.2615 18.6064 16.2724C19.1368 16.2834 19.6412 16.5047 20.0085 16.8875C20.3758 17.2703 20.576 17.7834 20.565 18.3139C20.5541 18.8443 20.3328 19.3487 19.95 19.716C17.4391 22.1215 15.7056 25.2233 14.9725 28.6223C14.2395 32.0213 14.5403 35.5619 15.8365 38.7884C17.1326 42.015 19.3647 44.7798 22.2455 46.7271C25.1262 48.6743 28.5238 49.7149 32.001 49.7149C35.4781 49.7149 38.8757 48.6743 41.7565 46.7271C44.6372 44.7798 46.8693 42.015 48.1655 38.7884C49.4616 35.5619 49.7625 32.0213 49.0294 28.6223C48.2964 25.2233 46.5628 22.1215 44.052 19.716C43.6691 19.3487 43.4479 18.8443 43.4369 18.3139C43.426 17.7834 43.6262 17.2703 43.9935 16.8875C44.3608 16.5047 44.8652 16.2834 45.3956 16.2724C45.9261 16.2615 46.4391 16.4617 46.822 16.829C48.9165 18.8232 50.582 21.2238 51.7165 23.884C52.851 26.5442 53.4307 29.407 53.42 32.299ZM32 35.045C32.5304 35.045 33.0391 34.8343 33.4142 34.4592C33.7893 34.0841 34 33.5754 34 33.045V12.279C34 11.7486 33.7893 11.2399 33.4142 10.8648C33.0391 10.4897 32.5304 10.279 32 10.279C31.4696 10.279 30.9608 10.4897 30.5858 10.8648C30.2107 11.2399 30 11.7486 30 12.279V33.045C30 33.5754 30.2107 34.0841 30.5858 34.4592C30.9608 34.8343 31.4696 35.045 32 35.045Z" fill="#222222"/>
</svg>
