<svg width="360" height="360" viewBox="0 0 360 360" fill="none" xmlns="http://www.w3.org/2000/svg">
<g clip-path="url(#clip0_202_633)">
<path opacity="0.5" d="M29.286 111.78C19.602 145.98 58.842 218.592 132.228 248.292C205.632 277.992 278.532 265.05 295.074 219.402C301.806 200.718 281.916 179.496 286.38 158.85C289.638 139.302 347.958 102.654 327.798 59.58C307.656 16.488 203.4 4.26598 164.988 30.6C126.54 56.97 113.382 63.774 103.968 67.302C90.342 72.99 38.934 77.616 29.286 111.78Z" fill="#D3FFFF"/>
<path d="M179.928 343.206C260.133 343.206 325.152 338.645 325.152 333.018C325.152 327.391 260.133 322.83 179.928 322.83C99.723 322.83 34.704 327.391 34.704 333.018C34.704 338.645 99.723 343.206 179.928 343.206Z" fill="#D3FFFF"/>
<path fill-rule="evenodd" clip-rule="evenodd" d="M281.754 21.168L330.714 31.482L320.04 38.646L281.754 21.168Z" fill="#4ECBD1"/>
<path fill-rule="evenodd" clip-rule="evenodd" d="M281.664 21.492L320.04 38.646L315.774 50.688L281.664 21.492Z" fill="#4ECBD1"/>
<path fill-rule="evenodd" clip-rule="evenodd" d="M306.648 42.912L315.774 50.688L314.352 42.192L306.648 42.912Z" fill="#0664A3"/>
<path fill-rule="evenodd" clip-rule="evenodd" d="M300.78 49.356L314.208 42.03L280.908 21.492L300.78 49.356Z" fill="#4ECBD1"/>
<path d="M318.834 53.802L318.114 54.342L316.998 52.92L317.718 52.38L318.834 53.802ZM229.878 170.28L229.788 169.398L229.968 169.362H230.274L230.58 169.326H230.886H231.246H231.606L231.57 170.208H231.264H230.904H230.634L230.328 170.244H230.058L229.878 170.28ZM234.288 170.226V169.344H234.684H235.53L236.016 169.308L236.052 170.19L235.512 170.226H234.666H234.288ZM238.734 170.1L238.698 169.218L238.968 169.182L239.814 169.146L240.48 169.11L240.516 169.992L239.886 170.028L239.004 170.064L238.734 170.1ZM243.18 169.704L243.09 168.822H243.27L244.116 168.732L244.872 168.606L244.962 169.488L244.206 169.578L243.36 169.704H243.18ZM247.626 169.128L247.5 168.246L247.59 168.21L248.436 168.084L249.228 167.958L249.408 168.84L248.562 168.966L247.716 169.092L247.626 169.128ZM252.018 168.282L251.802 167.4H251.838L252.72 167.22L253.512 167.04L253.728 167.886L252.882 168.102L252.018 168.282ZM256.338 167.256L256.122 166.374L256.968 166.158L257.814 165.942H257.85L258.066 166.788L257.22 167.004L256.338 167.256ZM260.64 165.96L260.37 165.114L261.162 164.898L262.008 164.592H262.044L262.314 165.438H262.278L261.432 165.744L260.64 165.96ZM264.87 164.538L264.564 163.692L265.32 163.386L266.166 163.08H266.202L266.508 163.872L266.472 163.908L265.68 164.214L264.87 164.538ZM269.01 162.846L268.65 162.054L269.406 161.748L270.198 161.388L270.288 161.352L270.648 162.144L270.558 162.18L269.766 162.54L269.01 162.846ZM273.096 160.992L272.7 160.2L273.366 159.894L274.122 159.498L274.248 159.462L274.644 160.218L274.554 160.308L273.762 160.704L273.096 160.992ZM277.056 158.94L276.606 158.148L277.182 157.842L277.938 157.392L278.118 157.302L278.568 158.058L278.388 158.148L277.632 158.598L277.056 158.94ZM280.872 156.636L280.386 155.916L280.926 155.556L281.646 155.07L281.916 154.944L282.402 155.664L282.132 155.844L281.412 156.33L280.872 156.636ZM284.562 154.134L284.076 153.414L284.472 153.108L285.138 152.622L285.498 152.406L286.038 153.072L285.678 153.342L285.012 153.882L284.562 154.134ZM288.126 151.434L287.586 150.768L287.856 150.552L288.522 150.012L288.918 149.616L289.494 150.336L289.098 150.696L288.432 151.236L288.126 151.434ZM291.546 148.536L290.916 147.87L291.042 147.744L291.672 147.168L292.212 146.682L292.842 147.312L292.302 147.852L291.672 148.428L291.546 148.536ZM294.696 145.386L294.066 144.756L294.606 144.18L295.182 143.55L295.272 143.46L295.938 144.036L295.848 144.126L295.272 144.756L294.696 145.386ZM297.684 142.056L297.018 141.48L297.378 141.03L297.864 140.364L298.08 140.094L298.8 140.634L298.584 140.94L298.044 141.57L297.684 142.056ZM300.384 138.438L299.664 137.952L299.844 137.682L300.294 137.016L300.654 136.476L301.41 136.962L301.05 137.502L300.564 138.222L300.384 138.438ZM302.832 134.712L302.076 134.262V134.226L302.472 133.506L302.868 132.786L302.904 132.696L303.696 133.146L303.66 133.182L303.264 133.938L302.814 134.658V134.712H302.832ZM304.92 130.752L304.128 130.356L304.398 129.816L304.758 129.06L304.884 128.754L305.676 129.114L305.55 129.42L305.19 130.212L304.92 130.752ZM306.702 126.63L305.91 126.324L306 126.018L306.306 125.262L306.486 124.686L307.332 124.956L307.152 125.532L306.846 126.324L306.702 126.63ZM308.124 122.4L307.278 122.13V122.04L307.404 121.644L307.494 121.248L307.62 120.798L307.71 120.438L308.556 120.654L308.466 121.014L308.376 121.464L308.25 121.86L308.16 122.256L308.124 122.4ZM309.15 118.044L308.304 117.864L308.34 117.504L308.43 117.054L308.466 116.658L308.556 116.208V116.118L309.438 116.244V116.334L309.348 116.784L309.258 117.234L309.222 117.63L309.15 118.044ZM309.816 113.598L308.934 113.508V113.238L308.97 112.788L309.006 112.338L309.042 111.888V111.708L309.924 111.798V111.978L309.888 112.428L309.852 112.878L309.816 113.328V113.598ZM310.032 109.098H309.15V108.828V108.342V107.946V107.496V107.316H310.032V107.442V107.892V108.342V108.828V109.098ZM309.906 104.616L309.024 104.706V104.436L308.988 103.986L308.952 103.59L308.916 103.14V102.924L309.798 102.834V103.05L309.834 103.5L309.87 103.95L309.906 104.4V104.616ZM309.366 100.17L308.484 100.35V100.224L308.394 99.774L308.304 99.378L308.268 98.982L308.178 98.622L309.024 98.406L309.114 98.802L309.204 99.198L309.294 99.648L309.384 100.044V100.17H309.366ZM308.394 95.814L307.548 96.03L307.458 95.76L307.332 95.364L307.242 95.004L307.116 94.608L307.026 94.338L307.872 94.068L307.962 94.338L308.088 94.734L308.178 95.094L308.304 95.49L308.394 95.814ZM306.918 91.548L306.072 91.908L305.982 91.638L305.802 91.278L305.676 90.918L305.496 90.612L305.37 90.306L306.162 89.91L306.288 90.216L306.468 90.576L306.648 90.936L306.774 91.296L306.918 91.548ZM304.884 87.552L304.128 88.002L304.092 87.966L303.912 87.66L303.696 87.354L303.516 87.048L303.3 86.778L303.174 86.562L303.894 86.076L304.02 86.256L304.236 86.562L304.452 86.868L304.668 87.174L304.848 87.534L304.884 87.552ZM302.166 83.898L301.5 84.474L301.284 84.258L301.068 83.988L300.798 83.718L300.582 83.502L300.312 83.232L300.942 82.602L301.212 82.818L301.428 83.088L301.698 83.358L301.968 83.628L302.166 83.898ZM298.782 80.874L298.296 81.594L298.206 81.558L297.9 81.378L297.63 81.198L297.36 81.018L297.054 80.838L296.838 80.712L297.234 79.92L297.504 80.1L297.81 80.28L298.116 80.46L298.386 80.64L298.692 80.856L298.782 80.874ZM294.75 78.786L294.48 79.632L294.3 79.542L293.994 79.452L293.688 79.362L293.328 79.272L293.022 79.182L292.806 79.092L293.022 78.246L293.238 78.282L293.598 78.372L293.958 78.498L294.264 78.588L294.624 78.714L294.75 78.786ZM290.304 77.814L290.268 78.696H290.232H289.872L289.512 78.66H289.152H288.756H288.54L288.504 77.778H288.774H289.17H289.566L289.926 77.814H290.304ZM285.768 77.994L285.894 78.876H285.678L285.228 78.966L284.832 79.056L284.436 79.146L284.22 79.182L284.004 78.3L284.274 78.264L284.67 78.174L285.12 78.084L285.516 78.048L285.768 77.994ZM281.358 79.056L281.664 79.902L281.448 79.938L281.052 80.118L280.602 80.244L280.152 80.424L280.026 80.46L279.666 79.668L279.792 79.578L280.278 79.452L280.728 79.272L281.178 79.092L281.358 79.056ZM277.236 80.838L277.686 81.594L277.65 81.63L277.38 81.756L277.11 81.936L276.84 82.116L276.57 82.296L276.3 82.476L276.21 82.512L275.67 81.792L275.796 81.702L276.066 81.522L276.336 81.342L276.606 81.162L276.912 80.982L277.182 80.802H277.236V80.838ZM273.582 83.538L274.212 84.168V84.204L273.996 84.384L273.78 84.6L273.564 84.816L273.384 85.032L273.204 85.248L273.024 85.428L272.358 84.852L272.484 84.672L272.7 84.456L272.916 84.186L273.132 83.97L273.348 83.754L273.582 83.538ZM270.738 87.102L271.494 87.552L271.458 87.642L271.278 87.912L271.152 88.128L271.026 88.398L270.9 88.668L270.774 88.884L270.684 89.064L269.892 88.668L269.982 88.488L270.108 88.218L270.234 87.948L270.414 87.678L270.54 87.408L270.72 87.192L270.738 87.102ZM268.776 91.188L269.622 91.458L269.586 91.548L269.496 91.854L269.406 92.124L269.316 92.394L269.226 92.664L269.19 92.97L269.154 93.15L268.272 92.934L268.308 92.718L268.398 92.448L268.488 92.142L268.578 91.872L268.668 91.566L268.758 91.296L268.776 91.188ZM267.714 95.598L268.596 95.724V95.76L268.506 96.336L268.47 96.912L268.434 97.452L267.552 97.362L267.588 96.822L267.624 96.246L267.714 95.616V95.598ZM267.498 100.08L268.38 100.044V100.314V100.89L268.416 101.43L268.452 101.826L267.57 101.916L267.534 101.52V100.944L267.498 100.368V100.08ZM268.02 104.58L268.902 104.4L268.938 104.616L269.028 105.102L269.154 105.642L269.28 106.092L268.434 106.362L268.308 105.876L268.182 105.336L268.056 104.796L268.02 104.58ZM269.442 108.882L270.234 108.486L270.414 108.846L270.504 109.062L270.63 109.242L270.72 109.458L270.846 109.638L270.936 109.854L271.062 110.034L270.306 110.484L270.18 110.304L270.054 110.088L269.964 109.872L269.838 109.692L269.712 109.476L269.622 109.26L269.442 108.882ZM271.98 112.662L272.646 112.086L272.772 112.212L272.952 112.428L273.132 112.644L273.348 112.824L273.564 113.04L273.744 113.22L273.834 113.31L273.258 113.976L273.168 113.886L272.952 113.67L272.736 113.454L272.52 113.238L272.304 113.022L272.124 112.806L271.98 112.662ZM275.364 115.686L275.85 114.966L275.976 115.056L276.246 115.236L276.462 115.416L276.678 115.542L276.948 115.722L277.164 115.848L277.29 115.938L276.84 116.694L276.714 116.604L276.444 116.424L276.228 116.298L275.958 116.118L275.688 115.938L275.472 115.812L275.364 115.686ZM279.27 117.954L279.63 117.162L279.756 117.198L280.026 117.324L280.296 117.414L280.566 117.54L280.872 117.63L281.142 117.756L281.268 117.792L280.962 118.584L280.836 118.548L280.53 118.458L280.26 118.332L279.99 118.242L279.684 118.116L279.414 117.99L279.27 117.954ZM283.536 119.466L283.752 118.584L283.968 118.674L284.544 118.8L285.174 118.926L285.444 118.962L285.318 119.844L285.012 119.754L284.382 119.628L283.752 119.502L283.536 119.466ZM287.982 120.258L288.072 119.376L288.252 119.412L288.882 119.448L289.512 119.484L289.818 119.52L289.782 120.402L289.476 120.366L288.81 120.33L288.18 120.294L287.982 120.258ZM292.482 120.528V119.646H292.698L293.364 119.61H293.994H294.21L294.246 120.492H294.03H293.364L292.698 120.528H292.482ZM296.964 120.258L296.838 119.376L297.288 119.34L297.954 119.304L298.62 119.214L298.746 120.06L298.08 120.15L297.414 120.24L296.964 120.258ZM301.374 119.592L301.194 118.746H301.284L301.95 118.62L302.58 118.44L302.94 118.404L303.156 119.25L302.796 119.34L302.13 119.466L301.464 119.592H301.374ZM305.73 118.566L305.514 117.72L305.874 117.594L306.54 117.414L307.17 117.198H307.206L307.476 118.044H307.44L306.81 118.26L306.144 118.44L305.73 118.566ZM309.996 117.144L309.69 116.298L309.78 116.262L310.5 115.992L311.166 115.722L311.292 115.632L311.652 116.478L311.526 116.514L310.86 116.82L310.14 117.09L309.996 117.144ZM314.082 115.326L313.686 114.534L313.776 114.498L314.082 114.318L314.388 114.138L314.694 113.958L315 113.778L315.18 113.688L315.666 114.444L315.45 114.534L315.144 114.75L314.838 114.93L314.532 115.056L314.226 115.236L314.082 115.326ZM317.952 112.968L317.412 112.248L317.682 112.068L317.952 111.888L318.222 111.672L318.492 111.492L318.762 111.276L318.852 111.24L319.392 111.906L319.356 111.996L319.05 112.212L318.78 112.392L318.51 112.608L318.204 112.824L317.952 112.968ZM321.462 110.178L320.832 109.512L321.048 109.332L321.318 109.116L321.534 108.9L321.75 108.63L322.02 108.414L322.11 108.324L322.74 108.954L322.65 109.044L322.434 109.26L322.164 109.53L321.948 109.746L321.678 110.016L321.462 110.178ZM324.576 106.92L323.856 106.344L324.216 105.948L324.612 105.408L324.918 104.958L325.674 105.498L325.314 105.948L324.918 106.488L324.576 106.92ZM327.15 103.23L326.394 102.78L326.43 102.69L326.79 102.114L327.096 101.574L327.276 101.268L328.068 101.664L327.888 101.97L327.528 102.6L327.168 103.176L327.15 103.23ZM329.238 99.234L328.446 98.874L328.536 98.604L328.806 98.028L329.022 97.398L329.058 97.272L329.904 97.542L329.868 97.722L329.652 98.352L329.382 98.982L329.238 99.234ZM330.75 95.022L329.904 94.752L330.03 94.212L330.21 93.546L330.336 93.06L331.182 93.276L331.056 93.762L330.93 94.428L330.75 95.022ZM331.722 90.612L330.84 90.486L330.876 90.216L330.966 89.55L331.056 88.83V88.74L331.938 88.83V88.92L331.848 89.64L331.758 90.36L331.722 90.612ZM332.136 86.13H331.254L331.29 86.04V85.32V84.6V84.33H332.172V84.6V85.32V86.076L332.136 86.13ZM332.082 81.63L331.2 81.72V81.27L331.11 80.694L331.074 80.154V79.938L331.92 79.848L331.956 80.064L331.992 80.604L332.028 81.18L332.082 81.63ZM331.506 77.184L330.66 77.364L330.57 76.968L330.444 76.428L330.354 75.942L330.264 75.636L331.11 75.42L331.2 75.726L331.326 76.266L331.416 76.806L331.506 77.184ZM330.354 72.828L329.508 73.134L329.472 73.008L329.346 72.522L329.166 72.036L328.986 71.586L328.95 71.46L329.742 71.154L329.778 71.244L329.958 71.73L330.138 72.216L330.318 72.702L330.354 72.828ZM328.662 68.652L327.87 69.048L327.78 68.832L327.564 68.382L327.348 67.932L327.132 67.482H327.096L327.888 67.032V67.068L328.104 67.518L328.374 67.968L328.59 68.418L328.662 68.652ZM326.52 64.692L325.764 65.178L325.584 64.872L325.314 64.422L325.044 64.026L324.828 63.666L325.584 63.18L325.8 63.54L326.07 63.99L326.34 64.44L326.52 64.692ZM324.126 60.966L323.37 61.452L322.794 60.606L322.344 60.03L323.1 59.49L323.496 60.12L324.126 60.966ZM321.498 57.366L320.778 57.906L320.292 57.24L319.716 56.484L320.436 55.944L321.012 56.7L321.498 57.366Z" fill="#4ECBD1"/>
<path d="M121.77 58.446H238.068C250.452 58.446 260.586 68.58 260.586 80.964V308.07C260.586 320.454 250.47 330.588 238.068 330.588H121.77C109.386 330.588 99.252 320.472 99.252 308.07V80.964C99.27 68.58 109.404 58.446 121.77 58.446Z" fill="#4ECBD1"/>
<path d="M122.364 299.52H237.51C244.26 299.52 249.732 293.922 249.732 287.01V98.01C249.732 91.098 244.26 85.5 237.51 85.5H122.364C115.614 85.5 110.142 91.098 110.142 98.01V286.992C110.124 293.922 115.596 299.52 122.364 299.52ZM167.58 306.972H192.258C196.254 306.972 199.53 310.248 199.53 314.244C199.53 318.24 196.254 321.498 192.258 321.498H167.58C163.584 321.498 160.326 318.222 160.326 314.244C160.326 310.23 163.602 306.972 167.58 306.972Z" fill="white"/>
<path d="M167.85 309.042H191.988C194.85 309.042 197.172 311.382 197.172 314.226C197.172 317.088 194.832 319.41 191.988 319.41H167.85C164.988 319.41 162.666 317.088 162.666 314.226C162.666 311.382 165.006 309.042 167.85 309.042Z" fill="#226089"/>
<path d="M156.708 70.686H203.13C205.218 70.686 206.91 71.928 206.91 73.458C206.91 74.988 205.2 76.23 203.13 76.23H156.708C154.62 76.23 152.928 74.988 152.928 73.458C152.928 71.946 154.638 70.686 156.708 70.686Z" fill="#0664A3"/>
<path fill-rule="evenodd" clip-rule="evenodd" d="M211.122 280.872H148.716C145.53 280.872 142.938 278.28 142.938 275.094V265.068C142.938 261.882 145.53 259.29 148.716 259.29H211.122C214.308 259.29 216.9 261.882 216.9 265.068V275.094C216.918 278.28 214.326 280.872 211.122 280.872Z" fill="#62C6EC"/>
<path fill-rule="evenodd" clip-rule="evenodd" d="M128.7 211.176H231.138C234.126 211.176 236.538 209.142 236.538 206.64V199.062C236.538 196.56 234.126 194.526 231.138 194.526H128.7C125.712 194.526 123.3 196.56 123.3 199.062V206.64C123.318 209.142 125.73 211.176 128.7 211.176ZM128.7 245.358H231.138C234.126 245.358 236.538 243.324 236.538 240.822V233.244C236.538 230.742 234.126 228.708 231.138 228.708H128.7C125.712 228.708 123.3 230.742 123.3 233.244V240.822C123.318 243.324 125.73 245.358 128.7 245.358Z" fill="#4ECBD1"/>
<path d="M136.368 204.696C137.312 204.696 138.078 203.963 138.078 203.058C138.078 202.153 137.312 201.42 136.368 201.42C135.424 201.42 134.658 202.153 134.658 203.058C134.658 203.963 135.424 204.696 136.368 204.696Z" fill="white"/>
<path d="M141.228 204.696C142.172 204.696 142.938 203.963 142.938 203.058C142.938 202.153 142.172 201.42 141.228 201.42C140.284 201.42 139.518 202.153 139.518 203.058C139.518 203.963 140.284 204.696 141.228 204.696Z" fill="white"/>
<path d="M146.736 204.696C147.68 204.696 148.446 203.963 148.446 203.058C148.446 202.153 147.68 201.42 146.736 201.42C145.792 201.42 145.026 202.153 145.026 203.058C145.026 203.963 145.792 204.696 146.736 204.696Z" fill="white"/>
<path d="M151.596 204.696C152.54 204.696 153.306 203.963 153.306 203.058C153.306 202.153 152.54 201.42 151.596 201.42C150.652 201.42 149.886 202.153 149.886 203.058C149.886 203.963 150.652 204.696 151.596 204.696Z" fill="white"/>
<path d="M157.086 204.696C158.03 204.696 158.796 203.963 158.796 203.058C158.796 202.153 158.03 201.42 157.086 201.42C156.142 201.42 155.376 202.153 155.376 203.058C155.376 203.963 156.142 204.696 157.086 204.696Z" fill="white"/>
<path d="M161.946 204.696C162.89 204.696 163.656 203.963 163.656 203.058C163.656 202.153 162.89 201.42 161.946 201.42C161.002 201.42 160.236 202.153 160.236 203.058C160.236 203.963 161.002 204.696 161.946 204.696Z" fill="white"/>
<path d="M167.472 204.696C168.416 204.696 169.182 203.963 169.182 203.058C169.182 202.153 168.416 201.42 167.472 201.42C166.528 201.42 165.762 202.153 165.762 203.058C165.762 203.963 166.528 204.696 167.472 204.696Z" fill="white"/>
<path d="M172.332 204.696C173.276 204.696 174.042 203.963 174.042 203.058C174.042 202.153 173.276 201.42 172.332 201.42C171.388 201.42 170.622 202.153 170.622 203.058C170.622 203.963 171.388 204.696 172.332 204.696Z" fill="white"/>
<path d="M136.368 239.184C137.312 239.184 138.078 238.451 138.078 237.546C138.078 236.641 137.312 235.908 136.368 235.908C135.424 235.908 134.658 236.641 134.658 237.546C134.658 238.451 135.424 239.184 136.368 239.184Z" fill="white"/>
<path d="M141.228 239.184C142.172 239.184 142.938 238.451 142.938 237.546C142.938 236.641 142.172 235.908 141.228 235.908C140.284 235.908 139.518 236.641 139.518 237.546C139.518 238.451 140.284 239.184 141.228 239.184Z" fill="white"/>
<path d="M146.736 239.184C147.68 239.184 148.446 238.451 148.446 237.546C148.446 236.641 147.68 235.908 146.736 235.908C145.792 235.908 145.026 236.641 145.026 237.546C145.026 238.451 145.792 239.184 146.736 239.184Z" fill="white"/>
<path d="M151.596 239.184C152.54 239.184 153.306 238.451 153.306 237.546C153.306 236.641 152.54 235.908 151.596 235.908C150.652 235.908 149.886 236.641 149.886 237.546C149.886 238.451 150.652 239.184 151.596 239.184Z" fill="white"/>
<path d="M157.086 239.184C158.03 239.184 158.796 238.451 158.796 237.546C158.796 236.641 158.03 235.908 157.086 235.908C156.142 235.908 155.376 236.641 155.376 237.546C155.376 238.451 156.142 239.184 157.086 239.184Z" fill="white"/>
<path d="M161.946 239.184C162.89 239.184 163.656 238.451 163.656 237.546C163.656 236.641 162.89 235.908 161.946 235.908C161.002 235.908 160.236 236.641 160.236 237.546C160.236 238.451 161.002 239.184 161.946 239.184Z" fill="white"/>
<path d="M167.472 239.184C168.416 239.184 169.182 238.451 169.182 237.546C169.182 236.641 168.416 235.908 167.472 235.908C166.528 235.908 165.762 236.641 165.762 237.546C165.762 238.451 166.528 239.184 167.472 239.184Z" fill="white"/>
<path d="M172.332 239.184C173.276 239.184 174.042 238.451 174.042 237.546C174.042 236.641 173.276 235.908 172.332 235.908C171.388 235.908 170.622 236.641 170.622 237.546C170.622 238.451 171.388 239.184 172.332 239.184Z" fill="white"/>
<path d="M156.834 274.752C156.096 274.752 155.394 274.644 154.71 274.428C154.044 274.212 153.504 273.942 153.108 273.618L153.72 272.25C154.098 272.538 154.566 272.79 155.124 272.988C155.682 273.186 156.258 273.276 156.834 273.276C157.32 273.276 157.734 273.222 158.04 273.114C158.346 273.006 158.562 272.862 158.706 272.682C158.85 272.502 158.922 272.286 158.922 272.052C158.922 271.764 158.814 271.53 158.616 271.35C158.418 271.17 158.148 271.044 157.806 270.936C157.482 270.828 157.122 270.738 156.708 270.648C156.312 270.558 155.916 270.45 155.502 270.324C155.106 270.198 154.746 270.054 154.404 269.856C154.08 269.658 153.81 269.406 153.594 269.082C153.396 268.758 153.288 268.344 153.288 267.84C153.288 267.336 153.432 266.85 153.702 266.436C153.972 266.004 154.386 265.662 154.962 265.41C155.52 265.158 156.24 265.032 157.104 265.032C157.662 265.032 158.238 265.104 158.796 265.248C159.354 265.392 159.84 265.59 160.254 265.86L159.696 267.228C159.282 266.976 158.832 266.796 158.382 266.67C157.932 266.544 157.5 266.49 157.086 266.49C156.6 266.49 156.204 266.544 155.898 266.67C155.592 266.778 155.376 266.94 155.232 267.12C155.088 267.3 155.016 267.516 155.016 267.768C155.016 268.056 155.124 268.29 155.322 268.47C155.52 268.65 155.79 268.776 156.114 268.884C156.438 268.974 156.816 269.082 157.212 269.172C157.608 269.262 158.022 269.37 158.418 269.496C158.814 269.604 159.174 269.766 159.516 269.946C159.84 270.126 160.11 270.396 160.308 270.72C160.506 271.044 160.614 271.458 160.614 271.944C160.614 272.448 160.47 272.916 160.2 273.348C159.93 273.78 159.498 274.122 158.94 274.374C158.418 274.626 157.698 274.752 156.834 274.752ZM163.08 266.238C162.774 266.238 162.504 266.148 162.306 265.95C162.108 265.752 162 265.518 162 265.23C162 264.942 162.108 264.708 162.306 264.51C162.504 264.312 162.774 264.222 163.08 264.222C163.386 264.222 163.656 264.312 163.854 264.492C164.052 264.672 164.16 264.906 164.16 265.194C164.16 265.482 164.07 265.734 163.872 265.95C163.674 266.13 163.404 266.238 163.08 266.238ZM162.234 274.626V267.426H163.926V274.626H162.234ZM169.182 274.302C168.498 274.302 167.886 274.158 167.328 273.87C166.77 273.582 166.338 273.168 166.014 272.646C165.69 272.124 165.528 271.512 165.528 270.81C165.528 270.126 165.69 269.514 166.014 268.992C166.338 268.47 166.77 268.074 167.328 267.786C167.886 267.498 168.498 267.354 169.182 267.354C169.794 267.354 170.334 267.48 170.82 267.714C171.306 267.948 171.702 268.326 171.99 268.848C172.278 269.352 172.422 270.018 172.422 270.81C172.422 271.602 172.278 272.268 171.99 272.79C171.702 273.312 171.306 273.69 170.82 273.942C170.334 274.176 169.794 274.302 169.182 274.302ZM169.398 277.326C168.732 277.326 168.084 277.236 167.454 277.056C166.824 276.876 166.302 276.624 165.888 276.3L166.644 275.04C166.95 275.292 167.364 275.508 167.832 275.67C168.318 275.832 168.804 275.904 169.29 275.904C170.082 275.904 170.658 275.724 171.036 275.364C171.396 275.004 171.594 274.446 171.594 273.726V272.448L171.72 270.81L171.666 269.172V267.426H173.268V273.528C173.268 274.824 172.944 275.796 172.278 276.408C171.612 277.02 170.658 277.326 169.398 277.326ZM169.434 272.862C169.848 272.862 170.226 272.772 170.568 272.592C170.892 272.412 171.162 272.178 171.342 271.872C171.522 271.566 171.612 271.206 171.612 270.792C171.612 270.396 171.522 270.036 171.342 269.712C171.162 269.406 170.892 269.172 170.568 268.992C170.244 268.83 169.866 268.74 169.434 268.74C169.02 268.74 168.624 268.83 168.3 268.992C167.958 269.154 167.706 269.388 167.526 269.712C167.346 270.018 167.256 270.378 167.256 270.792C167.256 271.188 167.346 271.548 167.526 271.872C167.706 272.178 167.976 272.43 168.3 272.592C168.624 272.772 169.02 272.862 169.434 272.862ZM179.568 267.336C180.144 267.336 180.666 267.444 181.116 267.678C181.566 267.894 181.926 268.254 182.196 268.704C182.448 269.172 182.592 269.766 182.592 270.486V274.608H180.9V270.702C180.9 270.072 180.756 269.586 180.45 269.28C180.144 268.974 179.73 268.812 179.19 268.812C178.794 268.812 178.452 268.884 178.146 269.046C177.84 269.208 177.606 269.442 177.444 269.766C177.282 270.09 177.192 270.486 177.192 270.972V274.608H175.5V267.408H177.102V269.352L176.814 268.758C177.066 268.308 177.426 267.948 177.912 267.696C178.398 267.462 178.938 267.336 179.568 267.336ZM192.672 274.752C191.376 274.752 190.368 274.392 189.63 273.654C188.892 272.934 188.532 271.872 188.532 270.504V265.176H190.278V270.432C190.278 271.404 190.494 272.106 190.908 272.556C191.322 272.988 191.916 273.222 192.69 273.222C193.446 273.222 194.04 273.006 194.454 272.556C194.868 272.124 195.066 271.404 195.066 270.432V265.176H196.794V270.504C196.794 271.872 196.434 272.934 195.696 273.654C194.958 274.392 193.95 274.752 192.672 274.752ZM199.08 277.236V267.426H200.682V269.118L200.628 271.026L200.754 272.934V277.218H199.08V277.236ZM203.076 274.716C202.5 274.716 201.96 274.59 201.474 274.32C200.988 274.05 200.61 273.636 200.322 273.096C200.034 272.556 199.89 271.854 199.89 271.026C199.89 270.18 200.034 269.496 200.304 268.956C200.574 268.416 200.952 268.02 201.438 267.75C201.906 267.48 202.464 267.354 203.076 267.354C203.778 267.354 204.408 267.498 204.966 267.804C205.506 268.11 205.938 268.542 206.262 269.082C206.586 269.622 206.748 270.27 206.748 271.026C206.748 271.764 206.586 272.43 206.262 272.97C205.938 273.528 205.506 273.96 204.966 274.266C204.426 274.554 203.796 274.716 203.076 274.716ZM202.896 273.276C203.292 273.276 203.67 273.186 203.976 273.006C204.3 272.826 204.552 272.574 204.732 272.232C204.912 271.89 205.02 271.494 205.02 271.026C205.02 270.558 204.93 270.162 204.732 269.82C204.552 269.478 204.282 269.226 203.976 269.046C203.652 268.866 203.292 268.776 202.896 268.776C202.5 268.776 202.122 268.866 201.798 269.046C201.474 269.226 201.222 269.478 201.024 269.82C200.844 270.162 200.736 270.558 200.736 271.026C200.736 271.476 200.826 271.89 201.024 272.232C201.204 272.574 201.474 272.826 201.798 273.006C202.122 273.186 202.482 273.276 202.896 273.276Z" fill="white"/>
<path fill-rule="evenodd" clip-rule="evenodd" d="M179.946 185.184C203.832 185.184 223.308 165.69 223.308 141.786C223.308 117.882 203.832 98.388 179.946 98.388C156.024 98.388 136.548 117.882 136.548 141.786C136.548 165.69 156.024 185.184 179.946 185.184Z" fill="#62C6EC"/>
<path fill-rule="evenodd" clip-rule="evenodd" d="M187.506 148.662C199.062 151.524 208.08 160.776 210.636 172.44C202.77 180.324 191.916 185.184 179.946 185.184C167.94 185.184 157.086 180.324 149.22 172.44C151.776 160.776 160.776 151.524 172.35 148.662C167.724 146.016 164.592 141.048 164.592 135.306C164.592 126.846 171.45 119.952 179.946 119.952C188.406 119.952 195.3 126.846 195.3 135.306C195.282 141.03 192.168 145.998 187.506 148.662Z" fill="white"/>
<path fill-rule="evenodd" clip-rule="evenodd" d="M219.852 210.996L212.13 203.31C211.356 201.87 210.654 199.458 209.79 198.99C207.9 198.378 203.004 196.182 203.526 197.514C203.652 197.946 206.586 199.134 207.468 200.484C207.09 201.762 204.732 203.454 206.37 204.336L210.168 205.884C211.734 207.684 213.534 210.024 215.352 212.454L219.852 210.996ZM265.338 318.204L261.54 321.156C260.28 325.602 257.67 328.428 255.546 331.974L266.31 326.97L265.338 318.204Z" fill="#E3C4A8"/>
<path fill-rule="evenodd" clip-rule="evenodd" d="M260.784 312.012L266.814 311.508L266.076 321.21C265.68 322.308 261.666 323.082 261.54 321.174L260.784 312.012Z" fill="#E3C4A8"/>
<path fill-rule="evenodd" clip-rule="evenodd" d="M245.43 334.818C241.56 331.812 256.338 334.656 265.266 321.786C265.644 321.138 266.094 321.192 266.13 321.732C267.354 326.43 266.814 330.786 267.156 335.322L266.274 335.448C265.932 333.198 265.59 330.966 265.266 328.716C264.186 331.308 259.308 334.566 257.256 334.728C255.42 335.052 250.056 334.782 245.43 334.818Z" fill="#154463"/>
<path fill-rule="evenodd" clip-rule="evenodd" d="M247.302 319.644L243.504 322.596C242.244 327.042 239.634 329.868 237.51 333.432L248.274 328.428L247.302 319.644Z" fill="#E3C4A8"/>
<path fill-rule="evenodd" clip-rule="evenodd" d="M242.73 313.434L248.76 312.93L248.022 322.632C247.626 323.748 243.612 324.504 243.486 322.596L242.73 313.434Z" fill="#E3C4A8"/>
<path fill-rule="evenodd" clip-rule="evenodd" d="M227.394 336.24C223.524 333.234 238.302 336.078 247.23 323.208C247.608 322.56 248.058 322.614 248.094 323.154C249.318 327.852 248.778 332.208 249.12 336.744L248.238 336.87C247.896 334.62 247.554 332.388 247.23 330.138C246.15 332.73 241.272 335.988 239.22 336.15C237.366 336.474 232.002 336.204 227.394 336.24ZM258.264 236.7L240.48 254.214C238.752 263.214 236.61 272.268 237.006 277.866L242.082 315.936C244.998 315.738 247.914 315.54 250.848 315.342L250.272 278.874L254.16 265.68L260.91 315.378L270 315.072L266.778 255.33L258.264 236.7Z" fill="#154463"/>
<path fill-rule="evenodd" clip-rule="evenodd" d="M254.016 218.826C255.582 214.866 257.148 210.906 258.696 206.946C264.852 212.796 274.86 218.916 277.182 224.514C278.352 228.186 264.69 243.504 259.524 249.768C258.732 247.824 258.048 246.456 257.256 244.494C261.756 238.536 266.076 232.938 269.262 226.386C264.96 224.046 258.3 221.148 254.016 218.826Z" fill="#62C6EC"/>
<path fill-rule="evenodd" clip-rule="evenodd" d="M263.448 212.22C259.722 210.114 255.996 208.008 252.288 205.902C248.886 207.216 243.396 208.134 242.1 209.844C228.798 223.416 239.13 229.356 216.324 206.694C214.668 207.954 214.11 208.26 212.472 210.132C218.916 218.808 231.264 242.694 242.82 225.45C242.244 237.294 239.4 246.708 238.806 258.534C245.88 265.266 262.926 262.008 267.822 259.11C267.192 242.928 264.078 228.402 263.448 212.22Z" fill="#62C6EC"/>
<path fill-rule="evenodd" clip-rule="evenodd" d="M257.13 191.178L244.08 190.512C243.828 198.378 244.854 206.586 250.164 206.514C256.014 206.478 257.364 198.18 257.13 191.178Z" fill="#E3C4A8"/>
<path fill-rule="evenodd" clip-rule="evenodd" d="M246.87 194.832C244.512 194.364 243.288 193.968 242.406 191.952C240.75 188.118 244.17 185.706 247.68 185.67C248.76 185.67 250.182 185.328 252.072 185.382C257.328 185.508 259.938 191.052 259.092 195.264C258.174 199.836 257.202 199.548 259.218 204.084C261.198 208.566 267.642 211.716 260.496 217.638C254.376 222.696 244.224 218.268 247.554 207.792C248.742 204.048 253.422 198.558 249.372 195.786C249.012 195.516 246.942 194.85 246.87 194.832Z" fill="#2A2A2A"/>
<path fill-rule="evenodd" clip-rule="evenodd" d="M250.236 200.052L249.336 197.406C249.444 196.452 250.218 195.39 251.352 196.254C252.558 197.46 250.83 199.458 250.236 200.052Z" fill="#E3C4A8"/>
<path fill-rule="evenodd" clip-rule="evenodd" d="M70.218 264.852C72.306 263.448 74.7 265.644 75.834 267.426C76.95 269.208 77.706 271.458 77.076 273.186C75.258 273.474 73.116 272.268 71.676 270.864C70.2 269.442 68.544 266.67 70.218 264.852Z" fill="#62C6EC"/>
<path d="M88.704 324.144L88.074 323.982C90.684 314.19 86.958 307.008 83.034 299.394C80.64 294.768 78.156 289.98 77.022 284.382C75.744 278.064 76.41 271.584 79.074 264.546L79.686 264.78C73.836 280.206 78.804 289.818 83.61 299.088C87.606 306.828 91.368 314.118 88.704 324.144Z" fill="#62C6EC"/>
<path fill-rule="evenodd" clip-rule="evenodd" d="M84.96 274.68C83.088 272.988 80.388 274.842 79.02 276.444C77.67 278.046 76.59 280.152 76.986 281.97C78.75 282.528 81.036 281.628 82.674 280.44C84.312 279.252 86.346 276.732 84.96 274.68ZM69.354 287.19C70.506 284.958 73.674 285.75 75.528 286.758C77.364 287.784 79.11 289.386 79.362 291.222C77.904 292.356 75.456 292.32 73.494 291.78C71.55 291.222 68.76 289.584 69.354 287.19ZM89.388 290.772C87.138 289.638 85.032 292.14 84.15 294.048C83.25 295.956 82.8 298.296 83.664 299.916C85.518 299.97 87.48 298.512 88.74 296.928C90 295.326 91.278 292.374 89.388 290.772ZM77.922 305.712C79.074 303.48 82.242 304.272 84.096 305.28C85.932 306.288 87.678 307.908 87.93 309.744C86.472 310.878 84.024 310.842 82.062 310.302C80.118 309.762 77.346 308.106 77.922 305.712ZM85.374 258.264C83.25 256.914 80.892 259.164 79.794 260.964C78.714 262.746 78.012 265.032 78.678 266.742C80.514 267.012 82.62 265.752 84.042 264.312C85.482 262.854 87.084 260.046 85.374 258.264Z" fill="#62C6EC"/>
<path fill-rule="evenodd" clip-rule="evenodd" d="M100.638 303.408C98.856 300.708 94.896 302.148 92.682 303.696C90.45 305.244 88.434 307.566 88.362 309.942C90.396 311.202 93.528 310.824 95.958 309.852C98.388 308.88 101.736 306.414 100.638 303.408ZM105.012 249.966C102.15 248.436 99.36 251.604 98.154 254.034C96.93 256.464 96.282 259.452 97.344 261.576C99.72 261.702 102.312 259.884 103.986 257.868C105.642 255.852 107.406 252.072 105.012 249.966Z" fill="#F8B980"/>
<path d="M89.28 328.536C84.474 316.008 88.344 306.126 92.43 295.686C97.326 283.14 102.402 270.162 92.826 251.19L93.672 250.758C98.046 259.416 99.792 267.66 99 275.958C98.298 283.284 95.778 289.764 93.33 296.028C89.316 306.306 85.518 316.008 90.198 328.194L89.28 328.536Z" fill="#F8B980"/>
<path fill-rule="evenodd" clip-rule="evenodd" d="M87.426 264.564C89.586 262.152 93.312 264.15 95.274 266.022C97.236 267.876 98.874 270.468 98.622 272.826C96.444 273.78 93.384 272.934 91.116 271.638C88.884 270.324 85.914 267.39 87.426 264.564ZM109.134 278.478C107.352 275.76 103.392 277.2 101.16 278.766C98.946 280.314 96.93 282.618 96.858 284.994C98.874 286.254 102.024 285.876 104.454 284.922C106.848 283.968 110.214 281.466 109.134 278.478ZM83.916 285.786C86.652 284.04 89.676 286.956 91.08 289.278C92.484 291.6 93.384 294.534 92.502 296.748C90.126 297.09 87.426 295.452 85.59 293.598C83.772 291.726 81.702 288.108 83.916 285.786ZM84.672 243.558C87.192 241.506 90.54 244.08 92.16 246.24C93.798 248.4 95.022 251.208 94.392 253.512C92.07 254.088 89.19 252.774 87.192 251.118C85.158 249.462 82.71 246.096 84.672 243.558Z" fill="#F8B980"/>
<path fill-rule="evenodd" clip-rule="evenodd" d="M47.754 266.832C49.59 264.438 53.136 266.04 55.08 267.606C57.024 269.19 58.734 271.458 58.644 273.654C56.682 274.68 53.82 274.122 51.66 273.078C49.482 272.034 46.548 269.532 47.754 266.832Z" fill="#0E8BBA"/>
<path d="M91.08 326.898L90.144 326.952C89.406 314.928 82.494 308.232 75.204 301.122C70.74 296.784 66.132 292.302 62.748 286.398C58.914 279.72 57.222 272.124 57.582 263.16L58.536 263.196C57.744 282.798 66.96 291.762 75.87 300.438C83.286 307.674 90.306 314.514 91.08 326.898Z" fill="#0E8BBA"/>
<path fill-rule="evenodd" clip-rule="evenodd" d="M68.112 272.394C65.376 271.188 63 274.302 62.064 276.606C61.128 278.928 60.732 281.736 61.848 283.608C64.044 283.572 66.294 281.7 67.698 279.738C69.102 277.794 70.47 274.176 68.112 272.394ZM55.188 292.392C55.656 289.44 59.544 289.134 61.992 289.584C64.458 290.052 67.032 291.222 68.022 293.184C66.798 295.02 64.008 295.902 61.614 296.01C59.202 296.136 55.422 295.344 55.188 292.392ZM79.2 288.9C76.23 288.468 74.79 292.086 74.502 294.57C74.214 297.054 74.592 299.862 76.176 301.392C78.3 300.762 79.956 298.35 80.784 296.082C81.594 293.814 81.936 289.998 79.2 288.9ZM71.874 310.104C72.342 307.152 76.23 306.846 78.678 307.296C81.144 307.764 83.718 308.934 84.708 310.896C83.484 312.732 80.712 313.614 78.3 313.722C75.87 313.848 72.108 313.056 71.874 310.104ZM62.406 253.674C59.508 252.918 57.672 256.374 57.132 258.804C56.574 261.234 56.628 264.078 58.05 265.752C60.21 265.374 62.136 263.16 63.18 261C64.242 258.822 64.998 255.06 62.406 253.674Z" fill="#0E8BBA"/>
<path fill-rule="evenodd" clip-rule="evenodd" d="M126.36 269.478C124.578 267.318 121.302 268.938 119.556 270.486C117.792 272.034 116.298 274.212 116.442 276.264C118.296 277.164 120.96 276.534 122.94 275.472C124.938 274.392 127.584 271.944 126.36 269.478Z" fill="#FCD3AE"/>
<path d="M88.992 327.15L88.038 327.132C88.308 315.522 94.626 308.88 101.304 301.86C109.314 293.454 117.594 284.742 116.136 266.472L117.072 266.4C117.738 274.77 116.442 281.934 113.094 288.324C110.142 293.958 105.984 298.314 101.988 302.526C95.436 309.402 89.244 315.9 88.992 327.15Z" fill="#FCD3AE"/>
<path fill-rule="evenodd" clip-rule="evenodd" d="M107.55 275.418C110.07 274.194 112.392 277.02 113.346 279.144C114.3 281.268 114.786 283.878 113.796 285.678C111.744 285.714 109.566 284.058 108.198 282.258C106.812 280.476 105.426 277.164 107.55 275.418ZM120.33 293.616C119.79 290.862 116.154 290.718 113.868 291.24C111.6 291.762 109.242 292.95 108.378 294.822C109.584 296.496 112.23 297.198 114.48 297.234C116.73 297.252 120.222 296.37 120.33 293.616ZM97.794 291.222C100.548 290.718 102.024 294.048 102.384 296.352C102.744 298.674 102.51 301.302 101.07 302.778C99.072 302.274 97.434 300.096 96.588 297.99C95.724 295.902 95.274 292.338 97.794 291.222ZM105.408 310.77C104.868 308.016 101.214 307.872 98.946 308.394C96.678 308.916 94.302 310.104 93.456 311.976C94.662 313.65 97.29 314.352 99.558 314.388C101.808 314.406 105.3 313.506 105.408 310.77ZM112.212 257.724C114.894 256.914 116.73 260.064 117.324 262.332C117.918 264.582 117.972 267.228 116.712 268.848C114.678 268.56 112.806 266.58 111.726 264.6C110.664 262.602 109.818 259.11 112.212 257.724Z" fill="#FCD3AE"/>
<path fill-rule="evenodd" clip-rule="evenodd" d="M90.288 326.25L94.518 332.064L98.748 337.878H90.288H81.846L86.076 332.064L90.288 326.25Z" fill="#0664A3"/>
<path fill-rule="evenodd" clip-rule="evenodd" d="M112.554 316.314C111.636 327.114 102.024 335.61 90.288 335.61C78.57 335.61 68.958 327.114 68.022 316.314H112.554Z" fill="#4ECBD1"/>
<path fill-rule="evenodd" clip-rule="evenodd" d="M85.644 333.756C77.508 332.046 71.316 325.53 70.614 317.538H72.756C73.836 324.774 78.804 330.84 85.644 333.756Z" fill="white"/>
<path fill-rule="evenodd" clip-rule="evenodd" d="M69.372 104.85C59.382 107.226 51.444 114.732 39.366 119.646C41.76 143.1 50.238 166.212 70.182 177.174H71.064C91.008 166.212 99.468 143.1 101.88 119.646C89.784 114.75 81.864 107.244 71.874 104.85H69.372Z" fill="white"/>
<path fill-rule="evenodd" clip-rule="evenodd" d="M69.588 110.988C61.29 112.968 54.702 119.196 44.658 123.264C46.656 142.758 53.694 161.946 70.254 171.036H70.992C87.552 161.946 94.59 142.74 96.588 123.264C86.544 119.196 79.956 112.968 71.658 110.988H69.588Z" fill="#8DC6DB"/>
<path fill-rule="evenodd" clip-rule="evenodd" d="M70.884 110.988V171.054H70.254C53.694 161.964 46.656 142.758 44.658 123.282C54.702 119.214 61.29 112.986 69.588 111.006H70.884V110.988Z" fill="#E1BB98"/>
<path fill-rule="evenodd" clip-rule="evenodd" d="M70.902 118.152C76.23 118.152 80.604 121.68 80.604 125.982V134.766C80.604 139.068 76.23 142.596 70.902 142.596C65.556 142.596 61.182 139.068 61.182 134.766V125.982C61.182 121.68 65.556 118.152 70.902 118.152ZM70.902 121.68C73.944 121.68 76.428 123.678 76.428 126.144V136.44C76.428 138.888 73.944 140.904 70.902 140.904C67.86 140.904 65.376 138.906 65.376 136.44V126.144C65.376 123.678 67.842 121.68 70.902 121.68Z" fill="white"/>
<path fill-rule="evenodd" clip-rule="evenodd" d="M61.632 132.48H80.136C81.918 132.48 83.376 133.722 83.376 135.252V151.92C83.376 153.432 81.918 154.692 80.136 154.692H61.632C59.832 154.692 58.392 153.45 58.392 151.92V135.252C58.392 133.722 59.85 132.48 61.632 132.48Z" fill="#4592AF"/>
<path fill-rule="evenodd" clip-rule="evenodd" d="M70.902 136.71C72.954 136.71 74.628 138.384 74.628 140.436C74.628 142.002 73.674 143.334 72.324 143.892L73.53 148.05H70.92H68.292L69.498 143.892C68.13 143.334 67.194 142.002 67.194 140.436C67.158 138.384 68.832 136.71 70.902 136.71Z" fill="#226089"/>
</g>
</svg>
