<svg width="16" height="16" viewBox="0 0 16 16" fill="none" xmlns="http://www.w3.org/2000/svg">
<path d="M5.41056 5.2768C5.41056 5.19193 5.44428 5.11053 5.50429 5.05052C5.5643 4.99051 5.64569 4.9568 5.73056 4.9568H10.2694C10.3543 4.9568 10.4357 4.99051 10.4957 5.05052C10.5557 5.11053 10.5894 5.19193 10.5894 5.2768C10.5894 5.36167 10.5557 5.44306 10.4957 5.50307C10.4357 5.56308 10.3543 5.5968 10.2694 5.5968H5.73056C5.64569 5.5968 5.5643 5.56308 5.50429 5.50307C5.44428 5.44306 5.41056 5.36167 5.41056 5.2768ZM5.73056 7.41248H10.2694C10.3543 7.41248 10.4357 7.37876 10.4957 7.31875C10.5557 7.25874 10.5894 7.17735 10.5894 7.09248C10.5894 7.00761 10.5557 6.92621 10.4957 6.8662C10.4357 6.80619 10.3543 6.77248 10.2694 6.77248H5.73056C5.64569 6.77248 5.5643 6.80619 5.50429 6.8662C5.44428 6.92621 5.41056 7.00761 5.41056 7.09248C5.41056 7.17735 5.44428 7.25874 5.50429 7.31875C5.5643 7.37876 5.64569 7.41248 5.73056 7.41248ZM5.73056 9.22752H10.2694C10.3543 9.22752 10.4357 9.1938 10.4957 9.13379C10.5557 9.07378 10.5894 8.99239 10.5894 8.90752C10.5894 8.82265 10.5557 8.74125 10.4957 8.68124C10.4357 8.62123 10.3543 8.58752 10.2694 8.58752H5.73056C5.64569 8.58752 5.5643 8.62123 5.50429 8.68124C5.44428 8.74125 5.41056 8.82265 5.41056 8.90752C5.41056 8.99239 5.44428 9.07378 5.50429 9.13379C5.5643 9.1938 5.64569 9.22752 5.73056 9.22752ZM9.2288 10.4064H5.728C5.64313 10.4064 5.56174 10.4401 5.50173 10.5001C5.44172 10.5601 5.408 10.6415 5.408 10.7264C5.408 10.8113 5.44172 10.8927 5.50173 10.9527C5.56174 11.0127 5.64313 11.0464 5.728 11.0464H9.2288C9.31367 11.0464 9.39507 11.0127 9.45508 10.9527C9.51509 10.8927 9.5488 10.8113 9.5488 10.7264C9.5488 10.6415 9.51509 10.5601 9.45508 10.5001C9.39507 10.4401 9.31367 10.4064 9.2288 10.4064ZM14.567 12.4448C14.5674 13.0062 14.3724 13.5501 14.0155 13.9834C13.6586 14.4167 13.162 14.7123 12.611 14.8194C12.0599 14.9265 11.4888 14.8385 10.9956 14.5704C10.5023 14.3024 10.1178 13.871 9.90784 13.3504H4.928C4.50366 13.3504 4.09669 13.1818 3.79663 12.8818C3.49657 12.5817 3.328 12.1747 3.328 11.7504V4.2496C3.328 3.82525 3.49657 3.41828 3.79663 3.11823C4.09669 2.81817 4.50366 2.6496 4.928 2.6496H11.072C11.4963 2.6496 11.9033 2.81817 12.2034 3.11823C12.5034 3.41828 12.672 3.82525 12.672 4.2496V10.0864C13.2087 10.206 13.6887 10.5046 14.0331 10.9333C14.3775 11.3619 14.5658 11.8949 14.567 12.4448ZM9.75488 12.7104C9.70213 12.3808 9.72149 12.0436 9.81163 11.7222C9.90177 11.4008 10.0605 11.1028 10.277 10.8487C10.4935 10.5946 10.7625 10.3904 11.0654 10.2503C11.3684 10.1102 11.6982 10.0375 12.032 10.0371V4.2496C12.0334 4.12315 12.0095 3.9977 11.9617 3.88061C11.914 3.76351 11.8433 3.65714 11.7539 3.56772C11.6645 3.4783 11.5581 3.40764 11.441 3.35988C11.3239 3.31212 11.1985 3.28823 11.072 3.2896H4.928C4.80155 3.28823 4.6761 3.31212 4.55901 3.35988C4.44192 3.40764 4.33554 3.4783 4.24613 3.56772C4.15671 3.65714 4.08605 3.76351 4.03829 3.88061C3.99053 3.9977 3.96663 4.12315 3.968 4.2496V11.7504C3.96663 11.8768 3.99053 12.0023 4.03829 12.1194C4.08605 12.2365 4.15671 12.3429 4.24613 12.4323C4.33554 12.5217 4.44192 12.5924 4.55901 12.6401C4.6761 12.6879 4.80155 12.7118 4.928 12.7104H9.75488ZM13.927 12.4448C13.927 12.0928 13.8227 11.7487 13.6271 11.456C13.4315 11.1633 13.1535 10.9352 12.8283 10.8004C12.5031 10.6657 12.1452 10.6305 11.8 10.6992C11.4547 10.7678 11.1376 10.9373 10.8887 11.1863C10.6398 11.4352 10.4702 11.7523 10.4016 12.0976C10.3329 12.4428 10.3681 12.8007 10.5028 13.1259C10.6376 13.4511 10.8657 13.7291 11.1584 13.9247C11.4511 14.1203 11.7952 14.2246 12.1472 14.2246C12.6191 14.2243 13.0717 14.0367 13.4054 13.703C13.7391 13.3692 13.9267 12.9167 13.927 12.4448ZM12.1472 11.1648C12.0623 11.1648 11.9809 11.1985 11.9209 11.2585C11.8609 11.3185 11.8272 11.3999 11.8272 11.4848V12.224L11.4432 12.3738C11.404 12.389 11.3683 12.4118 11.3379 12.4409C11.3076 12.47 11.2832 12.5048 11.2663 12.5432C11.2494 12.5817 11.2403 12.6232 11.2394 12.6652C11.2385 12.7072 11.2459 12.749 11.2611 12.7882C11.2764 12.8273 11.2992 12.8631 11.3283 12.8934C11.3574 12.9238 11.3921 12.9481 11.4306 12.965C11.4691 12.9819 11.5105 12.9911 11.5525 12.992C11.5946 12.9929 11.6364 12.9855 11.6755 12.9702L12.263 12.7405C12.323 12.717 12.3746 12.676 12.4109 12.6228C12.4472 12.5696 12.4666 12.5067 12.4666 12.4422V11.4822C12.4657 11.398 12.4317 11.3176 12.3719 11.2583C12.3122 11.199 12.2314 11.165 12.1472 11.1648Z" fill="black"/>
</svg>
