<svg width="17" height="16" viewBox="0 0 17 16" fill="none" xmlns="http://www.w3.org/2000/svg">
<g clip-path="url(#clip0_13_74)">
<path d="M8.83334 2.01099C11.439 2.18266 13.5 4.35099 13.5 7.00032V9.63199L14.5307 11.9223C14.781 12.479 14.4447 13 13.8333 13H10.81C10.7297 13.5554 10.452 14.0633 10.0278 14.4306C9.60356 14.798 9.06118 15.0001 8.5 15.0001C7.93883 15.0001 7.39644 14.798 6.9722 14.4306C6.54796 14.0633 6.27027 13.5554 6.19 13H3.16667C2.55667 13 2.21934 12.478 2.46934 11.9223L3.5 9.63232V6.99999C3.5 4.34999 5.56034 2.18199 8.16667 2.01066V0.99999C8.16667 0.911584 8.20179 0.8268 8.2643 0.764288C8.32681 0.701775 8.4116 0.666656 8.5 0.666656C8.58841 0.666656 8.67319 0.701775 8.73571 0.764288C8.79822 0.8268 8.83334 0.911584 8.83334 0.99999V2.01099ZM10.1333 13H6.86667C6.94383 13.3762 7.1485 13.7142 7.44609 13.957C7.74369 14.1998 8.11596 14.3323 8.5 14.3323C8.88405 14.3323 9.25632 14.1998 9.55391 13.957C9.85151 13.7142 10.0562 13.3762 10.1333 13ZM12.8333 9.70366V7.00032C12.8333 4.60732 10.893 2.66666 8.5 2.66666C6.10667 2.66666 4.16667 4.60666 4.16667 6.99999V9.70366C4.16666 9.75077 4.15666 9.79735 4.13734 9.84032L3.07734 12.196C3.026 12.3103 3.04067 12.3333 3.16667 12.3333H13.8333C13.9607 12.3333 13.9747 12.3117 13.9227 12.196L12.8627 9.84032C12.8433 9.79735 12.8333 9.75077 12.8333 9.70366Z" fill="black"/>
</g>
<defs>
<clipPath id="clip0_13_74">
<rect width="16" height="16" fill="white" transform="translate(0.5)"/>
</clipPath>
</defs>
</svg>
