<svg width="360" height="360" viewBox="0 0 360 360" fill="none" xmlns="http://www.w3.org/2000/svg">
<g>
<path d="M167.969 245.002C225.234 245.002 271.656 198.579 271.656 141.314C271.656 84.0495 225.234 37.6272 167.969 37.6272C110.704 37.6272 64.2816 84.0495 64.2816 141.314C64.2816 198.579 110.704 245.002 167.969 245.002Z" fill="#C4F4FF"/>
<path d="M285.602 96.2424C294.092 96.2424 300.974 89.3601 300.974 80.8704C300.974 72.3807 294.092 65.4984 285.602 65.4984C277.113 65.4984 270.23 72.3807 270.23 80.8704C270.23 89.3601 277.113 96.2424 285.602 96.2424Z" fill="#C4F4FF"/>
<path d="M98.1216 261.504C128.028 261.504 152.273 237.26 152.273 207.353C152.273 177.446 128.028 153.202 98.1216 153.202C68.2147 153.202 43.9704 177.446 43.9704 207.353C43.9704 237.26 68.2147 261.504 98.1216 261.504Z" fill="#C4F4FF"/>
<path d="M183.751 316.75C262.401 316.75 326.16 312.385 326.16 307.001C326.16 301.617 262.401 297.252 183.751 297.252C105.101 297.252 41.3424 301.617 41.3424 307.001C41.3424 312.385 105.101 316.75 183.751 316.75Z" fill="#C4F4FF"/>
<path d="M260.647 89.1793V296.294C260.647 302.753 255.413 307.987 248.954 307.987H136.678C130.219 307.987 124.985 302.753 124.985 296.294V89.1721C124.985 82.7137 130.219 77.4793 136.678 77.4793H166.421C169.07 77.4793 171.216 79.6249 171.216 82.2745H214.416C214.416 79.6249 216.562 77.4793 219.211 77.4793H248.947C255.406 77.4721 260.647 82.7137 260.647 89.1793Z" fill="#1A004D"/>
<path d="M136.678 304.596C132.106 304.596 128.383 300.874 128.383 296.294V89.172C128.383 84.6 132.106 80.8704 136.685 80.8704H166.428C167.198 80.8704 167.825 81.4968 167.825 82.2672V85.6656H217.814V82.2672C217.814 81.4968 218.441 80.8704 219.211 80.8704H248.947C253.526 80.8704 257.256 84.6 257.256 89.1792V296.294C257.256 300.874 253.534 304.596 248.954 304.596H136.678Z" fill="#516CDD"/>
<path d="M133.2 106.265H142.049" stroke="white" stroke-width="0.56664" stroke-miterlimit="10" stroke-linecap="round" stroke-linejoin="round"/>
<path d="M133.2 109.577H138.902" stroke="white" stroke-width="0.56664" stroke-miterlimit="10" stroke-linecap="round" stroke-linejoin="round"/>
<path d="M305.489 111.838V203.976C305.489 207.994 302.796 211.241 299.484 211.241H145.152C141.847 211.241 139.147 207.994 139.147 203.976V111.838C139.147 107.849 141.847 104.602 145.152 104.602H299.491C302.796 104.609 305.489 107.849 305.489 111.838Z" fill="white"/>
<path d="M299.484 211.478H145.152C141.71 211.478 138.902 208.109 138.902 203.976V111.838C138.902 107.712 141.703 104.364 145.152 104.364H299.491C302.933 104.364 305.741 107.719 305.741 111.838V203.976C305.734 208.116 302.933 211.478 299.484 211.478ZM145.152 104.846C141.977 104.846 139.392 107.986 139.392 111.838V203.976C139.392 207.85 141.977 210.996 145.152 210.996H299.491C302.666 210.996 305.251 207.85 305.251 203.976V111.838C305.251 107.986 302.666 104.846 299.491 104.846H145.152Z" fill="#C4F4FF"/>
<path d="M305.546 111.83V125.05H139.19V111.83C139.19 107.827 141.883 104.587 145.21 104.587H299.534C302.854 104.58 305.546 107.827 305.546 111.83Z" fill="#1A004D"/>
<path d="M305.791 125.287H138.953V111.823C138.953 107.698 141.761 104.335 145.217 104.335H299.542C302.99 104.335 305.791 107.69 305.791 111.823V125.287ZM139.435 124.805H305.302V111.83C305.302 107.971 302.717 104.832 299.534 104.832H145.21C142.027 104.832 139.435 107.971 139.435 111.83V124.805Z" fill="#1A004D"/>
<path d="M277.02 116.755C277.903 116.755 278.618 116.04 278.618 115.157C278.618 114.274 277.903 113.558 277.02 113.558C276.137 113.558 275.422 114.274 275.422 115.157C275.422 116.04 276.137 116.755 277.02 116.755Z" fill="white"/>
<path d="M283.997 116.755C284.88 116.755 285.595 116.04 285.595 115.157C285.595 114.274 284.88 113.558 283.997 113.558C283.114 113.558 282.398 114.274 282.398 115.157C282.398 116.04 283.114 116.755 283.997 116.755Z" fill="white"/>
<path d="M290.974 116.755C291.856 116.755 292.572 116.04 292.572 115.157C292.572 114.274 291.856 113.558 290.974 113.558C290.091 113.558 289.375 114.274 289.375 115.157C289.375 116.04 290.091 116.755 290.974 116.755Z" fill="white"/>
<path d="M279.713 288.518C279.713 288.518 286.315 264.679 295.337 268.704C304.358 272.729 293.242 286.258 279.634 289.807" fill="#C63E3E"/>
<path d="M280.282 272.167C280.282 272.167 286.243 238.824 294.458 240.595C302.674 242.366 279.72 290.448 279.72 290.448L278.028 283.198L280.606 272.167" fill="#DB5353"/>
<path d="M277.38 291.499C277.38 291.499 263.923 245.88 272.304 244.066C286.078 241.085 280.195 274.752 279.072 291.175" fill="#C63E3E"/>
<path d="M278.59 289.404C278.59 289.404 271.505 257.674 262.001 258.559C252.497 259.445 278.107 289.886 278.107 289.886" fill="#DB5353"/>
<path d="M293.609 287.222C293.609 287.222 293.414 296.287 293.242 300.161C293.17 301.997 292.702 305.194 291.139 308.081H270.266C268.69 305.194 268.236 301.997 268.15 300.161C267.991 296.287 267.797 287.222 267.797 287.222H293.609Z" fill="#1A004D"/>
<path d="M222.343 132.437C217.505 132.437 213.566 136.368 213.566 141.214V149.177H215.33V141.214C215.33 137.347 218.477 134.201 222.343 134.201C226.202 134.201 229.356 137.347 229.356 141.214V149.177H231.12V141.214C231.12 136.368 227.182 132.437 222.343 132.437Z" fill="#DB5353"/>
<path d="M233.935 146.556H210.758C209.909 146.556 209.218 147.247 209.218 148.104V161.748C209.218 162.605 209.909 163.296 210.758 163.296H233.935C234.792 163.296 235.483 162.605 235.483 161.748V148.104C235.483 147.247 234.792 146.556 233.935 146.556ZM223.445 155.117V158.544H221.249V155.124C220.666 154.757 220.277 154.109 220.277 153.374C220.277 152.23 221.206 151.315 222.343 151.315C223.481 151.315 224.402 152.237 224.402 153.374C224.41 154.102 224.028 154.75 223.445 155.117Z" fill="#DB5353"/>
<path d="M178.733 176.422H157.205V197.95H178.733V176.422Z" fill="#C4F4FF"/>
<path d="M161.986 193.075H173.959" stroke="#1A004D" stroke-width="0.59976" stroke-miterlimit="10"/>
<path d="M205.92 176.422H184.392V197.95H205.92V176.422Z" fill="#C4F4FF"/>
<path d="M189.173 193.075H201.146" stroke="#1A004D" stroke-width="0.59976" stroke-miterlimit="10"/>
<path d="M233.107 176.422H211.579V197.95H233.107V176.422Z" fill="#C4F4FF"/>
<path d="M216.36 193.075H228.334" stroke="#1A004D" stroke-width="0.59976" stroke-miterlimit="10"/>
<path d="M260.294 176.422H238.766V197.95H260.294V176.422Z" fill="#C4F4FF"/>
<path d="M243.547 193.075H255.521" stroke="#1A004D" stroke-width="0.59976" stroke-miterlimit="10"/>
<path d="M287.482 176.422H265.954V197.95H287.482V176.422Z" fill="#C4F4FF"/>
<path d="M270.734 193.075H282.708" stroke="#1A004D" stroke-width="0.59976" stroke-miterlimit="10"/>
<path d="M82.6344 286.43L82.3968 289.152L82.2096 291.298L81.5112 296.518L79.452 301.601L71.7048 301.464L71.0136 296.849L71.676 291.434L72.108 286.135L72.18 285.278L82.6344 286.43Z" fill="#E9C09F"/>
<path d="M112.781 296.129L112.55 299.354L104.875 300.362L103.147 296.237L102.859 291.794L102.456 285.732L108.648 284.998L112.198 284.573L112.262 285.919L112.306 286.812L112.781 296.129Z" fill="#E9C09F"/>
<path d="M126.914 303.768C126.914 303.768 127.786 306.418 123.458 306.965C119.124 307.519 115.812 307.613 113.551 307.181C111.29 306.749 110.131 306.864 107.777 307.123C105.422 307.382 103.046 307.548 101.83 306.374C100.829 305.417 101.635 303.588 101.635 303.588L114.646 303.314L126.914 303.768Z" fill="#DB6A6A"/>
<path d="M112.954 296.194C112.954 296.194 118.21 299.736 120.78 300.924C123.35 302.112 126.626 301.154 126.914 303.768C127.21 306.382 120.031 305.993 115.826 305.719C111.622 305.446 108.641 303.883 106.459 304.589C104.278 305.294 101.808 304.315 101.635 303.595C101.462 302.875 102.42 296.482 102.967 295.855C102.967 295.855 103.853 298.116 107.986 298.116C112.118 298.109 112.954 296.194 112.954 296.194Z" fill="#1A004D"/>
<path d="M117.893 301.385L117.958 301.421C118.08 301.493 118.231 301.442 118.303 301.32L119.052 299.966C119.117 299.844 119.074 299.686 118.958 299.621L118.894 299.585C118.771 299.513 118.62 299.563 118.548 299.686L117.799 301.039C117.727 301.161 117.77 301.32 117.893 301.385Z"/>
<path d="M116.705 300.586L116.77 300.622C116.892 300.694 117.043 300.643 117.115 300.521L117.864 299.167C117.929 299.045 117.886 298.886 117.77 298.822L117.706 298.786C117.583 298.714 117.432 298.764 117.36 298.886L116.611 300.24C116.539 300.362 116.582 300.514 116.705 300.586Z"/>
<path d="M115.315 299.743L115.38 299.779C115.502 299.851 115.654 299.801 115.726 299.678L116.474 298.325C116.539 298.202 116.496 298.044 116.381 297.979L116.316 297.943C116.194 297.871 116.042 297.922 115.97 298.044L115.222 299.397C115.15 299.52 115.193 299.671 115.315 299.743Z"/>
<path d="M113.94 298.908L114.005 298.944C114.127 299.016 114.278 298.965 114.35 298.843L115.099 297.489C115.164 297.367 115.121 297.209 115.006 297.144L114.941 297.108C114.818 297.036 114.667 297.086 114.595 297.209L113.846 298.562C113.782 298.685 113.825 298.836 113.94 298.908Z"/>
<path d="M114.156 289.058L101.21 290.246L97.5096 237.002L92.16 214.43C92.1096 214.87 90.1512 233.914 89.208 242.1C88.2216 250.61 86.8392 275.717 84.888 290.736L70.0632 289.764C70.8912 272.851 73.44 244.685 73.0728 238.464C71.2296 207.382 71.6832 199.771 72.1368 189.158C72.4104 182.837 73.4976 179.417 73.4976 179.417C73.4976 179.417 106.265 179.417 106.79 179.417C106.79 179.417 112.19 216.533 113.227 237.514C113.731 247.673 114.113 272.513 114.149 287.64C114.156 288.115 114.156 288.59 114.156 289.058Z" fill="#1A004D"/>
<path d="M114.156 289.058L101.21 290.246L97.5096 237.002L92.16 214.43L94.284 200.693C94.284 200.693 100.188 224.654 101.527 235.454C102.866 246.247 102.197 283.133 113.126 287.186C113.515 287.33 113.854 287.482 114.149 287.626C114.156 288.115 114.156 288.59 114.156 289.058Z" fill="#E5E6E7"/>
<path d="M70.6104 301.745C70.6104 301.745 70.5456 305.373 70.9704 305.633C72.1584 306.353 72.9792 306.338 74.4048 306.936C75.7656 307.512 78.2712 307.944 80.7336 308.052C82.3752 308.124 86.0544 308.167 86.148 306.626C86.1552 306.497 86.3784 305.582 86.1912 305.445C84.1464 303.962 70.6104 301.745 70.6104 301.745Z" fill="#DB6A6A"/>
<path d="M86.2128 305.726C84.8088 307.015 72.216 307.238 70.92 303.307C70.1856 301.111 70.8768 296.51 70.8768 296.51C70.8768 296.51 74.0304 297.475 78.732 297.259C80.244 297.187 81.5616 296.445 81.5616 296.589C81.5616 297.129 82.0656 298.044 82.2024 298.188C82.5336 298.512 87.6096 304.43 86.2128 305.726Z" fill="#1A004D"/>
<path d="M82.8648 299.7C82.9224 299.88 82.8216 300.067 82.6488 300.118L79.1208 301.219C78.948 301.277 78.7608 301.176 78.7032 300.996C78.6456 300.816 78.7464 300.629 78.9192 300.578L82.4472 299.477C82.6272 299.426 82.8144 299.527 82.8648 299.7Z"/>
<path d="M83.6424 300.787C83.7 300.967 83.5992 301.154 83.4264 301.205L79.8984 302.306C79.7256 302.364 79.5384 302.263 79.4808 302.083C79.4232 301.903 79.524 301.716 79.6968 301.666L83.2248 300.564C83.4048 300.514 83.592 300.614 83.6424 300.787Z"/>
<path d="M84.4848 302.011C84.5424 302.191 84.4416 302.378 84.2688 302.429L80.7408 303.53C80.568 303.588 80.3808 303.487 80.3232 303.307C80.2656 303.127 80.3664 302.94 80.5392 302.89L84.0672 301.788C84.2472 301.73 84.4344 301.831 84.4848 302.011Z"/>
<path d="M82.1376 298.67C82.1952 298.85 82.0944 299.038 81.9216 299.088L78.3936 300.19C78.2208 300.247 78.0336 300.146 77.976 299.966C77.9184 299.786 78.0192 299.599 78.192 299.549L81.72 298.447C81.8928 298.39 82.08 298.49 82.1376 298.67Z"/>
<path d="M115.589 143.719C115.589 143.719 118.26 149.602 118.944 150.84L132.415 133.495L137.563 137.074C137.563 137.074 125.467 166.37 114.638 164.311C106.949 162.85 101.232 141.689 101.369 141.422L115.589 143.719Z" fill="#EFC0C1"/>
<path d="M118.944 150.84L116.006 155.923" stroke="#313131" stroke-width="0.13464" stroke-miterlimit="10"/>
<path d="M90.1152 130.097C90.1152 130.097 94.86 124.2 97.7832 124.171C100.21 124.15 102.269 121.471 108.367 129.91C113.89 137.556 118.253 146.837 118.253 146.837L104.832 155.362L90.1152 130.097Z" fill="#DB5353"/>
<path d="M131.335 135.669C131.335 135.669 132.487 134.625 132.487 132.689C132.487 130.759 132.581 128.844 133.567 127.476C134.554 126.108 136.606 123.689 137.981 123.581C139.356 123.473 141.415 124.25 141.768 124.819C142.128 125.381 141.761 125.734 141.761 125.734C141.761 125.734 142.783 125.892 143.186 126.309C143.59 126.727 143.33 127.13 143.33 127.13C143.33 127.13 144.526 127.354 144.698 127.872C144.871 128.39 144.302 128.974 143.561 128.851C142.819 128.729 140.508 129.154 140.083 129.953C139.658 130.759 139.644 134.287 138.701 136.159C138.096 137.354 137.318 137.822 137.318 137.822L131.335 135.669Z" fill="#EFC0C1"/>
<path opacity="0.5" d="M135.821 136.627C135.821 136.627 135.994 136.476 136.246 136.173C136.505 135.878 136.85 135.425 137.131 134.82C137.268 134.517 137.376 134.172 137.398 133.805C137.412 133.437 137.376 133.005 137.405 132.581C137.434 131.724 137.642 130.752 138.233 129.996C138.377 129.801 138.557 129.643 138.622 129.485C138.701 129.319 138.686 129.168 138.571 129.038C138.326 128.772 137.88 128.678 137.491 128.685C136.67 128.693 136.08 129.276 135.713 129.83C135.331 130.385 135.072 130.889 134.899 131.241C134.726 131.601 134.647 131.81 134.647 131.81C134.647 131.81 134.705 131.594 134.842 131.213C134.986 130.845 135.187 130.305 135.554 129.715C135.742 129.427 135.965 129.117 136.274 128.844C136.591 128.57 137.023 128.412 137.477 128.376C137.923 128.361 138.427 128.419 138.816 128.808C139.018 129.002 139.054 129.369 138.924 129.607C138.794 129.866 138.622 130.01 138.499 130.183C137.959 130.867 137.758 131.753 137.7 132.588C137.657 133.013 137.678 133.401 137.642 133.812C137.599 134.222 137.455 134.582 137.304 134.892C136.987 135.511 136.577 135.929 136.296 136.209C136.008 136.497 135.821 136.627 135.821 136.627ZM143.33 127.13C143.33 127.13 143.266 127.145 143.15 127.159C143.042 127.173 142.812 127.209 142.675 127.231C142.488 127.26 142.193 127.303 142.013 127.332C141.775 127.368 141.516 127.404 141.264 127.461C141.012 127.505 140.76 127.562 140.53 127.627C140.299 127.692 140.083 127.757 139.918 127.843C139.752 127.929 139.601 128.001 139.522 128.081C139.435 128.153 139.378 128.196 139.378 128.196C139.378 128.196 139.414 128.138 139.471 128.037C139.536 127.937 139.651 127.8 139.817 127.685C139.982 127.562 140.191 127.44 140.436 127.353C140.674 127.253 140.94 127.195 141.199 127.137C141.466 127.094 141.732 127.058 141.984 127.044C142.236 127.029 142.466 127.044 142.668 127.051C142.87 127.058 143.035 127.087 143.15 127.101C143.266 127.116 143.33 127.13 143.33 127.13ZM141.761 125.733C141.761 125.733 141.667 125.726 141.509 125.719C141.358 125.712 141.055 125.697 140.854 125.683C140.587 125.661 140.27 125.661 139.939 125.661C139.608 125.661 139.255 125.669 138.917 125.733C138.578 125.777 138.312 125.935 138.06 126.151C137.815 126.36 137.599 126.583 137.426 126.785C137.261 126.993 137.117 127.166 137.023 127.296C136.93 127.425 136.879 127.497 136.879 127.497C136.879 127.497 136.908 127.411 136.966 127.26C137.03 127.116 137.124 126.9 137.268 126.669C137.419 126.439 137.599 126.165 137.858 125.921C138.096 125.676 138.47 125.445 138.852 125.395C139.226 125.33 139.601 125.337 139.946 125.359C140.292 125.381 140.602 125.445 140.875 125.489C141.142 125.539 141.365 125.604 141.516 125.647C141.674 125.705 141.761 125.733 141.761 125.733Z" fill="#EFC0C1"/>
<path d="M103.126 127.75C103.09 127.685 97.3872 135.353 92.9808 134.424C88.056 133.38 84.8088 123.876 84.8088 123.876L84.4416 114.012L84.4344 113.854L84.384 113.27L85.3632 113.508L89.244 114.458L90.7992 114.847L94.7808 115.819C94.7808 115.819 95.1408 118.339 95.8464 120.341C95.9256 120.55 95.9904 120.751 96.0696 120.938C96.2136 121.262 96.408 121.565 96.6168 121.817C97.0992 122.414 97.6536 122.774 97.6536 122.782C98.8416 124.697 103.097 127.75 103.126 127.75Z" fill="#EFC0C1"/>
<path d="M96.6168 121.81C88.6824 124.834 84.8088 115.315 84.4416 114.012L84.4344 113.854L84.384 113.27L85.3632 113.508C86.472 114.084 88.0272 114.718 89.244 114.458L90.7992 114.847L94.7808 115.819C94.7808 115.819 95.1408 118.339 95.8464 120.341C95.9256 120.55 95.9904 120.751 96.0696 120.938C96.2136 121.255 96.408 121.558 96.6168 121.81Z" fill="#E5E6E7"/>
<path d="M98.7336 109.411C98.7912 114.451 98.0208 119.7 93.2544 120.082C89.9208 120.341 85.752 116.575 84.0744 112.615C83.2104 110.57 82.4328 108.792 82.1088 107.395C81.8496 106.286 81.7416 105.581 81.7416 105.581L81.9576 102.989L82.0872 101.47C82.0872 101.47 82.9224 100.382 83.8512 99.1584C85.0104 97.6248 87.6384 98.8272 87.66 98.7336C87.6888 98.5968 93.9312 96.156 96.588 98.2872C96.5952 98.2944 96.6024 98.2944 96.6024 98.3016C96.8472 98.496 97.0416 98.7048 97.1928 98.928C97.3152 99.1152 97.4016 99.3096 97.452 99.5184C97.5456 99.9216 97.6752 100.526 97.8264 101.297C97.884 101.621 97.956 101.966 98.0208 102.341C98.1288 102.974 98.244 103.666 98.3448 104.4C98.5536 105.934 98.712 107.669 98.7336 109.411Z" fill="#EFC0C1"/>
<path d="M81.8856 107.395C81.8856 107.395 76.5216 96.9192 85.5576 95.0544C85.5576 95.0544 91.656 90.3672 96.948 92.9448C101.65 95.2344 100.843 99.9864 98.0712 101.585C96.2568 102.636 86.7816 101.894 85.5936 103.032C84.4056 104.17 84.2904 113.184 84.2904 113.184C84.2904 113.184 83.1672 109.354 81.8856 107.395Z" fill="#1A004D"/>
<path d="M88.3687 98.8595C90.3791 98.4909 91.6954 96.483 91.3088 94.3749C90.9223 92.2667 88.9792 90.8566 86.9688 91.2252C84.9584 91.5939 83.6421 93.6017 84.0286 95.7099C84.4152 97.818 86.3583 99.2282 88.3687 98.8595Z" fill="#1A004D"/>
<path d="M94.309 100.18C96.9178 99.702 98.6257 97.0947 98.1236 94.3568C97.6216 91.6189 95.0998 89.7873 92.491 90.2657C89.8822 90.744 88.1743 93.3513 88.6764 96.0892C89.1784 98.827 91.7003 100.659 94.309 100.18Z" fill="#1A004D"/>
<path d="M99.5142 100.869C101.525 100.5 102.841 98.4924 102.454 96.3843C102.068 94.2761 100.125 92.866 98.1143 93.2346C96.1039 93.6033 94.7876 95.6111 95.1741 97.7193C95.5607 99.8274 97.5038 101.238 99.5142 100.869Z" fill="#1A004D"/>
<path d="M87.679 104.464C89.134 104.197 90.0867 102.745 89.807 101.219C89.5273 99.6938 88.1211 98.6736 86.6661 98.9404C85.2111 99.2072 84.2584 100.66 84.5381 102.185C84.8178 103.711 86.224 104.731 87.679 104.464Z" fill="#1A004D"/>
<path d="M82.9413 100.722C84.3963 100.455 85.349 99.0019 85.0693 97.4766C84.7896 95.9512 83.3833 94.9309 81.9284 95.1977C80.4734 95.4645 79.5206 96.9174 79.8003 98.4427C80.0801 99.9681 81.4863 100.988 82.9413 100.722Z" fill="#1A004D"/>
<path d="M82.4083 104.358C83.8632 104.091 84.816 102.638 84.5363 101.113C84.2566 99.5873 82.8503 98.567 81.3953 98.8338C79.9404 99.1006 78.9876 100.553 79.2673 102.079C79.547 103.604 80.9533 104.625 82.4083 104.358Z" fill="#1A004D"/>
<path d="M83.064 107.028C84.296 106.802 85.1029 105.572 84.8662 104.282C84.6295 102.991 83.4389 102.128 82.2069 102.354C80.9748 102.58 80.1679 103.809 80.4046 105.1C80.6413 106.39 81.8319 107.254 83.064 107.028Z" fill="#1A004D"/>
<path d="M93.0141 104.653C94.4691 104.386 95.4218 102.933 95.1421 101.408C94.8624 99.8824 93.4561 98.8622 92.0012 99.129C90.5462 99.3958 89.5935 100.849 89.8732 102.374C90.1529 103.899 91.5591 104.92 93.0141 104.653Z" fill="#1A004D"/>
<path d="M85.0839 97.4306C86.531 97.1652 87.4786 95.7199 87.2003 94.2023C86.922 92.6848 85.5233 91.6697 84.0761 91.935C82.629 92.2004 81.6814 93.6458 81.9597 95.1633C82.238 96.6809 83.6367 97.696 85.0839 97.4306Z" fill="#1A004D"/>
<path d="M83.6208 108.007C83.6208 108.007 80.424 106.675 81.0648 109.548C81.7128 112.421 84.6648 113.155 84.6648 113.155L83.6208 108.007Z" fill="#EFC0C1"/>
<path d="M83.1024 109.066C83.1024 109.066 80.748 108.806 83.5848 111.485Z" fill="#EDAA98"/>
<path d="M96.4214 109.311C96.4395 108.87 96.248 108.504 95.9937 108.494C95.7394 108.483 95.5186 108.832 95.5006 109.273C95.4825 109.715 95.674 110.08 95.9283 110.091C96.1826 110.101 96.4034 109.752 96.4214 109.311Z" fill="#1A004D"/>
<path d="M90.9782 109.684C90.9962 109.243 90.8047 108.877 90.5505 108.867C90.2962 108.856 90.0754 109.206 90.0573 109.647C90.0393 110.088 90.2308 110.454 90.4851 110.464C90.7394 110.474 90.9601 110.125 90.9782 109.684Z" fill="#1A004D"/>
<path d="M94.7592 107.302C94.7592 107.302 95.9112 106.092 97.1424 106.502L94.7592 107.302ZM88.4016 107.287C88.5024 107.258 90.144 106.675 91.332 107.597L88.4016 107.287Z" fill="#1A004D"/>
<path d="M93.4488 110.39C93.4488 110.39 93.3552 111.722 93.9744 111.996C94.5936 112.27 95.0544 113.537 93.4344 113.314" stroke="#EDAA98" stroke-width="0.15048" stroke-miterlimit="10" stroke-linecap="round" stroke-linejoin="round"/>
<path d="M95.5728 115.459C95.5728 115.459 95.5296 115.596 95.4072 115.776C95.1984 116.107 94.7592 116.59 93.9384 116.683C93.132 116.77 92.5128 116.381 92.1744 116.086C91.9872 115.92 91.8792 115.783 91.8792 115.783" fill="white"/>
<path d="M105.703 131.004C106.07 139.5 105.43 147.838 105.739 156.204C105.718 165.19 107.496 180.094 107.496 180.18C107.503 179.921 103.406 182.362 95.4432 184.608C87.8616 186.746 75.5568 186.062 71.964 184.846C71.8344 184.81 69.7392 160.776 69.7968 160.265C69.4944 129.262 68.9544 127.116 72.7632 124.654C74.5272 123.307 75.9528 123.228 78.0984 122.573V122.566C79.5744 122.076 83.8296 121.154 84.6792 121.054C87.0768 123.854 91.512 128.657 94.6368 128.902C98.0352 127.67 96.3792 122.731 96.6168 121.81C102.053 122.429 105.782 125.107 105.703 131.004Z" fill="#DB5353"/>
<path d="M66.0672 152.266C66.0672 152.266 65.124 167.155 67.104 170.438C68.8392 173.318 69.9408 175.968 86.292 166.176C90.5112 163.649 99.6912 155.419 99.6912 155.419L95.544 150.617L78.8112 158.148L79.0416 153.763L66.0672 152.266Z" fill="#EFC0C1"/>
<path d="M78.804 158.155L73.3752 160.747" stroke="#313131" stroke-width="0.13464" stroke-miterlimit="10"/>
<path d="M73.296 124.222C73.296 124.222 67.4424 127.159 66.7584 132.818C66.0744 138.47 65.2392 153.547 65.2392 153.547L79.272 154.166C79.272 154.166 80.5248 140.443 80.4096 133.351C80.2872 126.252 73.296 124.222 73.296 124.222Z" fill="#DB5353"/>
<path d="M79.02 154.966C79.02 154.966 80.5104 140.443 80.3952 133.351" stroke="#313131" stroke-width="0.13464" stroke-miterlimit="10"/>
<path d="M105.667 133.848C105.674 137.995 105.401 142.805 105.718 151.171" stroke="#313131" stroke-width="0.13464" stroke-miterlimit="10"/>
<path d="M118.656 138.787L118.296 138.254L107.878 139.212L99.8208 153.684L110.441 153.554L117.85 139.126L118.656 138.787Z" fill="#260F60"/>
<path d="M108.238 139.752L100.181 154.217L110.801 154.087L118.656 138.787L108.238 139.752Z" fill="#1A004D"/>
<path d="M116.409 141.285C116.624 140.86 116.572 140.399 116.292 140.257C116.012 140.115 115.61 140.345 115.394 140.771C115.178 141.197 115.231 141.657 115.511 141.799C115.791 141.941 116.193 141.711 116.409 141.285Z" fill="#260F60"/>
<path d="M109.656 149.508C109.656 149.508 110.966 149.206 110.426 150.386C109.894 151.567 107.302 154.231 105.84 154.598C104.386 154.973 100.231 154.994 99.684 155.419C99.144 155.844 95.4792 150.84 95.4792 150.84C95.4792 150.84 98.8128 146.736 100.562 145.498C101.513 144.821 103.342 144.54 104.731 144.605L103.673 146.664C103.313 146.729 103.054 146.801 102.989 146.894C102.751 147.254 103.241 147.521 104.213 147.197C105.185 146.88 110.045 144.274 110.441 144.77C111.11 145.606 108.223 147.312 106.236 148.45C105.48 148.882 104.177 149.854 104.177 149.854C104.177 149.854 105.451 149.71 106.711 148.968C107.971 148.226 110.225 146.722 110.887 147.326C111.55 147.938 109.656 149.508 109.656 149.508Z" fill="#EFC0C1"/>
<path d="M109.656 149.508C109.656 149.508 107.266 151.884 104.933 152.28" stroke="#231F20" stroke-width="0.1368" stroke-miterlimit="10"/>
<path d="M244.735 228.895H140.897V281.102H244.735V228.895Z" fill="#C4F4FF"/>
<path d="M170.379 183.244H166.883V184.791C167.032 184.626 167.241 184.492 167.51 184.387C167.779 184.283 168.07 184.23 168.384 184.23C168.944 184.23 169.408 184.357 169.774 184.611C170.147 184.865 170.42 185.194 170.592 185.598C170.764 186.001 170.849 186.438 170.849 186.909C170.849 187.783 170.603 188.478 170.11 188.993C169.617 189.501 168.922 189.755 168.026 189.755C167.428 189.755 166.909 189.654 166.468 189.452C166.027 189.243 165.687 188.956 165.448 188.59C165.209 188.224 165.078 187.801 165.056 187.323H166.927C166.972 187.555 167.08 187.749 167.252 187.906C167.424 188.055 167.659 188.13 167.958 188.13C168.309 188.13 168.571 188.018 168.743 187.794C168.915 187.57 169 187.271 169 186.897C169 186.531 168.911 186.251 168.732 186.057C168.552 185.863 168.291 185.766 167.947 185.766C167.693 185.766 167.484 185.829 167.32 185.956C167.155 186.076 167.047 186.236 166.995 186.438H165.146V181.563H170.379V183.244Z" fill="black"/>
<path d="M197.931 183.009L195.118 189.755H193.157L196.004 183.222H192.518V181.586H197.931V183.009Z" fill="black"/>
<path d="M219.589 188.298V186.752L223.13 181.687H225.27V186.64H226.189V188.298H225.27V189.755H223.354V188.298H219.589ZM223.489 183.793L221.606 186.64H223.489V183.793Z" fill="black"/>
</g>
</svg>
