<svg width="32" height="32" viewBox="0 0 32 32" fill="none" xmlns="http://www.w3.org/2000/svg">
<path d="M2 9C2.26522 9 2.51957 8.89464 2.70711 8.70711C2.89464 8.51957 3 8.26522 3 8V3H8C8.26522 3 8.51957 2.89464 8.70711 2.70711C8.89464 2.51957 9 2.26522 9 2C9 1.73478 8.89464 1.48043 8.70711 1.29289C8.51957 1.10536 8.26522 1 8 1H2C1.73478 1 1.48043 1.10536 1.29289 1.29289C1.10536 1.48043 1 1.73478 1 2V8C1 8.26522 1.10536 8.51957 1.29289 8.70711C1.48043 8.89464 1.73478 9 2 9ZM8 29H3V24C3 23.7348 2.89464 23.4804 2.70711 23.2929C2.51957 23.1054 2.26522 23 2 23C1.73478 23 1.48043 23.1054 1.29289 23.2929C1.10536 23.4804 1 23.7348 1 24V30C1 30.2652 1.10536 30.5196 1.29289 30.7071C1.48043 30.8946 1.73478 31 2 31H8C8.26522 31 8.51957 30.8946 8.70711 30.7071C8.89464 30.5196 9 30.2652 9 30C9 29.7348 8.89464 29.4804 8.70711 29.2929C8.51957 29.1054 8.26522 29 8 29ZM30 23C29.7348 23 29.4804 23.1054 29.2929 23.2929C29.1054 23.4804 29 23.7348 29 24V29H24C23.7348 29 23.4804 29.1054 23.2929 29.2929C23.1054 29.4804 23 29.7348 23 30C23 30.2652 23.1054 30.5196 23.2929 30.7071C23.4804 30.8946 23.7348 31 24 31H30C30.2652 31 30.5196 30.8946 30.7071 30.7071C30.8946 30.5196 31 30.2652 31 30V24C31 23.7348 30.8946 23.4804 30.7071 23.2929C30.5196 23.1054 30.2652 23 30 23ZM30 1H24C23.7348 1 23.4804 1.10536 23.2929 1.29289C23.1054 1.48043 23 1.73478 23 2C23 2.26522 23.1054 2.51957 23.2929 2.70711C23.4804 2.89464 23.7348 3 24 3H29V8C29 8.26522 29.1054 8.51957 29.2929 8.70711C29.4804 8.89464 29.7348 9 30 9C30.2652 9 30.5196 8.89464 30.7071 8.70711C30.8946 8.51957 31 8.26522 31 8V2C31 1.73478 30.8946 1.48043 30.7071 1.29289C30.5196 1.10536 30.2652 1 30 1ZM7 26H25C25.2652 26 25.5196 25.8946 25.7071 25.7071C25.8946 25.5196 26 25.2652 26 25V19H28C28.2652 19 28.5196 18.8946 28.7071 18.7071C28.8946 18.5196 29 18.2652 29 18C29 17.7348 28.8946 17.4804 28.7071 17.2929C28.5196 17.1054 28.2652 17 28 17H4C3.73478 17 3.48043 17.1054 3.29289 17.2929C3.10536 17.4804 3 17.7348 3 18C3 18.2652 3.10536 18.5196 3.29289 18.7071C3.48043 18.8946 3.73478 19 4 19H6V25C6 25.2652 6.10536 25.5196 6.29289 25.7071C6.48043 25.8946 6.73478 26 7 26ZM24 24H8V19H24V24ZM25 6H7C6.73478 6 6.48043 6.10536 6.29289 6.29289C6.10536 6.48043 6 6.73478 6 7V14C6 14.2652 6.10536 14.5196 6.29289 14.7071C6.48043 14.8946 6.73478 15 7 15C7.26522 15 7.51957 14.8946 7.70711 14.7071C7.89464 14.5196 8 14.2652 8 14V8H24V14C24 14.2652 24.1054 14.5196 24.2929 14.7071C24.4804 14.8946 24.7348 15 25 15C25.2652 15 25.5196 14.8946 25.7071 14.7071C25.8946 14.5196 26 14.2652 26 14V7C26 6.73478 25.8946 6.48043 25.7071 6.29289C25.5196 6.10536 25.2652 6 25 6Z" fill="black"/>
</svg>
