<svg width="360" height="360" viewBox="0 0 360 360" fill="none" xmlns="http://www.w3.org/2000/svg">
<path fill-rule="evenodd" clip-rule="evenodd" d="M179.604 270.234C212.634 270.234 243.036 270.72 267.156 271.548C326.196 237.798 305.748 172.044 284.544 134.838C255.042 83.07 185.346 64.458 156.51 105.768C117.378 161.838 79.632 142.272 59.238 184.86C38.862 227.448 69.804 268.272 92.052 271.566C116.172 270.72 146.574 270.234 179.604 270.234ZM127.872 126.648C112.77 138.15 87.768 147.06 79.47 134.838C73.278 125.712 80.91 108.558 95.868 95.58C110.808 82.602 130.842 74.736 141.75 84.294C154.71 95.634 139.518 117.792 127.872 126.648Z" fill="#E3F4F5"/>
<path fill-rule="evenodd" clip-rule="evenodd" d="M179.604 270.234C258.03 270.234 321.606 273.024 321.606 276.444C321.606 279.864 258.03 282.672 179.604 282.672C101.178 282.672 37.602 279.882 37.602 276.444C37.602 273.006 101.178 270.234 179.604 270.234Z" fill="#CBE5E6"/>
<path fill-rule="evenodd" clip-rule="evenodd" d="M225.396 98.55C260.856 106.452 283.428 139.068 285.642 154.818C286.542 161.28 284.868 146.16 266.778 132.39C250.614 120.078 238.014 117.81 218.79 116.316C205.2 115.272 190.962 113.598 191.97 105.48C192.762 99.09 202.5 93.456 225.396 98.55ZM132.66 85.356C138.762 85.716 142.488 90.738 142.74 96.516C142.848 98.982 140.922 92.538 134.154 91.656C129.96 91.098 129.33 92.34 127.818 90.612C126.306 88.884 127.728 85.068 132.66 85.356Z" fill="white"/>
<path fill-rule="evenodd" clip-rule="evenodd" d="M88.128 255.888C86.508 253.854 84.222 252.18 83.556 249.678C82.764 246.726 84.51 243.612 84.078 240.57C83.538 236.754 79.866 234.288 77.868 230.976C75.906 227.754 76.824 226.656 76.644 222.894C76.374 217.206 71.712 210.042 65.502 211.968C59.202 213.93 60.228 219.78 61.344 224.19C62.136 227.322 61.614 227.772 60.858 230.922C59.922 234.72 56.934 238.392 58.194 242.1C58.968 244.386 61.218 245.934 62.028 248.22C62.946 250.794 61.83 253.602 61.398 256.302C60.498 262.008 61.794 266.742 65.934 271.44C66.384 271.854 66.834 272.25 67.32 272.628C73.116 272.304 79.65 271.998 86.796 271.728L86.85 271.674C90.648 267.552 91.764 260.442 88.128 255.888Z" fill="#CBE5E6"/>
<path fill-rule="evenodd" clip-rule="evenodd" d="M68.382 217.116C68.292 216.864 68.004 216.738 67.734 216.828C67.482 216.918 67.356 217.206 67.446 217.476C67.932 218.772 68.346 220.104 68.706 221.508C68.562 221.382 68.418 221.256 68.256 221.13C67.572 220.59 66.816 220.104 65.952 219.708C65.7 219.582 65.412 219.69 65.286 219.942C65.178 220.194 65.268 220.482 65.52 220.608C66.312 220.986 67.014 221.418 67.626 221.904C68.202 222.372 68.706 222.894 69.138 223.47C69.768 226.512 70.182 229.77 70.56 233.226C69.984 232.326 69.372 231.516 68.706 230.814C67.572 229.572 66.312 228.618 64.926 227.934C64.674 227.808 64.386 227.916 64.26 228.15C64.134 228.402 64.242 228.69 64.476 228.816C65.736 229.446 66.906 230.328 67.968 231.48C69.012 232.632 69.966 234.018 70.812 235.674L70.902 236.61C71.118 238.662 71.334 240.768 71.586 242.928C71.586 242.946 71.586 242.964 71.586 242.982C71.856 245.232 72.162 247.518 72.558 249.858C71.478 248.202 70.326 246.726 69.084 245.448C67.266 243.576 65.268 242.118 63.108 241.074C62.856 240.948 62.568 241.056 62.442 241.308C62.316 241.56 62.424 241.848 62.676 241.974C64.746 242.964 66.636 244.35 68.364 246.15C70.092 247.932 71.658 250.11 73.062 252.684C73.674 255.78 74.448 258.93 75.492 262.116V262.134C75.996 263.7 76.572 265.266 77.22 266.85C75.708 265.554 74.106 264.438 72.414 263.502C70.056 262.188 67.518 261.216 64.818 260.586C64.548 260.532 64.278 260.694 64.224 260.964C64.17 261.234 64.332 261.504 64.602 261.558C67.23 262.17 69.678 263.106 71.946 264.366C74.196 265.626 76.284 267.192 78.192 269.1C78.642 270.072 79.11 271.062 79.614 272.052L80.712 271.998C78.948 268.614 77.58 265.23 76.482 261.882C76.302 259.452 76.59 257.022 77.346 254.592C78.12 252.126 79.38 249.66 81.126 247.194C81.288 246.978 81.234 246.654 81 246.492C80.784 246.33 80.46 246.384 80.298 246.618C78.48 249.174 77.184 251.73 76.374 254.286C75.924 255.744 75.618 257.202 75.492 258.642C73.998 253.242 73.17 247.968 72.558 242.946C73.134 240.804 73.8 239.004 74.52 237.528C75.24 236.052 76.014 234.918 76.86 234.126C77.058 233.946 77.076 233.622 76.878 233.424C76.698 233.226 76.374 233.208 76.176 233.406C75.24 234.288 74.394 235.512 73.62 237.096C73.134 238.068 72.684 239.202 72.27 240.462C72.126 239.13 71.982 237.816 71.856 236.538L71.748 235.53C71.748 235.512 71.748 235.494 71.748 235.476C71.118 228.618 70.398 222.408 68.382 217.116Z" fill="white"/>
<path fill-rule="evenodd" clip-rule="evenodd" d="M71.46 258.57C69.732 257.634 67.644 257.148 66.438 255.6C65.016 253.764 65.304 251.082 64.098 249.102C62.586 246.6 59.292 245.97 56.934 244.26C54.612 242.586 54.936 241.56 53.694 238.986C51.822 235.116 46.458 231.498 42.696 234.666C38.88 237.888 41.346 241.668 43.416 244.422C44.892 246.366 44.676 246.834 45.072 249.264C45.558 252.18 44.55 255.636 46.53 257.832C47.754 259.2 49.77 259.614 51.012 260.964C52.416 262.494 52.47 264.762 52.974 266.778C53.64 269.442 54.81 271.602 56.646 273.33C61.614 272.952 67.446 272.61 74.034 272.286C74.538 271.566 74.952 270.774 75.24 269.946C76.662 265.932 75.348 260.658 71.46 258.57Z" fill="#4ECBD1"/>
<path fill-rule="evenodd" clip-rule="evenodd" d="M46.206 237.402C46.062 237.258 45.828 237.24 45.666 237.384C45.522 237.528 45.504 237.762 45.648 237.924C46.368 238.68 47.052 239.49 47.718 240.372C47.574 240.318 47.448 240.282 47.304 240.246C46.674 240.066 45.99 239.958 45.27 239.94C45.054 239.94 44.892 240.102 44.874 240.3C44.874 240.516 45.036 240.678 45.234 240.696C45.9 240.714 46.512 240.822 47.088 240.984C47.628 241.146 48.132 241.344 48.618 241.632C49.968 243.558 51.228 245.718 52.506 248.004C51.84 247.554 51.174 247.176 50.508 246.87C49.356 246.348 48.186 246.042 47.016 245.988C46.8 245.97 46.638 246.132 46.62 246.348C46.602 246.546 46.764 246.726 46.98 246.744C48.042 246.798 49.122 247.086 50.202 247.572C51.282 248.058 52.344 248.742 53.424 249.66L53.766 250.29C54.522 251.658 55.296 253.062 56.106 254.484C56.106 254.502 56.124 254.52 56.124 254.52C56.97 256.014 57.87 257.508 58.842 259.02C57.6 258.174 56.358 257.508 55.116 256.986C53.298 256.23 51.48 255.798 49.662 255.708C49.446 255.69 49.284 255.852 49.266 256.068C49.248 256.284 49.41 256.446 49.626 256.464C51.354 256.536 53.1 256.95 54.828 257.688C56.556 258.408 58.302 259.47 60.03 260.838C61.38 262.818 62.856 264.78 64.512 266.688C65.322 267.624 66.186 268.542 67.104 269.46C65.664 269.01 64.224 268.704 62.766 268.542C60.732 268.326 58.68 268.398 56.61 268.758C56.412 268.794 56.268 268.992 56.304 269.19C56.34 269.388 56.538 269.532 56.736 269.496C58.734 269.136 60.732 269.064 62.676 269.28C64.62 269.478 66.528 269.964 68.436 270.72C69.084 271.332 69.768 271.926 70.47 272.502L71.586 272.448C69.12 270.486 66.978 268.38 65.088 266.202C64.242 264.564 63.72 262.782 63.54 260.874C63.342 258.93 63.504 256.842 63.99 254.592C64.026 254.394 63.9 254.196 63.702 254.142C63.504 254.106 63.306 254.232 63.252 254.43C62.748 256.752 62.586 258.912 62.784 260.946C62.892 262.098 63.126 263.196 63.468 264.24C60.822 260.928 58.698 257.49 56.772 254.178C56.556 252.522 56.466 251.064 56.538 249.822C56.61 248.58 56.808 247.572 57.168 246.762C57.258 246.564 57.168 246.348 56.97 246.258C56.772 246.168 56.556 246.258 56.466 246.456C56.07 247.338 55.854 248.454 55.782 249.786C55.746 250.614 55.764 251.514 55.836 252.522C55.332 251.64 54.864 250.758 54.378 249.912L54 249.246C54 249.228 53.982 249.228 53.982 249.21C51.534 244.62 49.194 240.48 46.206 237.402Z" fill="white"/>
<path fill-rule="evenodd" clip-rule="evenodd" d="M264.798 253.98C266.562 251.766 269.046 249.948 269.784 247.212C270.648 243.99 268.74 240.588 269.226 237.276C269.82 233.118 273.834 230.418 276.012 226.818C278.136 223.29 277.146 222.102 277.344 217.998C277.632 211.806 282.726 203.976 289.494 206.064C296.37 208.206 295.254 214.596 294.03 219.402C293.166 222.822 293.724 223.326 294.57 226.746C295.578 230.886 298.854 234.9 297.486 238.95C296.64 241.452 294.192 243.144 293.31 245.628C292.302 248.436 293.526 251.496 293.994 254.448C294.984 260.658 293.562 265.842 289.044 270.972C288.504 271.494 287.928 271.962 287.334 272.412C281.088 272.088 274.104 271.8 266.526 271.548C266.418 271.44 266.31 271.332 266.22 271.224C262.062 266.688 260.838 258.948 264.798 253.98Z" fill="#CBE5E6"/>
<path fill-rule="evenodd" clip-rule="evenodd" d="M286.362 211.644C286.47 211.356 286.776 211.23 287.064 211.338C287.352 211.446 287.478 211.752 287.37 212.04C286.83 213.444 286.38 214.92 286.002 216.45C286.164 216.306 286.326 216.18 286.488 216.036C287.226 215.442 288.072 214.92 289.008 214.488C289.278 214.362 289.602 214.47 289.728 214.74C289.854 215.01 289.746 215.334 289.476 215.46C288.612 215.874 287.856 216.342 287.172 216.882C286.542 217.386 285.984 217.962 285.516 218.592C284.814 221.904 284.364 225.468 283.95 229.23C284.58 228.258 285.246 227.376 285.966 226.602C287.208 225.252 288.576 224.208 290.088 223.452C290.358 223.326 290.682 223.434 290.808 223.704C290.934 223.974 290.826 224.298 290.556 224.424C289.17 225.108 287.91 226.08 286.758 227.34C285.606 228.582 284.58 230.112 283.662 231.912L283.554 232.938C283.32 235.188 283.086 237.474 282.798 239.832C282.798 239.85 282.798 239.886 282.798 239.904C282.51 242.352 282.168 244.872 281.736 247.41C282.906 245.592 284.166 243.99 285.534 242.604C287.514 240.57 289.692 238.968 292.05 237.834C292.32 237.708 292.644 237.816 292.77 238.086C292.896 238.356 292.788 238.68 292.518 238.806C290.268 239.886 288.198 241.398 286.308 243.36C284.418 245.304 282.708 247.68 281.178 250.488C280.512 253.854 279.666 257.292 278.532 260.784V260.802C277.974 262.512 277.362 264.222 276.66 265.932C278.298 264.528 280.044 263.304 281.898 262.278C284.472 260.838 287.244 259.794 290.196 259.11C290.484 259.038 290.79 259.218 290.844 259.524C290.916 259.812 290.736 260.1 290.43 260.172C287.568 260.838 284.904 261.864 282.42 263.232C279.972 264.6 277.704 266.31 275.598 268.398C275.076 269.532 274.536 270.684 273.942 271.836L272.736 271.782C274.716 268.002 276.264 264.24 277.47 260.514C277.668 257.868 277.362 255.204 276.534 252.558C275.688 249.876 274.32 247.176 272.394 244.494C272.214 244.242 272.286 243.918 272.52 243.738C272.772 243.558 273.096 243.63 273.276 243.864C275.256 246.654 276.678 249.444 277.56 252.234C278.064 253.818 278.388 255.402 278.532 257.004C280.17 251.118 281.07 245.358 281.718 239.868C281.088 237.546 280.368 235.566 279.576 233.964C278.802 232.362 277.938 231.12 277.02 230.256C276.804 230.058 276.786 229.698 277.002 229.482C277.2 229.266 277.56 229.248 277.776 229.464C278.784 230.418 279.72 231.768 280.566 233.478C281.088 234.54 281.574 235.764 282.042 237.15C282.204 235.692 282.348 234.27 282.492 232.866L282.6 231.768C282.6 231.75 282.6 231.732 282.6 231.714C283.374 224.208 284.148 217.422 286.362 211.644Z" fill="white"/>
<path fill-rule="evenodd" clip-rule="evenodd" d="M282.996 256.896C284.886 255.888 287.154 255.348 288.468 253.656C290.016 251.658 289.71 248.742 291.024 246.564C292.662 243.846 296.262 243.144 298.854 241.29C301.392 239.472 301.032 238.338 302.4 235.53C304.434 231.3 310.302 227.358 314.406 230.814C318.564 234.342 315.882 238.464 313.614 241.452C311.994 243.576 312.246 244.098 311.814 246.726C311.292 249.912 312.372 253.674 310.23 256.086C308.898 257.58 306.702 258.03 305.334 259.488C303.804 261.144 303.75 263.646 303.192 265.842C302.454 268.794 301.158 271.17 299.088 273.078C293.67 272.718 287.37 272.358 280.332 272.052C279.72 271.206 279.216 270.288 278.874 269.298C277.326 264.942 278.766 259.182 282.996 256.896Z" fill="#4ECBD1"/>
<path fill-rule="evenodd" clip-rule="evenodd" d="M310.554 233.802C310.716 233.64 310.968 233.64 311.13 233.784C311.292 233.946 311.292 234.198 311.148 234.36C310.356 235.17 309.6 236.07 308.88 237.024C309.024 236.97 309.186 236.916 309.33 236.88C310.014 236.682 310.752 236.574 311.544 236.538C311.778 236.538 311.958 236.7 311.976 236.934C311.976 237.168 311.814 237.348 311.58 237.366C310.86 237.402 310.194 237.492 309.564 237.672C308.97 237.834 308.412 238.068 307.908 238.374C306.432 240.48 305.064 242.82 303.66 245.322C304.38 244.818 305.118 244.422 305.838 244.08C307.098 243.504 308.376 243.18 309.636 243.108C309.87 243.09 310.05 243.27 310.068 243.486C310.086 243.72 309.906 243.9 309.69 243.918C308.52 243.99 307.35 244.278 306.18 244.818C305.01 245.34 303.84 246.096 302.67 247.086L302.292 247.77C301.464 249.264 300.618 250.794 299.736 252.342C299.736 252.36 299.718 252.378 299.718 252.378C298.782 253.998 297.81 255.636 296.748 257.292C298.098 256.374 299.466 255.636 300.816 255.06C302.796 254.232 304.794 253.764 306.774 253.674C307.008 253.656 307.188 253.836 307.206 254.07C307.224 254.304 307.044 254.484 306.81 254.502C304.92 254.592 303.03 255.024 301.14 255.834C299.25 256.626 297.36 257.778 295.452 259.272C293.994 261.432 292.374 263.574 290.556 265.644C289.656 266.67 288.72 267.678 287.73 268.668C289.296 268.164 290.88 267.84 292.464 267.678C294.678 267.444 296.928 267.516 299.178 267.93C299.394 267.966 299.556 268.182 299.52 268.398C299.484 268.614 299.268 268.776 299.052 268.74C296.856 268.362 294.696 268.272 292.572 268.506C290.466 268.722 288.36 269.262 286.29 270.072C285.516 270.792 284.706 271.494 283.86 272.178L282.618 272.124C285.408 269.928 287.802 267.57 289.926 265.14C290.862 263.358 291.42 261.414 291.618 259.326C291.834 257.202 291.654 254.916 291.132 252.486C291.078 252.27 291.222 252.054 291.438 252C291.654 251.946 291.87 252.09 291.924 252.306C292.482 254.826 292.644 257.202 292.428 259.416C292.302 260.676 292.068 261.864 291.69 263.016C294.57 259.398 296.91 255.654 298.998 252.018C299.25 250.2 299.322 248.616 299.268 247.266C299.196 245.916 298.98 244.8 298.584 243.936C298.494 243.72 298.584 243.486 298.8 243.396C299.016 243.306 299.25 243.396 299.34 243.612C299.754 244.584 300.006 245.79 300.096 247.23C300.15 248.13 300.114 249.12 300.042 250.218C300.582 249.246 301.104 248.31 301.626 247.374L302.022 246.636C302.022 246.618 302.04 246.618 302.04 246.6C304.74 241.668 307.296 237.168 310.554 233.802ZM169.29 121.284C168.786 128.268 167.76 129.222 161.1 129.762C167.742 130.302 168.786 131.256 169.29 138.24C169.794 131.256 170.82 130.302 177.48 129.762C170.82 129.222 169.794 128.268 169.29 121.284ZM196.326 139.68C196.056 143.406 195.498 143.91 191.952 144.198C195.498 144.486 196.056 144.99 196.326 148.716C196.596 144.99 197.154 144.486 200.7 144.198C197.154 143.928 196.596 143.406 196.326 139.68ZM184.482 111.024C184.212 114.804 183.654 115.308 180.054 115.614C183.654 115.902 184.212 116.424 184.482 120.204C184.752 116.424 185.31 115.92 188.91 115.614C185.31 115.308 184.752 114.786 184.482 111.024ZM159.48 235.656C159.894 241.308 160.722 242.082 166.104 242.514C160.722 242.946 159.876 243.72 159.48 249.372C159.066 243.72 158.238 242.946 152.856 242.514C158.238 242.082 159.084 241.29 159.48 235.656ZM137.592 250.56C137.808 253.584 138.258 253.998 141.138 254.232C138.258 254.466 137.808 254.88 137.592 257.904C137.376 254.88 136.926 254.466 134.046 254.232C136.926 253.98 137.376 253.566 137.592 250.56ZM147.186 227.34C147.402 230.4 147.852 230.814 150.768 231.048C147.852 231.282 147.402 231.696 147.186 234.756C146.97 231.696 146.52 231.282 143.604 231.048C146.502 230.814 146.952 230.382 147.186 227.34ZM245.556 221.724C245.232 226.044 244.602 226.656 240.48 226.98C244.602 227.322 245.25 227.916 245.556 232.236C245.88 227.916 246.51 227.304 250.632 226.98C246.51 226.638 245.88 226.044 245.556 221.724ZM262.332 233.136C262.17 235.44 261.828 235.764 259.614 235.944C261.81 236.124 262.152 236.448 262.332 238.752C262.494 236.448 262.836 236.124 265.05 235.944C262.836 235.764 262.494 235.44 262.332 233.136ZM254.988 215.352C254.826 217.692 254.466 218.016 252.234 218.196C254.466 218.376 254.808 218.7 254.988 221.04C255.15 218.7 255.51 218.376 257.742 218.196C255.492 218.016 255.15 217.692 254.988 215.352Z" fill="white"/>
<path fill-rule="evenodd" clip-rule="evenodd" d="M212.4 125.856L209.664 127.458C208.746 127.998 208.422 129.186 208.962 130.122L209.574 131.166C210.294 132.39 209.97 132.948 209.754 133.146C209.142 133.686 208.584 134.28 208.008 134.874C207.846 135.054 207.306 135.648 205.92 134.838L204.966 134.28C204.048 133.74 202.842 134.064 202.302 134.982L200.7 137.718C200.16 138.636 200.484 139.842 201.402 140.382L202.356 140.94C203.67 141.696 203.634 142.092 203.472 142.65C203.238 143.406 203.004 144.18 202.842 144.954C202.698 145.656 202.752 146.16 200.988 146.16H199.89C198.81 146.16 197.946 147.042 197.946 148.104V151.272C197.946 152.352 198.828 153.216 199.89 153.216H200.988C202.77 153.216 202.698 153.72 202.842 154.422C203.004 155.214 203.256 155.97 203.472 156.726C203.634 157.284 203.67 157.662 202.356 158.436L201.402 158.994C200.484 159.534 200.16 160.722 200.7 161.658L202.302 164.394C202.842 165.312 204.03 165.636 204.966 165.096L205.92 164.538C207.306 163.728 207.846 164.322 208.008 164.502C208.584 165.096 209.142 165.69 209.754 166.23C209.97 166.428 210.294 166.986 209.574 168.21L208.962 169.254C208.422 170.172 208.746 171.378 209.664 171.918L212.4 173.52C213.318 174.06 214.524 173.736 215.064 172.818L215.676 171.774C216.396 170.532 217.116 170.568 217.422 170.676C218.304 170.946 219.114 171.126 220.014 171.378C220.338 171.468 220.914 171.702 220.914 173.196V174.312C220.914 175.392 221.796 176.256 222.858 176.256H226.026C227.106 176.256 227.97 175.374 227.97 174.312V173.196C227.97 171.702 228.528 171.468 228.87 171.378C229.77 171.144 230.58 170.964 231.462 170.676C231.768 170.586 232.47 170.532 233.208 171.774L233.82 172.818C234.36 173.736 235.548 174.06 236.484 173.52L239.22 171.918C240.138 171.378 240.462 170.19 239.922 169.254L239.31 168.21C238.59 166.986 238.914 166.428 239.13 166.23C239.742 165.69 240.3 165.096 240.876 164.502C241.038 164.322 241.578 163.728 242.964 164.538L243.918 165.096C244.836 165.636 246.042 165.312 246.582 164.394L248.184 161.658C248.724 160.74 248.4 159.534 247.482 158.994L246.528 158.436C245.214 157.68 245.25 157.284 245.412 156.726C245.646 155.97 245.88 155.196 246.042 154.422C246.186 153.72 246.132 153.216 247.896 153.216H248.994C250.074 153.216 250.938 152.334 250.938 151.272V148.104C250.938 147.024 250.056 146.16 248.994 146.16H247.896C246.114 146.16 246.186 145.656 246.042 144.954C245.88 144.162 245.628 143.406 245.412 142.65C245.25 142.092 245.214 141.714 246.528 140.94L247.482 140.382C248.4 139.842 248.724 138.654 248.184 137.718L246.582 134.982C246.042 134.064 244.854 133.74 243.918 134.28L242.964 134.838C241.578 135.648 241.038 135.054 240.876 134.874C240.3 134.28 239.742 133.686 239.13 133.146C238.914 132.948 238.59 132.39 239.31 131.166L239.922 130.122C240.462 129.204 240.138 127.998 239.22 127.458L236.484 125.856C235.566 125.316 234.36 125.64 233.82 126.558L233.208 127.602C232.488 128.844 231.768 128.808 231.462 128.7C230.58 128.43 229.77 128.25 228.87 127.998C228.546 127.908 227.97 127.674 227.97 126.18V125.064C227.97 123.984 227.088 123.12 226.026 123.12H222.84C221.76 123.12 220.896 124.002 220.896 125.064V126.18C220.896 127.674 220.338 127.908 219.996 127.998C219.096 128.232 218.286 128.412 217.404 128.7C217.098 128.79 216.396 128.844 215.658 127.602L215.046 126.558C214.524 125.64 213.336 125.334 212.4 125.856ZM224.424 145.494C226.746 145.494 228.618 147.366 228.618 149.688C228.618 152.01 226.746 153.882 224.424 153.882C222.102 153.882 220.23 152.01 220.23 149.688C220.23 147.366 222.102 145.494 224.424 145.494ZM211.284 149.688C211.284 149.184 211.68 148.788 212.184 148.788C212.688 148.788 213.084 149.184 213.084 149.688C213.084 152.82 214.362 155.664 216.414 157.716C218.466 159.768 221.31 161.046 224.442 161.046C224.946 161.046 225.342 161.442 225.342 161.946C225.342 162.45 224.946 162.846 224.442 162.846C220.806 162.846 217.53 161.37 215.154 158.994C212.76 156.6 211.284 153.324 211.284 149.688ZM237.384 147.582C237.456 148.068 237.132 148.536 236.646 148.608C236.16 148.68 235.692 148.356 235.62 147.87C235.242 145.494 234.108 143.37 232.488 141.732C230.868 140.094 228.744 138.942 226.368 138.528C225.882 138.438 225.558 137.988 225.63 137.502C225.72 137.016 226.17 136.692 226.656 136.764C229.41 137.232 231.858 138.564 233.748 140.472C235.638 142.344 236.952 144.81 237.384 147.582ZM224.424 134.118C233.028 134.118 239.994 141.084 239.994 149.688C239.994 158.292 233.028 165.258 224.424 165.258C215.82 165.258 208.854 158.292 208.854 149.688C208.854 141.084 215.82 134.118 224.424 134.118Z" fill="#BBF2F5"/>
<path fill-rule="evenodd" clip-rule="evenodd" d="M180.432 130.518C180.432 121.266 174.024 113.454 165.438 111.258C175.554 112.158 183.564 120.708 183.564 131.058V153.486L180.432 153.576V130.518ZM122.004 155.16V131.058C122.004 108.126 140.76 89.37 163.692 89.37C165.528 89.37 167.328 89.496 169.092 89.73C166.338 89.154 163.476 88.848 160.56 88.848C137.628 88.848 118.872 107.604 118.872 130.536V155.268L122.004 155.16Z" fill="#4ECBD1"/>
<path fill-rule="evenodd" clip-rule="evenodd" d="M183.564 131.058C183.564 120.132 174.618 111.186 163.692 111.186C152.766 111.186 143.82 120.132 143.82 131.058V155.196L122.022 155.79V131.058C122.022 108.126 140.778 89.37 163.71 89.37C186.642 89.37 205.398 108.126 205.398 131.058V153.504L183.6 154.098V131.058H183.564Z" fill="#7DD6DC"/>
<path fill-rule="evenodd" clip-rule="evenodd" d="M116.73 150.21L222.732 153.108L225.738 278.46H116.73V150.21Z" fill="#E6E7E8" stroke="#231F20" stroke-width="0.09" stroke-miterlimit="2.613"/>
<path fill-rule="evenodd" clip-rule="evenodd" d="M116.73 150.21L98.856 150.696L97.38 278.46H116.73V150.21Z" fill="#E6E7E8" stroke="#231F20" stroke-width="0.09" stroke-miterlimit="2.613"/>
<path fill-rule="evenodd" clip-rule="evenodd" d="M178.29 151.902L138.528 150.804L116.73 150.21V278.46H225.738L222.732 153.108L200.088 152.496L178.29 151.902Z" fill="#EEF8FD"/>
<path fill-rule="evenodd" clip-rule="evenodd" d="M178.272 152.226L138.51 151.128L117.054 150.534V278.1H225.396L222.408 153.414L200.088 152.802L178.272 152.226ZM138.528 150.48L178.29 151.578L200.088 152.172L222.732 152.784H223.056V153.108L226.062 278.46V278.802H225.72H116.73H116.388V278.46V150.21V149.868L116.73 149.886L138.528 150.48Z" fill="#4189C9"/>
<path fill-rule="evenodd" clip-rule="evenodd" d="M116.73 278.46V150.21L98.856 150.696L93.888 278.46H116.73Z" fill="#7DD6DC"/>
<path fill-rule="evenodd" clip-rule="evenodd" d="M116.352 278.082V150.588L99.216 151.056L94.266 278.064H116.352V278.082ZM117.108 150.21V278.46V278.838H116.73H93.888H93.492L93.51 278.442L98.478 150.678L98.496 150.318L98.856 150.3L116.73 149.814L117.126 149.796V150.21H117.108Z" fill="#4189C9"/>
<path fill-rule="evenodd" clip-rule="evenodd" d="M143.838 208.422H192.06C196.2 208.422 199.602 211.806 199.602 215.964C199.602 220.104 196.218 223.506 192.06 223.506H143.838C139.698 223.506 136.296 220.122 136.296 215.964C136.296 211.824 139.68 208.422 143.838 208.422Z" fill="white"/>
<path fill-rule="evenodd" clip-rule="evenodd" d="M143.82 207.918H192.042C194.256 207.918 196.272 208.818 197.712 210.276C199.17 211.734 200.07 213.75 200.07 215.946C200.07 218.16 199.17 220.176 197.712 221.616C196.254 223.074 194.238 223.974 192.024 223.974H143.82C141.606 223.974 139.59 223.074 138.132 221.616C136.674 220.158 135.774 218.142 135.774 215.928C135.774 213.714 136.674 211.698 138.132 210.24C139.608 208.818 141.624 207.918 143.82 207.918ZM192.042 208.926H143.82C141.894 208.926 140.13 209.718 138.852 210.996C137.574 212.274 136.782 214.02 136.782 215.964C136.782 217.89 137.574 219.654 138.852 220.932C140.13 222.21 141.876 223.002 143.82 223.002H192.042C193.968 223.002 195.732 222.21 197.01 220.932C198.288 219.654 199.08 217.908 199.08 215.964C199.08 214.038 198.288 212.274 197.01 210.996C195.732 209.718 193.986 208.926 192.042 208.926Z" fill="#7DD6DC"/>
<path fill-rule="evenodd" clip-rule="evenodd" d="M147.132 215.496L146.34 213.444L145.206 214.074L146.61 215.802L146.592 215.82L144.54 215.46V216.72L146.646 216.342L146.664 216.36L145.224 218.088L146.286 218.736L147.114 216.648L147.132 216.63L147.942 218.718L149.076 218.07L147.618 216.378L147.636 216.342L149.778 216.684V215.424L147.636 215.802V215.766L149.076 214.02L147.96 213.39L147.168 215.46H147.132V215.496ZM154.602 215.496L153.81 213.444L152.676 214.074L154.08 215.802L154.062 215.82L151.974 215.442V216.702L154.08 216.324L154.098 216.342L152.658 218.07L153.72 218.718L154.548 216.63L154.566 216.612L155.376 218.7L156.51 218.052L155.052 216.36L155.07 216.324L157.212 216.666V215.406L155.07 215.784V215.748L156.51 214.002L155.394 213.372L154.602 215.442V215.496ZM162.054 215.496L161.262 213.444L160.128 214.074L161.532 215.802L161.514 215.82L159.426 215.442V216.702L161.532 216.324L161.55 216.342L160.11 218.07L161.172 218.718L162 216.63L162.018 216.612L162.828 218.7L163.962 218.052L162.504 216.36L162.522 216.324L164.664 216.666V215.406L162.522 215.784V215.748L163.962 214.002L162.846 213.372L162.054 215.442V215.496ZM169.524 215.496L168.732 213.444L167.598 214.074L169.002 215.802L168.984 215.82L166.896 215.442V216.702L169.002 216.324L169.02 216.342L167.58 218.07L168.642 218.718L169.47 216.63L169.488 216.612L170.298 218.7L171.432 218.052L169.974 216.36L169.992 216.324L172.134 216.666V215.406L169.992 215.784V215.748L171.432 214.002L170.316 213.372L169.524 215.442V215.496ZM176.976 215.496L176.184 213.444L175.05 214.074L176.454 215.802L176.436 215.82L174.348 215.442V216.702L176.454 216.324L176.472 216.342L175.032 218.07L176.094 218.718L176.922 216.63L176.94 216.612L177.75 218.7L178.884 218.052L177.426 216.36L177.444 216.324L179.586 216.666V215.406L177.444 215.784V215.748L178.884 214.002L177.768 213.372L176.976 215.442V215.496ZM184.428 215.496L183.636 213.444L182.502 214.074L183.906 215.802L183.888 215.82L181.8 215.442V216.702L183.906 216.324L183.924 216.342L182.484 218.07L183.546 218.718L184.374 216.63L184.392 216.612L185.202 218.7L186.336 218.052L184.878 216.36L184.896 216.324L187.038 216.666V215.406L184.896 215.784V215.748L186.336 214.002L185.22 213.372L184.428 215.442V215.496ZM191.898 215.496L191.106 213.444L189.972 214.074L191.376 215.802L191.358 215.82L189.27 215.442V216.702L191.376 216.324L191.394 216.342L189.954 218.07L191.016 218.718L191.844 216.63L191.862 216.612L192.672 218.7L193.806 218.052L192.348 216.36L192.366 216.324L194.508 216.666V215.406L192.366 215.784V215.748L193.806 214.002L192.69 213.372L191.898 215.442V215.496Z" fill="#7DD6DC"/>
<path fill-rule="evenodd" clip-rule="evenodd" d="M218.952 163.044C218.952 162.828 219.114 162.666 219.312 162.666C219.528 162.666 219.69 162.828 219.69 163.026L220.752 207.234C220.752 207.45 220.59 207.612 220.392 207.612C220.176 207.612 220.014 207.45 220.014 207.252L218.952 163.044ZM123.804 272.43C123.588 272.43 123.426 272.268 123.426 272.052C123.426 271.836 123.588 271.674 123.804 271.674H168.012C168.228 271.674 168.39 271.836 168.39 272.052C168.39 272.268 168.228 272.43 168.012 272.43H123.804ZM119.412 154.566C119.412 154.35 119.574 154.188 119.79 154.188C120.006 154.188 120.168 154.35 120.168 154.566L120.096 191.07C120.096 191.286 119.934 191.448 119.718 191.448C119.502 191.448 119.34 191.286 119.34 191.07L119.412 154.566Z" fill="#4189C9"/>
<path fill-rule="evenodd" clip-rule="evenodd" d="M110.718 235.53L110.646 272.052H109.98L110.052 235.53H110.718Z" fill="#4189C9"/>
<path fill-rule="evenodd" clip-rule="evenodd" d="M223.2 203.508C225.162 203.418 225.108 203.742 225.36 203.724C225.648 203.706 228.834 201.276 228.834 201.276C228.834 201.276 238.248 194.202 238.752 193.806L244.638 183.15L250.758 184.572C250.758 184.572 244.062 196.002 243.594 196.542C243.144 197.064 229.284 205.146 228.096 205.902C228.096 205.902 226.998 207.324 226.278 208.188C225.558 209.052 224.496 209.556 224.244 209.772C224.208 209.79 223.362 210.474 222.12 211.014C221.04 211.482 221.85 210.564 221.85 210.564C221.85 210.564 223.704 209.34 223.578 209.214C223.488 209.106 222.516 209.844 221.328 210.384C221.022 210.528 220.716 210.654 220.446 210.762C219.708 211.086 219.312 210.726 220.014 210.276C220.266 210.114 220.698 209.862 221.022 209.718C221.382 209.556 221.652 209.304 221.94 209.142C222.498 208.8 222.894 208.548 222.876 208.548C222.84 208.53 222.912 208.386 222.57 208.53C222.174 208.692 221.418 209.214 220.806 209.412C220.464 209.52 219.762 209.79 219.762 209.79C219.762 209.79 218.574 210.114 218.556 210.042C218.358 209.718 219.15 209.25 219.618 209.16C219.906 208.944 220.644 208.674 220.644 208.674C220.644 208.674 222.03 207.792 221.904 207.612C221.814 207.45 218.106 208.908 217.926 208.566C217.8 208.278 218.88 207.792 218.88 207.792C218.88 207.792 219.564 207.558 219.78 207.45C220.032 207.342 220.788 206.928 220.788 206.928C220.788 206.928 223.326 205.398 223.2 205.218C223.074 205.038 222.552 204.732 222.372 204.768C222.174 204.804 221.868 205.074 221.688 205.11C221.49 205.146 221.22 205.038 221.148 204.822C221.076 204.588 221.922 204.048 221.922 204.048C221.922 204.048 222.642 203.544 223.2 203.508Z" fill="#F9AF79"/>
<path fill-rule="evenodd" clip-rule="evenodd" d="M183.096 196.722L184.536 183.636C194.382 184.968 201.6 186.39 206.262 187.902C203.022 177.696 200.934 170.622 200.07 166.716L212.688 164.124C213.696 169.884 214.506 177.156 215.1 185.994C220.446 181.782 226.674 177.588 233.838 173.484L240.336 184.932C233.514 188.874 226.674 191.97 219.798 194.22C223.956 196.542 230.022 201.006 238.05 207.54L229.194 217.062C224.91 213.192 219.654 207.792 213.48 200.88C210.87 209.916 208.386 216.918 206.028 221.85L194.31 216.576C199.278 206.928 202.95 200.502 205.272 197.244C197.55 197.298 190.152 197.118 183.096 196.722Z" fill="#7DD6DC"/>
<path fill-rule="evenodd" clip-rule="evenodd" d="M183.402 195.84L184.842 182.754C194.688 184.086 201.906 185.508 206.568 187.02C203.328 176.814 201.24 169.74 200.376 165.834L212.994 163.242C214.002 169.002 214.812 176.274 215.406 185.112C220.752 180.9 226.98 176.706 234.144 172.602L240.642 184.05C233.82 187.992 226.98 191.088 220.104 193.338C224.262 195.66 230.328 200.124 238.356 206.658L229.5 216.18C225.216 212.31 219.96 206.91 213.786 199.998C211.176 209.034 208.692 216.036 206.334 220.968L194.616 215.694C199.584 206.046 203.256 199.62 205.578 196.362C197.838 196.416 190.458 196.236 183.402 195.84ZM242.298 186.138L248.598 189.648C248.598 189.648 251.298 184.374 252.432 181.8C253.818 178.668 255.222 174.546 254.808 174.474C253.638 174.258 252.054 174.222 250.686 175.014C245.97 177.786 242.298 186.138 242.298 186.138Z" fill="#4ECBD1"/>
<path fill-rule="evenodd" clip-rule="evenodd" d="M278.226 263.934C278.226 263.934 279.54 265.23 279.576 265.698C279.612 266.166 279.684 271.242 279.144 271.71C278.604 272.178 277.02 272.52 277.524 273.06C277.902 273.456 280.872 273.366 282.852 273.276C283.428 273.24 284.148 268.668 284.382 268.002C284.706 267.03 285.894 264.888 285.606 264.222C285.462 263.898 284.364 263.124 283.392 262.494C282.348 261.828 281.358 260.334 281.358 260.334L278.226 263.934ZM260.514 267.102L261.702 270.45C261.792 270.972 262.134 272.286 262.134 272.772C262.134 274.59 253.962 271.242 255.798 270.432C255.96 270.36 256.482 269.784 256.536 269.154C256.626 268.2 255.852 267.03 255.852 267.03L260.514 267.102Z" fill="#F9AF79"/>
<path fill-rule="evenodd" clip-rule="evenodd" d="M249.246 203.652L246.294 211.194C246.294 211.194 244.368 229.194 245.484 239.976C245.952 244.494 256.122 268.614 256.122 268.614L261.18 267.912L254.412 239.346L256.896 228.42L260.424 206.82L249.246 203.652Z" fill="#3155A5"/>
<path fill-rule="evenodd" clip-rule="evenodd" d="M263.178 204.048L265.716 212.436L269.568 237.798L282.618 261.504C282.618 261.504 280.656 264.474 278.55 264.942L260.028 240.966L249.984 210.96L250.344 204.282L263.178 204.048Z" fill="#4361AC"/>
<path fill-rule="evenodd" clip-rule="evenodd" d="M283.32 262.44C283.32 262.44 280.53 270.846 279.342 271.278C279.018 271.386 277.236 271.836 276.948 272.502L276.93 272.574C276.84 273.006 277.2 273.384 277.65 273.384H283.32C283.32 273.384 284.13 269.604 284.436 267.948C284.436 267.948 286.11 263.88 285.93 263.52C285.75 263.142 283.32 262.44 283.32 262.44ZM262.602 273.366L261.666 270.414C261.666 270.414 259.704 271.242 258.714 271.098C257.724 270.972 255.816 270.414 255.816 270.414C251.892 271.71 248.688 272.322 249.264 273.366H262.602Z" fill="#263C84"/>
<path fill-rule="evenodd" clip-rule="evenodd" d="M262.26 173.25C269.856 174.294 271.152 180.54 268.974 187.164C266.94 193.356 264.546 201.204 264.708 203.328C264.996 206.982 265.788 212.4 265.788 212.4C265.788 212.4 251.55 213.282 246.186 211.212C246.186 211.212 247.986 202.914 247.986 200.736C247.986 198.558 248.94 176.814 249.606 175.68C250.29 174.546 251.64 173.898 254.232 173.34C256.806 172.782 262.26 173.25 262.26 173.25Z" fill="#88B9E3"/>
<path fill-rule="evenodd" clip-rule="evenodd" d="M235.332 207.09C237.438 207.108 237.348 207.45 237.618 207.432C237.942 207.432 241.506 205.092 241.506 205.092C241.506 205.092 252.108 198.288 252.666 197.91L259.758 187.236L266.184 189.018C266.184 189.018 258.156 200.448 257.634 200.97C257.112 201.51 241.704 209.106 240.372 209.808C240.372 209.808 239.094 211.212 238.248 212.076C237.42 212.922 236.232 213.408 235.98 213.606C235.926 213.642 234.99 214.29 233.604 214.776C232.416 215.208 233.352 214.272 233.352 214.272C233.352 214.272 235.404 213.102 235.296 212.958C235.206 212.85 234.108 213.552 232.794 214.038C232.47 214.164 232.128 214.29 231.822 214.398C231.012 214.686 230.616 214.29 231.408 213.876C231.678 213.732 232.164 213.48 232.524 213.354C232.92 213.21 233.226 212.976 233.532 212.814C234.144 212.49 234.594 212.256 234.576 212.238C234.54 212.22 234.612 212.076 234.252 212.202C233.82 212.346 232.956 212.85 232.308 213.03C231.93 213.12 231.174 213.372 231.174 213.372C231.174 213.372 229.95 213.534 229.914 213.462C229.734 213.102 230.544 212.778 231.066 212.706C231.372 212.508 232.182 212.274 232.182 212.274C232.182 212.274 233.712 211.446 233.604 211.23C233.55 211.14 232.542 211.536 231.498 211.788C230.526 212.022 229.5 212.094 229.446 211.914C229.32 211.608 230.382 211.248 230.382 211.248C230.382 211.248 231.12 211.032 231.372 210.942C231.66 210.834 232.488 210.456 232.488 210.456C232.488 210.456 235.332 208.998 235.206 208.818C235.08 208.638 234.558 208.278 234.342 208.314C234.144 208.35 233.784 208.602 233.586 208.62C233.388 208.656 233.082 208.512 233.028 208.278C232.974 208.044 233.928 207.522 233.928 207.522C233.928 207.522 234.72 207.09 235.332 207.09Z" fill="#F9AF79"/>
<path fill-rule="evenodd" clip-rule="evenodd" d="M264.042 193.95L256.5 191.106C256.5 191.106 257.346 187.362 259.182 184.644C263.808 174.492 268.992 175.806 269.676 179.964C270.63 183.312 264.042 193.95 264.042 193.95Z" fill="#4ECBD1"/>
<path fill-rule="evenodd" clip-rule="evenodd" d="M258.84 167.256L260.154 173.196C260.154 173.196 257.292 180.576 255.24 180.09C253.53 179.676 254.142 173.286 254.142 173.286C254.142 173.286 254.826 169.812 254.448 168.138C254.052 166.464 258.84 167.256 258.84 167.256Z" fill="#F9AF79"/>
<path fill-rule="evenodd" clip-rule="evenodd" d="M254.43 168.138C254.034 166.464 258.822 167.256 258.822 167.256L258.93 167.742C258.822 168.084 258.66 168.39 258.48 168.624C257.508 169.812 255.906 170.604 254.484 170.748C254.574 169.812 254.592 168.84 254.43 168.138Z" fill="#ED7D57"/>
<path fill-rule="evenodd" clip-rule="evenodd" d="M259.038 158.706C259.164 158.652 260.568 165.474 258.912 167.49C257.274 169.506 253.854 170.352 252.504 168.948C251.838 168.246 250.47 166.266 251.19 163.872C251.91 161.442 251.766 159.03 253.224 157.842C255.852 155.7 259.038 158.706 259.038 158.706Z" fill="#F9AF79"/>
<path fill-rule="evenodd" clip-rule="evenodd" d="M257.4 164.034C257.436 164.88 257.868 165.546 258.354 165.51C258.84 165.492 259.2 164.79 259.164 163.944C259.128 163.098 258.696 162.45 258.21 162.468C257.706 162.504 257.346 163.188 257.4 164.034Z" fill="#F9AF79"/>
<path fill-rule="evenodd" clip-rule="evenodd" d="M252.486 167.166C257.13 168.498 260.046 168.462 261.252 167.058C262.53 166.662 263.304 165.456 263.574 163.422C264.726 160.272 263.232 155.448 261.504 158.004C259.668 154.098 253.512 156.852 249.822 154.854C247.752 156.402 248.814 159.84 250.452 160.902C250.632 164.916 251.01 167.04 252.486 167.166Z" fill="#263C84"/>
<path fill-rule="evenodd" clip-rule="evenodd" d="M262.548 158.364C262.026 158.022 261.846 157.608 261.99 157.158C262.71 156.69 263.43 156.618 264.132 156.978C263.718 157.014 263.196 157.482 262.548 158.364Z" fill="#263C84"/>
<path fill-rule="evenodd" clip-rule="evenodd" d="M261.54 157.374C261.918 157.734 262.242 157.806 262.512 157.572C262.638 156.816 262.494 156.186 262.062 155.646C262.152 156.024 261.972 156.6 261.54 157.374ZM259.254 159.21C260.082 158.814 260.748 158.886 261.216 159.426C261.27 160.704 260.784 163.332 259.794 163.962C259.614 163.836 259.47 161.136 259.254 159.21Z" fill="#263C84"/>
<path fill-rule="evenodd" clip-rule="evenodd" d="M258.858 157.986C260.352 158.598 260.874 159.192 260.424 159.786C258.264 160.254 256.158 160.164 254.106 159.498C255.312 159.534 256.896 159.03 258.858 157.986Z" fill="#263C84"/>
<path fill-rule="evenodd" clip-rule="evenodd" d="M250.524 160.722C252.054 158.958 255.114 158.562 259.47 159.822C262.116 158.976 262.638 157.698 261.36 155.736C259.56 152.982 256.23 155.484 251.802 153.072C252.108 155.16 245.898 157.374 250.524 160.722Z" fill="#263C84"/>
<path fill-rule="evenodd" clip-rule="evenodd" d="M260.838 161.442C259.686 161.28 259.956 163.584 260.118 164.736C260.442 166.986 262.638 161.694 260.838 161.442Z" fill="#F9AF79"/>
<path fill-rule="evenodd" clip-rule="evenodd" d="M259.632 172.962C259.848 172.278 259.524 169.362 259.524 168.39C259.632 168.012 259.74 167.544 259.83 166.968C262.134 165.168 262.368 163.944 260.568 163.278C260.226 163.494 259.83 164.142 259.38 165.186C258.966 165.204 258.624 165.006 258.39 164.61C258.768 162.846 259.002 161.442 259.074 160.344C257.778 158.652 254.97 158.598 251.334 159.318C251.226 160.308 251.154 161.352 251.118 162.45C250.686 162.9 249.84 170.046 254.358 170.028C254.43 170.55 254.412 171.18 254.394 171.252C254.358 171.36 255.078 172.512 254.826 172.62C255.06 172.008 255.906 185.112 259.632 172.962Z" fill="#F9AF79"/>
<path fill-rule="evenodd" clip-rule="evenodd" d="M251.37 159.318C255.006 158.598 257.796 158.652 259.11 160.344C259.038 161.424 258.804 162.846 258.426 164.61C258.66 165.006 259.002 165.204 259.416 165.186C259.866 164.124 260.262 163.494 260.604 163.278C262.404 163.944 262.152 165.168 259.866 166.968C259.758 167.544 259.65 168.012 259.56 168.39C261.702 167.76 263.376 165.708 263.574 164.844C265.77 159.696 262.8 157.788 261.252 157.122C260.262 152.226 253.386 157.068 249.642 154.944C248.328 156.996 250.254 159.354 251.37 159.318Z" fill="#263C84"/>
<path fill-rule="evenodd" clip-rule="evenodd" d="M256.788 169.362C256.212 169.686 255.42 169.92 254.412 170.028C254.448 170.37 254.466 170.766 254.466 171.018C255.474 170.748 256.248 170.19 256.788 169.362Z" fill="#ED7D57"/>
<path fill-rule="evenodd" clip-rule="evenodd" d="M251.802 158.076C251.28 158.544 251.136 159.012 251.352 159.516C252.234 159.93 253.044 159.894 253.782 159.408C253.332 159.39 252.666 158.958 251.802 158.076Z" fill="#263C84"/>
<path fill-rule="evenodd" clip-rule="evenodd" d="M260.622 172.998C259.704 175.392 258.75 177.282 257.904 178.488C257.004 179.766 256.122 180.414 255.258 180.414H255.222C254.466 180.324 254.034 179.424 253.8 178.236C253.476 176.49 253.44 174.204 253.512 173.34L254.142 173.25C254.052 174.078 254.124 176.436 254.448 178.11C254.61 178.992 254.88 179.676 255.258 179.748C255.888 179.73 256.59 179.19 257.346 178.11C258.156 176.94 259.182 175.23 260.082 172.89L260.622 172.998Z" fill="#4ECBD1"/>
<path fill-rule="evenodd" clip-rule="evenodd" d="M255.528 179.226C255.978 179.19 256.356 179.532 256.392 179.982C256.428 180.432 256.086 180.81 255.636 180.846C255.186 180.882 254.808 180.54 254.772 180.09C254.754 179.64 255.078 179.262 255.528 179.226Z" fill="#4ECBD1"/>
<path fill-rule="evenodd" clip-rule="evenodd" d="M255.492 180.846C255.798 180.828 256.05 181.044 256.068 181.35C256.086 181.656 255.87 181.908 255.564 181.926C255.258 181.944 255.006 181.728 254.988 181.422C254.97 181.116 255.204 180.864 255.492 180.846ZM255.456 181.962C255.636 181.944 255.798 182.088 255.798 182.268C255.816 182.448 255.672 182.61 255.492 182.61C255.312 182.628 255.15 182.484 255.15 182.304C255.15 182.142 255.276 181.98 255.456 181.962Z" fill="#4ECBD1"/>
<path fill-rule="evenodd" clip-rule="evenodd" d="M146.862 228.366C146.718 228.366 146.61 228.186 146.61 227.952C146.61 227.718 146.718 227.538 146.862 227.538H191.772C191.916 227.538 192.024 227.718 192.024 227.952C192.024 228.186 191.916 228.366 191.772 228.366H146.862ZM146.862 231.966C146.718 231.966 146.61 231.786 146.61 231.552C146.61 231.318 146.718 231.138 146.862 231.138H191.772C191.916 231.138 192.024 231.318 192.024 231.552C192.024 231.786 191.916 231.966 191.772 231.966H146.862ZM146.862 235.584C146.718 235.584 146.61 235.404 146.61 235.17C146.61 234.936 146.718 234.756 146.862 234.756H191.772C191.916 234.756 192.024 234.936 192.024 235.17C192.024 235.404 191.916 235.584 191.772 235.584H146.862ZM146.862 239.184C146.718 239.184 146.61 239.004 146.61 238.77C146.61 238.536 146.718 238.356 146.862 238.356H191.772C191.916 238.356 192.024 238.536 192.024 238.77C192.024 239.004 191.916 239.184 191.772 239.184H146.862ZM146.862 242.802C146.718 242.802 146.61 242.622 146.61 242.388C146.61 242.154 146.718 241.974 146.862 241.974H191.772C191.916 241.974 192.024 242.154 192.024 242.388C192.024 242.622 191.916 242.802 191.772 242.802H146.862ZM146.862 246.402C146.718 246.402 146.61 246.222 146.61 245.988C146.61 245.754 146.718 245.574 146.862 245.574H191.772C191.916 245.574 192.024 245.754 192.024 245.988C192.024 246.222 191.916 246.402 191.772 246.402H146.862ZM146.862 250.02C146.718 250.02 146.61 249.84 146.61 249.606C146.61 249.372 146.718 249.192 146.862 249.192H191.772C191.916 249.192 192.024 249.372 192.024 249.606C192.024 249.84 191.916 250.02 191.772 250.02H146.862Z" fill="#4ECBD1"/>
</svg>
