<svg width="512" height="512" viewBox="0 0 512 512" fill="none" xmlns="http://www.w3.org/2000/svg">
<path fill-rule="evenodd" clip-rule="evenodd" d="M492.79 445.21H19.21C8.7 445.21 0.16 436.66 0.16 426.16V180.66C0.16 170.15 8.7 161.61 19.21 161.61H492.79C503.29 161.61 511.84 170.15 511.84 180.66V426.16C511.84 436.66 503.29 445.21 492.79 445.21ZM19.21 173.6C15.32 173.6 12.15 176.77 12.15 180.66V426.16C12.15 430.05 15.32 433.22 19.21 433.22H492.79C496.68 433.22 499.85 430.05 499.85 426.16V180.66C499.85 176.77 496.68 173.6 492.79 173.6H19.21Z" fill="black"/>
<path fill-rule="evenodd" clip-rule="evenodd" d="M10.65 225.57C8.97 225.57 7.28 225.49 5.61 225.34C2.31 225.03 -0.12 222.12 0.18 218.82C0.48 215.52 3.4 213.09 6.7 213.39C8.01 213.51 9.34 213.57 10.65 213.57C34.23 213.57 53.41 194.39 53.41 170.82C53.41 169.89 53.38 168.93 53.32 167.99C53.1 164.68 55.61 161.83 58.92 161.62C62.23 161.41 65.07 163.91 65.28 167.22C65.36 168.42 65.4 169.63 65.4 170.82C65.4 201.01 40.84 225.57 10.65 225.57ZM59.12 445.21C58.9 445.21 58.67 445.2 58.45 445.17C55.16 444.81 52.78 441.85 53.15 438.55C53.32 436.99 53.41 435.39 53.41 433.8C53.41 410.23 34.23 391.05 10.65 391.05C9.34 391.05 8.01 391.11 6.7 391.23C3.4 391.54 0.48 389.1 0.18 385.8C-0.12 382.51 2.31 379.59 5.61 379.29C7.28 379.13 8.98 379.06 10.65 379.06C40.84 379.06 65.4 403.62 65.4 433.8C65.4 435.83 65.29 437.87 65.07 439.87C64.73 442.94 62.13 445.21 59.12 445.21ZM451.3 445.21C448.28 445.21 445.69 442.94 445.35 439.87C445.13 437.87 445.02 435.82 445.02 433.8C445.02 403.61 469.58 379.05 499.76 379.05C502.04 379.05 504.34 379.2 506.59 379.48C509.87 379.89 512.21 382.88 511.8 386.17C511.39 389.45 508.4 391.78 505.11 391.38C503.35 391.16 501.55 391.05 499.76 391.05C476.19 391.05 457.01 410.23 457.01 433.8C457.01 435.39 457.1 436.99 457.27 438.56C457.63 441.85 455.26 444.81 451.97 445.17C451.74 445.2 451.52 445.21 451.3 445.21ZM492.79 222.35C462.6 222.35 438.04 197.79 438.04 167.6C438.04 164.29 440.73 161.61 444.04 161.61C447.35 161.61 450.03 164.29 450.03 167.6C450.03 191.18 469.21 210.36 492.79 210.36C496.59 210.36 500.37 209.85 504.04 208.85C507.23 207.98 510.53 209.87 511.4 213.06C512.27 216.26 510.39 219.55 507.19 220.42C502.5 221.7 497.65 222.35 492.79 222.35ZM256 406.47C199.17 406.47 152.94 360.24 152.94 303.41C152.94 246.58 199.17 200.35 256 200.35C312.83 200.35 359.06 246.58 359.06 303.41C359.06 360.24 312.83 406.47 256 406.47ZM256 212.34C205.78 212.34 164.93 253.19 164.93 303.41C164.93 353.62 205.78 394.48 256 394.48C306.21 394.48 347.07 353.62 347.07 303.41C347.07 253.19 306.21 212.34 256 212.34Z" fill="black"/>
<path fill-rule="evenodd" clip-rule="evenodd" d="M256 363.46C237.79 363.46 222.98 348.64 222.98 330.43C222.98 327.12 225.66 324.44 228.97 324.44C232.28 324.44 234.97 327.12 234.97 330.43C234.97 342.03 244.4 351.46 256 351.46C267.59 351.46 277.03 342.03 277.03 330.43C277.03 318.84 267.59 309.4 256 309.4C237.79 309.4 222.98 294.59 222.98 276.38C222.98 258.17 237.79 243.36 256 243.36C274.21 243.36 289.02 258.17 289.02 276.38C289.02 279.69 286.34 282.38 283.02 282.38C279.71 282.38 277.03 279.69 277.03 276.38C277.03 264.79 267.59 255.35 256 255.35C244.4 255.35 234.97 264.79 234.97 276.38C234.97 287.98 244.4 297.41 256 297.41C274.21 297.41 289.02 312.23 289.02 330.43C289.02 348.64 274.21 363.46 256 363.46Z" fill="black"/>
<path fill-rule="evenodd" clip-rule="evenodd" d="M256 381.24C252.69 381.24 250 378.55 250 375.24V357.46C250 354.15 252.69 351.46 256 351.46C259.31 351.46 262 354.15 262 357.46V375.24C262 378.56 259.31 381.24 256 381.24ZM256 255.35C252.69 255.35 250 252.67 250 249.36V231.58C250 228.26 252.69 225.58 256 225.58C259.31 225.58 262 228.26 262 231.58V249.36C262 252.67 259.31 255.35 256 255.35ZM74.82 327.9C61.31 327.9 50.32 316.92 50.32 303.41C50.32 289.9 61.31 278.91 74.82 278.91C88.33 278.91 99.31 289.9 99.31 303.41C99.31 316.92 88.33 327.9 74.82 327.9ZM74.82 290.91C67.93 290.91 62.32 296.51 62.32 303.41C62.32 310.3 67.93 315.91 74.82 315.91C81.71 315.91 87.32 310.3 87.32 303.41C87.32 296.51 81.71 290.91 74.82 290.91ZM437.18 327.9C423.67 327.9 412.69 316.92 412.69 303.41C412.69 289.9 423.67 278.91 437.18 278.91C450.69 278.91 461.68 289.9 461.68 303.41C461.68 316.92 450.69 327.9 437.18 327.9ZM437.18 290.91C430.29 290.91 424.68 296.51 424.68 303.41C424.68 310.3 430.29 315.91 437.18 315.91C444.08 315.91 449.69 310.3 449.69 303.41C449.69 296.51 444.08 290.91 437.18 290.91ZM400.93 111.05H111.07C107.76 111.05 105.07 108.36 105.07 105.05C105.07 101.74 107.76 99.05 111.07 99.05H400.93C404.24 99.05 406.93 101.74 406.93 105.05C406.93 108.36 404.24 111.05 400.93 111.05Z" fill="black"/>
<path fill-rule="evenodd" clip-rule="evenodd" d="M367.44 144.52C365.9 144.52 364.37 143.94 363.2 142.77C360.86 140.42 360.86 136.63 363.2 134.28L392.45 105.05L364.42 77.03C362.08 74.69 362.08 70.89 364.42 68.55C366.76 66.21 370.56 66.2 372.9 68.55L405.17 100.81C406.3 101.93 406.93 103.46 406.93 105.05C406.93 106.64 406.3 108.17 405.17 109.29L371.68 142.77C370.51 143.94 368.97 144.52 367.44 144.52Z" fill="black"/>
</svg>
