<svg width="16" height="16" viewBox="0 0 16 16" fill="none" xmlns="http://www.w3.org/2000/svg">
<path d="M12.3031 9.825C11.9813 9.825 11.6594 9.825 11.3359 9.825C10.8219 9.825 10.3063 9.825 9.79219 9.825C9.67344 9.825 9.55313 9.825 9.43438 9.825C9.18125 9.825 8.96563 10.0391 8.96563 10.2938C8.96563 10.6219 8.96563 10.95 8.96563 11.2781C8.96563 11.8016 8.96563 12.325 8.96563 12.8484C8.96563 12.9703 8.96563 13.0906 8.96563 13.2125C9.12188 13.0563 9.27813 12.9 9.43438 12.7438C8.84531 12.7438 8.25469 12.7438 7.66563 12.7438C6.73594 12.7438 5.80781 12.7438 4.87813 12.7438C4.72969 12.7438 4.58125 12.7438 4.43438 12.7438C4.35469 12.7438 4.27344 12.7469 4.19531 12.7375C4.2375 12.7438 4.27813 12.7484 4.32031 12.7547C4.27188 12.7469 4.225 12.7344 4.17969 12.7156C4.21719 12.7313 4.25469 12.7469 4.29219 12.7625C4.26094 12.7484 4.23125 12.7313 4.20156 12.7141C4.13906 12.6797 4.275 12.7828 4.23906 12.7453C4.22813 12.7328 4.21406 12.7234 4.20156 12.7109C4.19219 12.7016 4.18281 12.6906 4.17344 12.6813C4.12188 12.6281 4.22031 12.7578 4.20313 12.7188C4.1875 12.6844 4.16406 12.6547 4.15 12.6203C4.16563 12.6578 4.18125 12.6953 4.19688 12.7328C4.17813 12.6875 4.16563 12.6406 4.15781 12.5922C4.16406 12.6344 4.16875 12.675 4.175 12.7172C4.1625 12.6219 4.16875 12.5234 4.16875 12.4266C4.16875 12.2438 4.16875 12.0594 4.16875 11.8766C4.16875 11.4484 4.16875 11.0203 4.16875 10.5922C4.16875 10.4938 4.16875 10.3953 4.16875 10.2969C4.0125 10.4531 3.85625 10.6094 3.7 10.7656C4.02188 10.7656 4.34375 10.7656 4.66719 10.7656C5.18125 10.7656 5.69688 10.7656 6.21094 10.7656C6.32969 10.7656 6.45 10.7656 6.56875 10.7656C6.82188 10.7656 7.0375 10.5516 7.0375 10.2969C7.0375 9.96875 7.0375 9.64063 7.0375 9.3125C7.0375 8.78906 7.0375 8.26563 7.0375 7.74219C7.0375 7.62031 7.0375 7.5 7.0375 7.37813C6.88125 7.53438 6.725 7.69063 6.56875 7.84688C7.15781 7.84688 7.74844 7.84688 8.3375 7.84688C9.26719 7.84688 10.1953 7.84688 11.125 7.84688C11.2734 7.84688 11.4219 7.84688 11.5688 7.84688C11.6484 7.84688 11.7297 7.84375 11.8078 7.85313C11.7656 7.84688 11.725 7.84219 11.6828 7.83594C11.7313 7.84375 11.7781 7.85625 11.8234 7.875C11.7859 7.85938 11.7484 7.84375 11.7109 7.82813C11.7422 7.84219 11.7719 7.85938 11.8016 7.87656C11.8641 7.91094 11.7281 7.80781 11.7641 7.84531C11.775 7.85781 11.7891 7.86719 11.8016 7.87969C11.8109 7.88906 11.8203 7.9 11.8297 7.90938C11.8813 7.9625 11.7828 7.83281 11.8 7.87188C11.8156 7.90625 11.8391 7.93594 11.8531 7.97031C11.8375 7.93281 11.8219 7.89531 11.8063 7.85781C11.825 7.90313 11.8375 7.95 11.8453 7.99844C11.8391 7.95625 11.8344 7.91563 11.8281 7.87344C11.8406 7.96875 11.8344 8.06719 11.8344 8.16406C11.8344 8.34688 11.8344 8.53125 11.8344 8.71406C11.8344 9.14219 11.8344 9.57031 11.8344 9.99844C11.8344 10.0969 11.8344 10.1953 11.8344 10.2938C11.8344 10.5391 12.05 10.7734 12.3031 10.7625C12.5578 10.7516 12.7719 10.5563 12.7719 10.2938C12.7719 9.71563 12.7719 9.13594 12.7719 8.55781C12.7719 8.35469 12.7766 8.15156 12.7719 7.94844C12.7609 7.49688 12.4844 7.13281 12.0719 6.96875C11.9484 6.91875 11.8125 6.90625 11.6781 6.90625C11.1953 6.90625 10.7109 6.90625 10.2281 6.90625C9.47188 6.90625 8.71406 6.90625 7.95781 6.90625C7.50156 6.90625 7.04375 6.9 6.58594 6.90625C6.57969 6.90625 6.57188 6.90625 6.56563 6.90625C6.3125 6.90625 6.09688 7.12031 6.09688 7.375C6.09688 7.70313 6.09688 8.03125 6.09688 8.35938C6.09688 8.88281 6.09688 9.40625 6.09688 9.92969C6.09688 10.0516 6.09688 10.1719 6.09688 10.2938C6.25313 10.1375 6.40938 9.98125 6.56563 9.825C6.24375 9.825 5.92188 9.825 5.59844 9.825C5.08438 9.825 4.56875 9.825 4.05469 9.825C3.93594 9.825 3.81563 9.825 3.69688 9.825C3.44375 9.825 3.22813 10.0391 3.22813 10.2938C3.22813 10.8719 3.22813 11.4516 3.22813 12.0297C3.22813 12.2328 3.22344 12.4359 3.22813 12.6391C3.23906 13.0906 3.51563 13.4547 3.92813 13.6188C4.05156 13.6688 4.1875 13.6813 4.32188 13.6813C4.80469 13.6813 5.28906 13.6813 5.77188 13.6813C6.52813 13.6813 7.28594 13.6813 8.04219 13.6813C8.49844 13.6813 8.95625 13.6875 9.41406 13.6813C9.42031 13.6813 9.42813 13.6813 9.43438 13.6813C9.6875 13.6813 9.90313 13.4672 9.90313 13.2125C9.90313 12.8844 9.90313 12.5563 9.90313 12.2281C9.90313 11.7047 9.90313 11.1813 9.90313 10.6578C9.90313 10.5359 9.90313 10.4156 9.90313 10.2938C9.74688 10.45 9.59063 10.6063 9.43438 10.7625C9.75625 10.7625 10.0781 10.7625 10.4016 10.7625C10.9156 10.7625 11.4313 10.7625 11.9453 10.7625C12.0641 10.7625 12.1844 10.7625 12.3031 10.7625C12.5484 10.7625 12.7828 10.5469 12.7719 10.2938C12.7609 10.0406 12.5656 9.825 12.3031 9.825Z" fill="black"/>
<path d="M13.9969 4.18594C13.8359 4.025 13.6766 3.86406 13.5156 3.70469C13.1594 3.34688 12.8016 2.99062 12.4453 2.63281C12.0781 2.26562 11.7125 1.89844 11.3453 1.53281C11.1563 1.34375 10.9688 1.15312 10.7781 0.965625C10.5156 0.703125 10.1656 0.557813 9.79688 0.554688C9.73907 0.554688 9.68125 0.554688 9.62344 0.554688C9.30313 0.554688 8.98282 0.554688 8.6625 0.554688C8.16719 0.554688 7.67344 0.554688 7.17813 0.554688C6.62656 0.554688 6.075 0.554688 5.52344 0.554688C5.03281 0.554688 4.54063 0.554688 4.05 0.554688C3.7375 0.554688 3.425 0.554688 3.1125 0.554688C3.05781 0.554688 3.00469 0.554688 2.95 0.554688C2.48438 0.559375 2.06094 0.796875 1.80781 1.18594C1.63281 1.45469 1.60313 1.75781 1.60313 2.06562C1.60313 2.29062 1.60313 2.51562 1.60313 2.74062C1.60313 3.10312 1.60313 3.46719 1.60313 3.82969C1.60313 4.29375 1.60313 4.75781 1.60313 5.22188C1.60313 5.75 1.60313 6.27812 1.60313 6.80469C1.60313 7.35625 1.60313 7.90781 1.60313 8.46094C1.60313 9.00469 1.60313 9.55 1.60313 10.0938C1.60313 10.5906 1.60313 11.0875 1.60313 11.5844C1.60313 11.9969 1.60313 12.4094 1.60313 12.8219C1.60313 13.1125 1.60313 13.4031 1.60313 13.6938C1.60313 13.825 1.60313 13.9578 1.60313 14.0891C1.60469 14.4297 1.72656 14.7328 1.94219 14.9922C2.18594 15.2859 2.57656 15.4437 2.95313 15.4469C3.09219 15.4484 3.23281 15.4469 3.37344 15.4469C3.69844 15.4469 4.02344 15.4469 4.34688 15.4469C4.80156 15.4469 5.25781 15.4469 5.7125 15.4469C6.24375 15.4469 6.77656 15.4469 7.30781 15.4469C7.8625 15.4469 8.41719 15.4469 8.97188 15.4469C9.49219 15.4469 10.0125 15.4469 10.5328 15.4469C10.9703 15.4469 11.4078 15.4469 11.8453 15.4469C12.1438 15.4469 12.4422 15.4469 12.7391 15.4469C12.875 15.4469 13.0156 15.4563 13.15 15.4422C13.4453 15.4109 13.6953 15.3078 13.9266 15.1219C14.1219 14.9641 14.2594 14.7375 14.3359 14.5016C14.3828 14.3562 14.3953 14.2016 14.3953 14.0484C14.3953 13.8359 14.3953 13.6234 14.3953 13.4109C14.3953 13.0172 14.3953 12.625 14.3953 12.2312C14.3953 11.7234 14.3953 11.2141 14.3953 10.7063C14.3953 10.1531 14.3953 9.6 14.3953 9.04531C14.3953 8.51563 14.3953 7.9875 14.3953 7.45781C14.3953 7.02187 14.3953 6.58594 14.3953 6.15C14.3953 5.87656 14.3953 5.60313 14.3953 5.32969C14.3953 5.27656 14.3953 5.22344 14.3953 5.17031C14.3969 4.8 14.2547 4.45156 13.9969 4.18594C13.825 4.00937 13.5031 4.00156 13.3344 4.18594C13.1609 4.375 13.1516 4.66094 13.3344 4.84844C13.3516 4.86562 13.3672 4.88437 13.3844 4.90312C13.4438 4.96719 13.3172 4.80625 13.3766 4.89687C13.4063 4.94062 13.4297 4.9875 13.4516 5.03594C13.4359 4.99844 13.4203 4.96094 13.4047 4.92344C13.4359 4.99844 13.4578 5.07656 13.4703 5.15781C13.4641 5.11562 13.4594 5.075 13.4531 5.03281C13.4672 5.14531 13.4609 5.26094 13.4609 5.37344C13.4609 5.58906 13.4609 5.80313 13.4609 6.01875C13.4609 6.73594 13.4609 7.45156 13.4609 8.16875C13.4609 9.03906 13.4609 9.90938 13.4609 10.7812C13.4609 11.5328 13.4609 12.2844 13.4609 13.0359C13.4609 13.3875 13.4641 13.7406 13.4609 14.0922C13.4609 14.1313 13.4594 14.1703 13.4547 14.2094C13.4609 14.1672 13.4656 14.1266 13.4719 14.0844C13.4609 14.1609 13.4422 14.2359 13.4141 14.3078C13.4297 14.2703 13.4453 14.2328 13.4609 14.1953C13.4391 14.2453 13.4141 14.2953 13.3844 14.3406C13.3219 14.4359 13.4484 14.2703 13.3969 14.3281C13.3781 14.3484 13.3609 14.3688 13.3422 14.3891C13.3234 14.4078 13.3031 14.4266 13.2813 14.4438C13.2234 14.4938 13.3891 14.3687 13.2938 14.4312C13.2469 14.4609 13.1984 14.4859 13.1484 14.5078C13.1859 14.4922 13.2234 14.4766 13.2609 14.4609C13.1891 14.4891 13.1141 14.5094 13.0375 14.5188C13.0797 14.5125 13.1203 14.5078 13.1625 14.5016C13.0453 14.5141 12.9234 14.5078 12.8047 14.5078C12.5609 14.5078 12.3172 14.5078 12.0734 14.5078C11.2656 14.5078 10.4578 14.5078 9.65157 14.5078C8.66563 14.5078 7.67969 14.5078 6.69375 14.5078C5.84844 14.5078 5.00469 14.5078 4.15938 14.5078C3.75781 14.5078 3.35625 14.5094 2.95625 14.5078C2.91719 14.5078 2.87656 14.5062 2.8375 14.5016C2.87969 14.5078 2.92031 14.5125 2.9625 14.5188C2.88594 14.5078 2.81094 14.4891 2.73906 14.4609C2.77656 14.4766 2.81406 14.4922 2.85156 14.5078C2.80156 14.4859 2.75156 14.4609 2.70625 14.4312C2.61094 14.3687 2.77656 14.4953 2.71875 14.4438C2.69844 14.425 2.67813 14.4078 2.65781 14.3891C2.63906 14.3703 2.62031 14.35 2.60313 14.3281C2.55313 14.2703 2.67813 14.4359 2.61563 14.3406C2.58594 14.2937 2.56094 14.2453 2.53906 14.1953C2.55469 14.2328 2.57031 14.2703 2.58594 14.3078C2.55781 14.2359 2.5375 14.1609 2.52813 14.0844C2.53438 14.1266 2.53906 14.1672 2.54531 14.2094C2.52969 14.0734 2.53906 13.9328 2.53906 13.7969C2.53906 13.5031 2.53906 13.2094 2.53906 12.9156C2.53906 12.4781 2.53906 12.0406 2.53906 11.6047C2.53906 11.0672 2.53906 10.5297 2.53906 9.99063C2.53906 9.4 2.53906 8.80937 2.53906 8.22031C2.53906 7.625 2.53906 7.02813 2.53906 6.43281C2.53906 5.87969 2.53906 5.32812 2.53906 4.775C2.53906 4.30781 2.53906 3.83906 2.53906 3.37188C2.53906 3.03906 2.53906 2.70469 2.53906 2.37188C2.53906 2.22031 2.53906 2.06719 2.53906 1.91562C2.53906 1.875 2.54063 1.83438 2.54531 1.79375C2.53906 1.83594 2.53438 1.87656 2.52813 1.91875C2.53906 1.84219 2.55781 1.76719 2.58594 1.69531C2.57031 1.73281 2.55469 1.77031 2.53906 1.80781C2.56094 1.75781 2.58594 1.70781 2.61563 1.6625C2.67813 1.56719 2.55156 1.73281 2.60313 1.675C2.62188 1.65469 2.63906 1.63438 2.65781 1.61406C2.67656 1.59375 2.69688 1.57656 2.71875 1.55938C2.77656 1.50938 2.61094 1.63437 2.70625 1.57187C2.75313 1.54219 2.80156 1.51719 2.85156 1.49531C2.81406 1.51094 2.77656 1.52656 2.73906 1.54219C2.81094 1.51406 2.88594 1.49375 2.9625 1.48438C2.92031 1.49063 2.87969 1.49531 2.8375 1.50156C2.92656 1.49219 3.01875 1.49531 3.10781 1.49531C3.27188 1.49531 3.43594 1.49531 3.60156 1.49531C4.15 1.49531 4.69688 1.49531 5.24531 1.49531C5.91719 1.49531 6.58906 1.49531 7.26094 1.49531C7.83438 1.49531 8.40938 1.49531 8.98282 1.49531C9.25313 1.49531 9.52344 1.49219 9.79532 1.49531C9.83907 1.49531 9.88125 1.49844 9.92344 1.50312C9.88125 1.49687 9.84063 1.49219 9.79844 1.48594C9.87969 1.49844 9.95625 1.52031 10.0328 1.55156C9.99531 1.53594 9.95782 1.52031 9.92032 1.50469C9.96563 1.525 10.0078 1.54687 10.05 1.57344C10.0641 1.58281 10.0766 1.59219 10.0906 1.60156C9.98125 1.53906 10.0406 1.56094 10.0719 1.58906C10.0859 1.60156 10.0984 1.61406 10.1125 1.62656C10.1266 1.64062 10.1406 1.65469 10.1547 1.66875C10.2234 1.7375 10.2938 1.80781 10.3625 1.87656C10.6156 2.12969 10.8703 2.38438 11.1234 2.6375C11.7219 3.23594 12.3188 3.83438 12.9172 4.43281C13.0563 4.57188 13.1953 4.7125 13.3359 4.85156C13.5094 5.025 13.8281 5.0375 13.9984 4.85156C14.1688 4.66094 14.1828 4.37187 13.9969 4.18594Z" fill="black"/>
<path d="M8.96562 10.2938C8.96562 10.6219 8.96562 10.95 8.96562 11.2781C8.96562 11.8016 8.96562 12.325 8.96562 12.8484C8.96562 12.9703 8.96562 13.0906 8.96562 13.2125C9.12187 13.0563 9.27812 12.9 9.43437 12.7438C8.84531 12.7438 8.25469 12.7438 7.66562 12.7438C6.73594 12.7438 5.80781 12.7438 4.87812 12.7438C4.72969 12.7438 4.58125 12.7438 4.43437 12.7438C4.35468 12.7438 4.27343 12.7469 4.19531 12.7375C4.2375 12.7438 4.27812 12.7484 4.32031 12.7547C4.27187 12.7469 4.225 12.7344 4.17968 12.7156C4.21718 12.7313 4.25469 12.7469 4.29219 12.7625C4.26094 12.7484 4.23125 12.7313 4.20156 12.7141C4.13906 12.6797 4.275 12.7828 4.23906 12.7453C4.22812 12.7328 4.21406 12.7234 4.20156 12.7109C4.19218 12.7016 4.18281 12.6906 4.17344 12.6813C4.12187 12.6281 4.22031 12.7578 4.20312 12.7188C4.1875 12.6844 4.16406 12.6547 4.15 12.6203C4.16562 12.6578 4.18125 12.6953 4.19687 12.7328C4.17812 12.6875 4.16562 12.6406 4.15781 12.5922C4.16406 12.6344 4.16875 12.675 4.175 12.7172C4.1625 12.6219 4.16875 12.5234 4.16875 12.4266C4.16875 12.2438 4.16875 12.0594 4.16875 11.8766C4.16875 11.4484 4.16875 11.0203 4.16875 10.5922C4.16875 10.4938 4.16875 10.3953 4.16875 10.2969C4.0125 10.4531 3.85625 10.6094 3.7 10.7656C3.89062 10.7656 4.07968 10.7656 4.27031 10.7656C4.72656 10.7656 5.18281 10.7656 5.63906 10.7656C6.19062 10.7656 6.74375 10.7656 7.29531 10.7656C7.77344 10.7656 8.25156 10.7656 8.72812 10.7656C8.96093 10.7656 9.19375 10.7703 9.42656 10.7656C9.42969 10.7656 9.43281 10.7656 9.4375 10.7656C9.68281 10.7656 9.91719 10.55 9.90625 10.2969C9.89531 10.0422 9.7 9.82813 9.4375 9.82813C9.24687 9.82813 9.05781 9.82813 8.86719 9.82813C8.41093 9.82813 7.95469 9.82813 7.49844 9.82813C6.94687 9.82813 6.39375 9.82813 5.84218 9.82813C5.36406 9.82813 4.88594 9.82813 4.40937 9.82813C4.17656 9.82813 3.94375 9.82345 3.71093 9.82813C3.70781 9.82813 3.70468 9.82813 3.7 9.82813C3.44687 9.82813 3.23125 10.0422 3.23125 10.2969C3.23125 10.875 3.23125 11.4547 3.23125 12.0328C3.23125 12.2359 3.22656 12.4391 3.23125 12.6422C3.24218 13.0938 3.51875 13.4578 3.93125 13.6219C4.05469 13.6719 4.19062 13.6844 4.325 13.6844C4.80781 13.6844 5.29219 13.6844 5.775 13.6844C6.53125 13.6844 7.28906 13.6844 8.04531 13.6844C8.50156 13.6844 8.95937 13.6906 9.41719 13.6844C9.42344 13.6844 9.43125 13.6844 9.4375 13.6844C9.69062 13.6844 9.90625 13.4703 9.90625 13.2156C9.90625 12.8875 9.90625 12.5594 9.90625 12.2313C9.90625 11.7078 9.90625 11.1844 9.90625 10.6609C9.90625 10.5391 9.90625 10.4188 9.90625 10.2969C9.90625 10.0516 9.69062 9.8172 9.4375 9.82813C9.18125 9.83751 8.96562 10.0313 8.96562 10.2938Z" fill="black"/>
<path d="M11.8344 7.96094C11.8344 8.64219 11.8344 9.32344 11.8344 10.0063C11.8344 10.1031 11.8344 10.1984 11.8344 10.2953C11.9906 10.1391 12.1469 9.98281 12.3031 9.82656C12.1125 9.82656 11.9234 9.82656 11.7328 9.82656C11.2766 9.82656 10.8203 9.82656 10.3641 9.82656C9.8125 9.82656 9.25938 9.82656 8.70781 9.82656C8.22969 9.82656 7.75156 9.82656 7.275 9.82656C7.04219 9.82656 6.80938 9.82031 6.57656 9.82656C6.57344 9.82656 6.57031 9.82656 6.56563 9.82656C6.72188 9.98281 6.87813 10.1391 7.03438 10.2953C7.03438 9.96719 7.03438 9.63906 7.03438 9.31094C7.03438 8.7875 7.03438 8.26406 7.03438 7.74063C7.03438 7.61875 7.03438 7.49844 7.03438 7.37656C6.87813 7.53281 6.72188 7.68906 6.56563 7.84531C7.15469 7.84531 7.74531 7.84531 8.33438 7.84531C9.26406 7.84531 10.1922 7.84531 11.1219 7.84531C11.2703 7.84531 11.4188 7.84531 11.5656 7.84531C11.6453 7.84531 11.7266 7.84219 11.8047 7.85156C11.7625 7.84531 11.7219 7.84063 11.6797 7.83438C11.7281 7.84219 11.775 7.85469 11.8203 7.87344C11.7828 7.85781 11.7453 7.84219 11.7078 7.82656C11.7391 7.84063 11.7688 7.85781 11.7984 7.875C11.8609 7.90938 11.725 7.80625 11.7609 7.84375C11.7719 7.85625 11.7859 7.86563 11.7984 7.87813C11.8078 7.8875 11.8172 7.89844 11.8266 7.90781C11.8781 7.96094 11.7797 7.83125 11.7969 7.87031C11.8125 7.90469 11.8359 7.93438 11.85 7.96875C11.8344 7.93125 11.8188 7.89375 11.8031 7.85625C11.8219 7.90156 11.8344 7.94844 11.8422 7.99688C11.8359 7.95469 11.8313 7.91406 11.825 7.87188C11.8328 7.90313 11.8344 7.93125 11.8344 7.96094C11.8391 8.20625 12.0469 8.44063 12.3031 8.42969C12.5531 8.41875 12.7766 8.22344 12.7719 7.96094C12.7609 7.38125 12.2984 6.91719 11.7188 6.90781C11.6563 6.90625 11.5953 6.90781 11.5328 6.90781C11.1609 6.90781 10.7891 6.90781 10.4172 6.90781C9.87969 6.90781 9.34375 6.90781 8.80625 6.90781C8.31094 6.90781 7.81563 6.90781 7.32031 6.90781C7.07188 6.90781 6.82344 6.90313 6.575 6.90781C6.57188 6.90781 6.56875 6.90781 6.56406 6.90781C6.31094 6.90781 6.09531 7.12188 6.09531 7.37656C6.09531 7.70469 6.09531 8.03281 6.09531 8.36094C6.09531 8.88438 6.09531 9.40781 6.09531 9.93125C6.09531 10.0531 6.09531 10.1734 6.09531 10.2953C6.09531 10.5484 6.30938 10.7641 6.56406 10.7641C6.75469 10.7641 6.94375 10.7641 7.13438 10.7641C7.59063 10.7641 8.04688 10.7641 8.50313 10.7641C9.05469 10.7641 9.60781 10.7641 10.1594 10.7641C10.6375 10.7641 11.1156 10.7641 11.5922 10.7641C11.825 10.7641 12.0578 10.7688 12.2906 10.7641C12.2938 10.7641 12.2969 10.7641 12.3016 10.7641C12.5547 10.7641 12.7703 10.55 12.7703 10.2953C12.7703 9.61406 12.7703 8.93281 12.7703 8.25C12.7703 8.15313 12.7703 8.05781 12.7703 7.96094C12.7703 7.71563 12.5547 7.48125 12.3016 7.49219C12.05 7.50313 11.8344 7.69844 11.8344 7.96094Z" fill="black"/>
<path d="M4.27969 7.84532C4.94688 7.84532 5.61406 7.84532 6.28125 7.84532C6.37656 7.84532 6.47031 7.84532 6.56563 7.84532C6.40938 7.68907 6.25313 7.53282 6.09688 7.37657C6.09688 7.70469 6.09688 8.03282 6.09688 8.36094C6.09688 8.88438 6.09688 9.40782 6.09688 9.93126C6.09688 10.0531 6.09688 10.1734 6.09688 10.2953C6.25313 10.1391 6.40938 9.98282 6.56563 9.82657C6.24375 9.82657 5.92188 9.82657 5.59844 9.82657C5.08438 9.82657 4.56875 9.82657 4.05469 9.82657C3.93594 9.82657 3.81563 9.82657 3.69688 9.82657C3.85313 9.98282 4.00938 10.1391 4.16563 10.2953C4.16563 9.60157 4.16563 8.90782 4.16563 8.21407C4.16563 8.10157 4.15781 7.98594 4.17188 7.87501C4.16563 7.91719 4.16094 7.95782 4.15469 8.00001C4.1625 7.95157 4.175 7.90469 4.19375 7.85938C4.17813 7.89688 4.1625 7.93438 4.14688 7.97188C4.16094 7.94063 4.17813 7.91094 4.19531 7.88126C4.22969 7.81876 4.12656 7.95469 4.16406 7.91876C4.17656 7.90782 4.18594 7.89376 4.19844 7.88126C4.20781 7.87188 4.21875 7.86251 4.22813 7.85313C4.28125 7.80157 4.15156 7.90001 4.19063 7.88282C4.225 7.86719 4.25469 7.84376 4.28906 7.82969C4.25156 7.84532 4.21406 7.86094 4.17656 7.87657C4.22188 7.85782 4.26875 7.84532 4.31719 7.83751C4.275 7.84376 4.23438 7.84844 4.19219 7.85469C4.22344 7.84844 4.25156 7.84688 4.27969 7.84532C4.525 7.84063 4.75938 7.63282 4.74844 7.37657C4.7375 7.12657 4.54219 6.90313 4.27969 6.90782C3.7 6.91876 3.23594 7.38126 3.22656 7.96251C3.225 8.08594 3.22656 8.21094 3.22656 8.33438C3.22656 8.85001 3.22656 9.36407 3.22656 9.87969C3.22656 10.0188 3.22656 10.1563 3.22656 10.2953C3.22656 10.5484 3.44063 10.7641 3.69531 10.7641C4.01719 10.7641 4.33906 10.7641 4.6625 10.7641C5.17656 10.7641 5.69219 10.7641 6.20625 10.7641C6.325 10.7641 6.44531 10.7641 6.56406 10.7641C6.81719 10.7641 7.03281 10.55 7.03281 10.2953C7.03281 9.96719 7.03281 9.63907 7.03281 9.31094C7.03281 8.78751 7.03281 8.26407 7.03281 7.74063C7.03281 7.61876 7.03281 7.49844 7.03281 7.37657C7.03281 7.12344 6.81875 6.90782 6.56406 6.90782C5.89688 6.90782 5.22969 6.90782 4.5625 6.90782C4.46719 6.90782 4.37344 6.90782 4.27813 6.90782C4.03281 6.90782 3.79844 7.12344 3.80938 7.37657C3.82344 7.63126 4.01719 7.84532 4.27969 7.84532ZM11.8344 10.2938C11.8344 10.9875 11.8344 11.6813 11.8344 12.375C11.8344 12.4875 11.8422 12.6031 11.8281 12.7141C11.8344 12.6719 11.8391 12.6313 11.8453 12.5891C11.8375 12.6375 11.825 12.6844 11.8063 12.7297C11.8219 12.6922 11.8375 12.6547 11.8531 12.6172C11.8391 12.6484 11.8219 12.6781 11.8047 12.7078C11.7703 12.7703 11.8734 12.6344 11.8359 12.6703C11.8234 12.6813 11.8141 12.6953 11.8016 12.7078C11.7922 12.7172 11.7813 12.7266 11.7719 12.7359C11.7188 12.7875 11.8484 12.6891 11.8094 12.7063C11.775 12.7219 11.7453 12.7453 11.7109 12.7594C11.7484 12.7438 11.7859 12.7281 11.8234 12.7125C11.7781 12.7313 11.7313 12.7438 11.6828 12.7516C11.725 12.7453 11.7656 12.7406 11.8078 12.7344C11.7141 12.7469 11.6172 12.7406 11.5219 12.7406C11.3422 12.7406 11.1625 12.7406 10.9828 12.7406C10.5641 12.7406 10.1438 12.7406 9.725 12.7406C9.62813 12.7406 9.53125 12.7406 9.43594 12.7406C9.59219 12.8969 9.74844 13.0531 9.90469 13.2094C9.90469 12.8813 9.90469 12.5531 9.90469 12.225C9.90469 11.7016 9.90469 11.1781 9.90469 10.6547C9.90469 10.5328 9.90469 10.4125 9.90469 10.2906C9.74844 10.4469 9.59219 10.6031 9.43594 10.7594C9.75781 10.7594 10.0797 10.7594 10.4031 10.7594C10.9172 10.7594 11.4328 10.7594 11.9469 10.7594C12.0656 10.7594 12.1859 10.7594 12.3047 10.7594C12.55 10.7594 12.7844 10.5438 12.7734 10.2906C12.7625 10.0359 12.5672 9.82188 12.3047 9.82188C11.9828 9.82188 11.6609 9.82188 11.3375 9.82188C10.8234 9.82188 10.3078 9.82188 9.79375 9.82188C9.675 9.82188 9.55469 9.82188 9.43594 9.82188C9.18281 9.82188 8.96719 10.0359 8.96719 10.2906C8.96719 10.6188 8.96719 10.9469 8.96719 11.275C8.96719 11.7984 8.96719 12.3219 8.96719 12.8453C8.96719 12.9672 8.96719 13.0875 8.96719 13.2094C8.96719 13.4625 9.18125 13.6781 9.43594 13.6781C10.1656 13.6781 10.8969 13.6781 11.6266 13.6781C11.6578 13.6781 11.6891 13.6781 11.7203 13.6781C11.9844 13.6734 12.2188 13.5797 12.4203 13.4109C12.6672 13.2031 12.7734 12.8875 12.7734 12.5734C12.7734 12.1844 12.7734 11.7938 12.7734 11.4047C12.7734 11.0344 12.7734 10.6625 12.7734 10.2922C12.7734 10.0469 12.5578 9.81251 12.3047 9.82344C12.05 9.83751 11.8344 10.0313 11.8344 10.2938Z" fill="black"/>
</svg>
