<svg width="32" height="32" viewBox="0 0 32 32" fill="none" xmlns="http://www.w3.org/2000/svg">
<path d="M25.1781 24.6594C25.3938 24.6594 25.6094 24.6688 25.825 24.6469C26.325 24.5969 26.7875 24.475 27.2281 24.2313C28.0156 23.7969 28.6219 23.0156 28.85 22.1469C29.025 21.4781 28.9625 20.7375 28.9625 20.0531V14.9375C28.9625 14.3 28.8031 13.6594 28.4625 13.1156C27.9875 12.3594 27.2094 11.7719 26.3281 11.5875C25.6656 11.45 24.8469 11.4438 24.2 11.65C23.3469 11.9219 22.575 12.5313 22.1781 13.3469C21.925 13.8656 21.8063 14.4031 21.8063 14.9813V21.1156C21.8063 21.55 21.8438 21.9906 22 22.4C22.3219 23.2375 22.925 23.9719 23.7594 24.3344C24.2125 24.5375 24.675 24.6531 25.1781 24.6594C25.6688 24.6625 26.1375 24.225 26.1156 23.7219C26.0938 23.2094 25.7031 22.7875 25.1781 22.7844C25.0625 22.7844 24.95 22.775 24.8344 22.7594C24.9188 22.7719 25 22.7813 25.0844 22.7938C24.875 22.7625 24.675 22.7063 24.4813 22.625L24.7063 22.7188C24.5688 22.6594 24.4344 22.5875 24.3094 22.5063C24.3031 22.5031 24.2094 22.4438 24.2094 22.4344C24.2094 22.4375 24.4156 22.6063 24.2875 22.4938C24.2313 22.4438 24.175 22.3969 24.1219 22.3438C24.075 22.2969 24.0281 22.2469 23.9844 22.1938C23.9313 22.1313 23.8813 22.0219 24.0281 22.2563C24.0063 22.2219 23.9813 22.1906 23.9563 22.1563C23.8719 22.0313 23.8031 21.8969 23.7438 21.7594L23.8375 21.9844C23.7563 21.7906 23.7 21.5906 23.6688 21.3813C23.6813 21.4656 23.6906 21.5469 23.7031 21.6313C23.6656 21.3406 23.6781 21.0406 23.6781 20.7469V15.5781C23.6781 15.2344 23.6563 14.8813 23.7031 14.5406C23.6906 14.625 23.6813 14.7063 23.6688 14.7906C23.7 14.5813 23.7563 14.3813 23.8375 14.1875L23.7438 14.4125C23.8031 14.275 23.875 14.1406 23.9563 14.0156C23.9594 14.0094 24.0188 13.9156 24.0281 13.9156C24.025 13.9156 23.8563 14.1219 23.9688 13.9938C24.0188 13.9375 24.0656 13.8813 24.1188 13.8281C24.1656 13.7813 24.2156 13.7344 24.2688 13.6906C24.3313 13.6375 24.4406 13.5875 24.2063 13.7344C24.2406 13.7125 24.2719 13.6875 24.3063 13.6625C24.4313 13.5781 24.5656 13.5094 24.7031 13.45L24.4781 13.5438C24.6719 13.4625 24.8719 13.4063 25.0813 13.375C24.9969 13.3875 24.9156 13.3969 24.8313 13.4094C25.1813 13.3625 25.575 13.3625 25.9281 13.4094C25.8438 13.3969 25.7625 13.3875 25.6781 13.375C25.8875 13.4063 26.0875 13.4625 26.2813 13.5438L26.0563 13.45C26.1938 13.5094 26.3281 13.5813 26.4531 13.6625C26.4594 13.6656 26.5531 13.725 26.5531 13.7344C26.5531 13.7313 26.3469 13.5625 26.475 13.675C26.5313 13.725 26.5875 13.7719 26.6406 13.825C26.6875 13.8719 26.7344 13.9219 26.7781 13.975C26.8313 14.0375 26.8813 14.1469 26.7344 13.9125C26.7563 13.9469 26.7813 13.9781 26.8063 14.0125C26.8906 14.1375 26.9594 14.2719 27.0188 14.4094L26.925 14.1844C27.0063 14.3781 27.0625 14.5781 27.0938 14.7875C27.0813 14.7031 27.0719 14.6219 27.0594 14.5375C27.0969 14.8281 27.0844 15.1281 27.0844 15.4219V20.5906C27.0844 20.9344 27.1063 21.2875 27.0594 21.6281C27.0719 21.5438 27.0813 21.4625 27.0938 21.3781C27.0625 21.5875 27.0063 21.7875 26.925 21.9813L27.0188 21.7563C26.9594 21.8938 26.8875 22.0281 26.8063 22.1531C26.8031 22.1594 26.7438 22.2531 26.7344 22.2531C26.7375 22.2531 26.9063 22.0469 26.7938 22.175C26.7438 22.2313 26.6969 22.2875 26.6438 22.3406C26.5969 22.3875 26.5469 22.4344 26.4938 22.4781C26.4313 22.5313 26.3219 22.5813 26.5563 22.4344C26.5219 22.4563 26.4906 22.4813 26.4563 22.5063C26.3313 22.5906 26.1969 22.6594 26.0594 22.7188L26.2844 22.625C26.0906 22.7063 25.8906 22.7625 25.6813 22.7938C25.7656 22.7813 25.8469 22.7719 25.9313 22.7594C25.6813 22.7938 25.4313 22.7844 25.1781 22.7844C24.6875 22.7844 24.2188 23.2156 24.2406 23.7219C24.2625 24.2281 24.65 24.6594 25.1781 24.6594ZM6.41564 24.6594C6.63126 24.6594 6.84689 24.6688 7.06251 24.6469C7.56251 24.5969 8.02501 24.475 8.46564 24.2313C9.25314 23.7969 9.85939 23.0156 10.0875 22.1469C10.2625 21.4781 10.2 20.7375 10.2 20.0531V14.9375C10.2 14.3 10.0406 13.6594 9.70001 13.1156C9.22501 12.3594 8.44689 11.7719 7.56564 11.5875C6.90314 11.45 6.08439 11.4438 5.43751 11.65C4.58439 11.9219 3.81251 12.5313 3.41564 13.3469C3.16251 13.8656 3.04376 14.4031 3.04376 14.9813V21.1156C3.04376 21.55 3.08126 21.9906 3.23751 22.4C3.55939 23.2375 4.16251 23.9719 4.99689 24.3344C5.45001 24.5375 5.91251 24.6531 6.41564 24.6594C6.90626 24.6625 7.37501 24.225 7.35314 23.7219C7.33126 23.2094 6.94064 22.7875 6.41564 22.7844C6.30001 22.7844 6.18751 22.775 6.07189 22.7594C6.15626 22.7719 6.23751 22.7813 6.32189 22.7938C6.11251 22.7625 5.91251 22.7063 5.71876 22.625L5.94376 22.7188C5.80626 22.6594 5.67189 22.5875 5.54689 22.5063C5.54064 22.5031 5.44689 22.4438 5.44689 22.4344C5.44689 22.4375 5.65314 22.6063 5.52501 22.4938C5.46876 22.4438 5.41251 22.3969 5.35939 22.3438C5.31251 22.2969 5.26564 22.2469 5.22189 22.1938C5.16876 22.1313 5.11876 22.0219 5.26564 22.2563C5.24376 22.2219 5.21876 22.1906 5.19376 22.1563C5.10939 22.0313 5.04064 21.8969 4.98126 21.7594L5.07501 21.9844C4.99376 21.7906 4.93751 21.5906 4.90626 21.3813C4.91876 21.4656 4.92814 21.5469 4.94064 21.6313C4.90314 21.3406 4.91564 21.0406 4.91564 20.7469V15.5781C4.91564 15.2344 4.89376 14.8813 4.94064 14.5406C4.92814 14.625 4.91876 14.7063 4.90626 14.7906C4.93751 14.5813 4.99376 14.3813 5.07501 14.1875L4.98126 14.4125C5.04064 14.275 5.11251 14.1406 5.19376 14.0156C5.19689 14.0094 5.25626 13.9156 5.26564 13.9156C5.26251 13.9156 5.09376 14.1219 5.20626 13.9938C5.25626 13.9375 5.30314 13.8813 5.35626 13.8281C5.40314 13.7813 5.45314 13.7344 5.50626 13.6906C5.56876 13.6375 5.67814 13.5875 5.44376 13.7344C5.47814 13.7125 5.50939 13.6875 5.54376 13.6625C5.66876 13.5781 5.80314 13.5094 5.94064 13.45L5.71564 13.5438C5.90939 13.4625 6.10939 13.4063 6.31876 13.375C6.23439 13.3875 6.15314 13.3969 6.06876 13.4094C6.41876 13.3625 6.81251 13.3625 7.16564 13.4094C7.08126 13.3969 7.00001 13.3875 6.91564 13.375C7.12501 13.4063 7.32501 13.4625 7.51876 13.5438L7.29376 13.45C7.43126 13.5094 7.56564 13.5813 7.69064 13.6625C7.69689 13.6656 7.79064 13.725 7.79064 13.7344C7.79064 13.7313 7.58439 13.5625 7.71251 13.675C7.76876 13.725 7.82501 13.7719 7.87814 13.825C7.92501 13.8719 7.97189 13.9219 8.01564 13.975C8.06876 14.0375 8.11876 14.1469 7.97189 13.9125C7.99376 13.9469 8.01876 13.9781 8.04376 14.0125C8.12814 14.1375 8.19689 14.2719 8.25626 14.4094L8.16251 14.1844C8.24376 14.3781 8.30001 14.5781 8.33126 14.7875C8.31876 14.7031 8.30939 14.6219 8.29689 14.5375C8.33439 14.8281 8.32189 15.1281 8.32189 15.4219V20.5906C8.32189 20.9344 8.34376 21.2875 8.29689 21.6281C8.30939 21.5438 8.31876 21.4625 8.33126 21.3781C8.30001 21.5875 8.24376 21.7875 8.16251 21.9813L8.25626 21.7563C8.19689 21.8938 8.12501 22.0281 8.04376 22.1531C8.04064 22.1594 7.98126 22.2531 7.97189 22.2531C7.97501 22.2531 8.14376 22.0469 8.03126 22.175C7.98126 22.2313 7.93439 22.2875 7.88126 22.3406C7.83439 22.3875 7.78439 22.4344 7.73126 22.4781C7.66876 22.5313 7.55939 22.5813 7.79376 22.4344C7.75939 22.4563 7.72814 22.4813 7.69376 22.5063C7.56876 22.5906 7.43439 22.6594 7.29689 22.7188L7.52189 22.625C7.32814 22.7063 7.12814 22.7625 6.91876 22.7938C7.00314 22.7813 7.08439 22.7719 7.16876 22.7594C6.91876 22.7938 6.66876 22.7844 6.41564 22.7844C5.92501 22.7844 5.45626 23.2156 5.47814 23.7219C5.50001 24.2281 5.89064 24.6594 6.41564 24.6594Z" fill="black"/>
<path d="M4.91564 21.0813V13.8719C4.91564 13.1969 4.93439 12.525 5.02501 11.8531C5.01251 11.9375 5.00314 12.0188 4.99064 12.1031C5.13439 11.0531 5.41564 10.0281 5.82814 9.05313L5.73439 9.27813C5.97189 8.71875 6.25314 8.175 6.57189 7.65625C6.72814 7.40313 6.89064 7.15938 7.06564 6.91875C7.10939 6.85625 7.15626 6.79688 7.20001 6.7375C7.21564 6.71563 7.23439 6.69375 7.25001 6.67188C7.35001 6.5375 7.10001 6.8625 7.20314 6.73125C7.29689 6.6125 7.39064 6.49375 7.49064 6.38125C7.87501 5.925 8.29689 5.49688 8.74376 5.10313C8.85314 5.00938 8.96251 4.91563 9.07501 4.82188C9.12814 4.77813 9.18126 4.73438 9.23439 4.69375C9.28751 4.65 9.42189 4.55313 9.17501 4.7375C9.20939 4.7125 9.24064 4.6875 9.27501 4.6625C9.51564 4.48125 9.76564 4.30625 10.0219 4.14375C10.5938 3.77813 11.1938 3.4625 11.8188 3.19688L11.5938 3.29063C12.5688 2.87813 13.5938 2.59688 14.6438 2.45313C14.5594 2.46563 14.4781 2.475 14.3938 2.4875C15.4594 2.34375 16.5438 2.34375 17.6094 2.4875C17.525 2.475 17.4438 2.46563 17.3594 2.45313C18.4094 2.59688 19.4344 2.87813 20.4094 3.29063L20.1844 3.19688C20.7438 3.43438 21.2875 3.71563 21.8063 4.03438C22.0594 4.19063 22.3031 4.35313 22.5438 4.52813C22.6063 4.57188 22.6656 4.61875 22.725 4.6625C22.7469 4.67813 22.7688 4.69688 22.7906 4.7125C22.925 4.8125 22.6 4.5625 22.7313 4.66563C22.85 4.75938 22.9688 4.85313 23.0813 4.95313C23.5375 5.3375 23.9656 5.75938 24.3594 6.20625C24.4531 6.31563 24.5469 6.425 24.6406 6.5375C24.6844 6.59063 24.7281 6.64375 24.7688 6.69688C24.8125 6.75 24.9094 6.88438 24.725 6.6375C24.75 6.67188 24.775 6.70313 24.8 6.7375C24.9813 6.97813 25.1563 7.22813 25.3188 7.48438C25.6844 8.05625 26 8.65625 26.2656 9.28125L26.1719 9.05625C26.5844 10.0313 26.8656 11.0563 27.0094 12.1063C26.9969 12.0219 26.9875 11.9406 26.975 11.8563C27.0688 12.5563 27.0844 13.2563 27.0844 13.9594V21.8656C27.0844 22.4656 27.1094 23.0781 27.0313 23.675C27.0438 23.5906 27.0531 23.5094 27.0656 23.425C26.9969 23.9125 26.8656 24.3906 26.6781 24.8469L26.7719 24.6219C26.6281 24.9656 26.45 25.2938 26.2438 25.6031C26.1938 25.6781 26.1406 25.75 26.0906 25.8219C25.975 25.9844 26.2281 25.6531 26.125 25.7781C26.1 25.8094 26.075 25.8438 26.0469 25.875C25.9281 26.0188 25.8063 26.1531 25.675 26.2844C25.5438 26.4156 25.4063 26.5406 25.2656 26.6563C25.2344 26.6813 25.2031 26.7094 25.1688 26.7344C25.0406 26.8375 25.3531 26.5969 25.2281 26.6875C25.15 26.7438 25.0719 26.8 24.9938 26.8531C24.6844 27.0594 24.3563 27.2375 24.0125 27.3813L24.2375 27.2875C23.7813 27.475 23.3063 27.6063 22.8156 27.675C22.9 27.6625 22.9813 27.6531 23.0656 27.6406C22.5594 27.7094 22.0469 27.6938 21.5375 27.6938H19.1531C18.6625 27.6938 18.1938 28.125 18.2156 28.6313C18.2375 29.1406 18.6281 29.5688 19.1531 29.5688H21.525C21.8219 29.5688 22.1219 29.575 22.4188 29.5688C23.2094 29.55 24.0063 29.3969 24.7375 29.0969C26.2344 28.4781 27.5156 27.3688 28.2406 25.9063C28.7438 24.8969 28.9656 23.8219 28.9656 22.7V13.4688C28.9625 11.9969 28.7156 10.5063 28.2094 9.12188C27.675 7.65313 26.8969 6.31563 25.8938 5.11563C24.95 3.9875 23.7938 3.01875 22.5281 2.275C21.2313 1.51563 19.7875 0.971879 18.3063 0.712504C16.7094 0.434379 15.1031 0.443754 13.5125 0.746879C12.0469 1.025 10.6156 1.5875 9.33751 2.35938C8.07814 3.12188 6.93439 4.1 6.00939 5.24063C5.01876 6.45938 4.25314 7.8125 3.73751 9.29688C3.27501 10.6344 3.04689 12.0625 3.04376 13.475V21.0813C3.04376 21.5719 3.47501 22.0406 3.98126 22.0188C4.48439 21.9938 4.91564 21.6063 4.91564 21.0813Z" fill="black"/>
<path d="M18.2125 28.6313C18.2125 28.7188 18.2062 28.8031 18.1937 28.8875C18.2062 28.8031 18.2156 28.7219 18.2281 28.6375C18.2031 28.8031 18.1594 28.9625 18.0969 29.1188L18.1906 28.8938C18.1437 29 18.0906 29.1031 18.0281 29.2C18.025 29.2063 17.9781 29.2875 17.9719 29.2844C17.9687 29.2844 18.1281 29.0938 18.0437 29.1906C18.0031 29.2375 17.9625 29.2813 17.9219 29.325C17.8844 29.3625 17.8437 29.4 17.8031 29.4344C17.7437 29.4875 17.6594 29.5063 17.8812 29.375C17.8594 29.3875 17.8375 29.4063 17.8156 29.4219C17.7125 29.4906 17.6031 29.5469 17.4906 29.5969L17.7156 29.5031C17.5594 29.5656 17.4 29.6094 17.2344 29.6344C17.3187 29.6219 17.4 29.6125 17.4844 29.6C17.0625 29.6531 16.6187 29.6188 16.1937 29.6188C15.7594 29.6188 15.3094 29.6531 14.875 29.6031C14.9594 29.6156 15.0406 29.625 15.125 29.6375C14.9625 29.6125 14.8031 29.5719 14.65 29.5125L14.875 29.6063C14.7562 29.5563 14.6406 29.4969 14.5344 29.425C14.4469 29.3656 14.4312 29.2969 14.5687 29.4563C14.5281 29.4094 14.4719 29.3719 14.4281 29.3281C14.3906 29.2906 14.3219 29.2344 14.3 29.1875C14.3281 29.225 14.3594 29.2625 14.3875 29.3031C14.3687 29.2781 14.35 29.25 14.3312 29.225C14.2594 29.1188 14.2 29.0031 14.15 28.8844L14.2437 29.1094C14.1844 28.9563 14.1406 28.8 14.1187 28.6344C14.1312 28.7188 14.1406 28.8 14.1531 28.8844C14.1344 28.7125 14.1312 28.5438 14.1531 28.375C14.1406 28.4594 14.1312 28.5406 14.1187 28.625C14.1437 28.4594 14.1875 28.3 14.25 28.1438L14.1562 28.3688C14.2031 28.2625 14.2562 28.1594 14.3187 28.0625C14.3219 28.0563 14.3687 27.975 14.375 27.9781C14.3781 27.9781 14.2187 28.1688 14.3031 28.0719C14.3437 28.025 14.3844 27.9813 14.425 27.9375C14.4625 27.9 14.5031 27.8625 14.5437 27.8281C14.6031 27.775 14.6875 27.7563 14.4656 27.8875C14.4875 27.875 14.5094 27.8563 14.5312 27.8406C14.6344 27.7719 14.7437 27.7156 14.8562 27.6656L14.6312 27.7594C14.7875 27.6969 14.9469 27.6531 15.1125 27.6281C15.0281 27.6406 14.9469 27.65 14.8625 27.6625C15.2844 27.6094 15.7281 27.6438 16.1531 27.6438C16.5875 27.6438 17.0375 27.6094 17.4719 27.6594C17.3875 27.6469 17.3062 27.6375 17.2219 27.625C17.3844 27.65 17.5437 27.6906 17.6969 27.75L17.4719 27.6563C17.5906 27.7063 17.7062 27.7656 17.8125 27.8375C17.9 27.8969 17.9156 27.9656 17.7781 27.8063C17.8187 27.8531 17.875 27.8906 17.9187 27.9344C17.9562 27.9719 18.025 28.0281 18.0469 28.075C18.0187 28.0375 17.9875 28 17.9594 27.9594C17.9781 27.9844 17.9969 28.0125 18.0156 28.0375C18.0875 28.1438 18.1469 28.2594 18.1969 28.3781L18.1031 28.1531C18.1625 28.3063 18.2062 28.4625 18.2281 28.6281C18.2156 28.5438 18.2062 28.4625 18.1937 28.3781C18.2062 28.4625 18.2125 28.5469 18.2125 28.6313C18.2187 29.1219 18.6406 29.5906 19.15 29.5688C19.6531 29.5469 20.0937 29.1563 20.0875 28.6313C20.075 27.5813 19.4781 26.5281 18.5094 26.0719C18.0906 25.875 17.6719 25.7656 17.2062 25.7625H15.4094C14.8156 25.7625 14.2531 25.8344 13.7219 26.1281C12.8844 26.5875 12.3781 27.4406 12.2687 28.3719C12.1437 29.4344 12.7062 30.4625 13.5781 31.0438C14.125 31.4094 14.7562 31.4969 15.3969 31.4969H17.2156C17.6969 31.4938 18.1562 31.3719 18.5844 31.15C19.5094 30.6656 20.0781 29.6594 20.0906 28.6281C20.0969 28.1375 19.6562 27.6688 19.1531 27.6906C18.6375 27.7188 18.2187 28.1063 18.2125 28.6313Z" fill="black"/>
</svg>
