<svg width="60" height="60" viewBox="0 0 60 60" fill="none" xmlns="http://www.w3.org/2000/svg">
<path d="M47.375 5H12.625C12.0723 5 11.625 5.44727 11.625 6V54C11.625 54.5527 12.0723 55 12.625 55H47.375C47.9277 55 48.375 54.5527 48.375 54V6C48.375 5.44727 47.9277 5 47.375 5ZM46.375 53H13.625V7H46.375V53Z" fill="black"/>
<path d="M17.1289 12.7188H19.5381V20.7188C19.5381 21.2715 19.9854 21.7188 20.5381 21.7188C21.0908 21.7188 21.5381 21.2715 21.5381 20.7188V12.7188H23.9473C24.5 12.7188 24.9473 12.2715 24.9473 11.7188C24.9473 11.166 24.5 10.7188 23.9473 10.7188H17.1289C16.5762 10.7188 16.1289 11.166 16.1289 11.7188C16.1289 12.2715 16.5762 12.7188 17.1289 12.7188ZM28.9434 21.7188C29.7764 21.7188 30.5605 21.3945 31.1494 20.8047L31.6393 20.3148L32.5781 21.3799C32.7754 21.6045 33.0518 21.7188 33.3281 21.7188C33.5635 21.7188 33.7988 21.6367 33.9893 21.4688C34.4033 21.1035 34.4434 20.4717 34.0781 20.0576L33.0562 18.8979L33.8311 18.123C34.2217 17.7324 34.2217 17.0996 33.8311 16.709C33.4404 16.3184 32.8076 16.3184 32.417 16.709L31.7313 17.3947L28.3008 13.502C28.1318 13.2998 28.1592 12.998 28.3613 12.8301C28.5645 12.6621 28.8672 12.6875 29.0352 12.8906L29.1953 13.083C29.5488 13.5059 30.1787 13.5654 30.6035 13.2119C31.0283 12.8584 31.0859 12.2275 30.7324 11.8037L30.5723 11.6104C29.6973 10.5605 28.1318 10.4189 27.0811 11.293C26.0322 12.168 25.8896 13.7334 26.7822 14.8037L27.2745 15.3622C26.5329 15.9268 26.0388 16.6689 25.8584 17.5381C25.5771 18.8975 26.1172 20.1846 26.7373 20.8047C27.3271 21.3936 28.1104 21.7188 28.9434 21.7188ZM30.3145 18.8115L29.7354 19.3906C29.3115 19.8145 28.5762 19.8154 28.1523 19.3896C27.9316 19.1699 27.6924 18.5449 27.8164 17.9443C27.9064 17.5112 28.1755 17.1536 28.6017 16.8682L30.3145 18.8115ZM40.4258 21.7188C41.4014 21.7188 42.3418 21.3857 43.1465 20.7549C43.582 20.4141 43.6582 19.7861 43.3174 19.3516C42.9766 18.917 42.3486 18.8398 41.9141 19.1807C41.4639 19.5322 40.9492 19.7188 40.4258 19.7188C38.875 19.7188 37.6133 18.1484 37.6133 16.2188C37.6133 14.2891 38.875 12.7188 40.4258 12.7188C40.9492 12.7188 41.4639 12.9053 41.9141 13.2568C42.3486 13.5977 42.9766 13.5215 43.3174 13.0859C43.6582 12.6514 43.582 12.0234 43.1465 11.6826C42.3418 11.0518 41.4014 10.7188 40.4258 10.7188C37.7725 10.7188 35.6133 13.1865 35.6133 16.2188C35.6133 19.251 37.7725 21.7188 40.4258 21.7188ZM18.2539 28.2002C18.2041 28.1602 18.1445 28.1299 18.084 28.1094C18.0244 28.0801 17.9639 28.0596 17.8945 28.0498C17.7744 28.0195 17.6338 28.0195 17.5039 28.0498C17.4443 28.0596 17.3838 28.0801 17.3242 28.1094C17.2637 28.1299 17.2041 28.1602 17.1445 28.2002C17.0937 28.2402 17.0439 28.2803 16.9941 28.3193C16.8145 28.5098 16.7041 28.7695 16.7041 29.0303C16.7041 29.2998 16.8037 29.5498 16.9941 29.7402C17.0938 29.8301 17.2041 29.9102 17.3242 29.96C17.4443 30.0098 17.5742 30.0303 17.7041 30.0303C17.834 30.0303 17.9639 30.0098 18.084 29.96C18.2041 29.9102 18.3145 29.8301 18.4043 29.7402C18.5937 29.5498 18.7041 29.2998 18.7041 29.0303C18.7041 28.7695 18.5937 28.5098 18.4043 28.3193C18.3643 28.2803 18.3145 28.2402 18.2539 28.2002ZM23.2041 28.0312C22.6514 28.0312 22.2041 28.4785 22.2041 29.0312C22.2041 29.584 22.6514 30.0312 23.2041 30.0312H42.8711C43.4238 30.0312 43.8711 29.584 43.8711 29.0312C43.8711 28.4785 43.4238 28.0312 42.8711 28.0312H23.2041ZM18.4141 34.7402C18.1738 34.5098 17.834 34.3994 17.5039 34.4697C17.4443 34.4795 17.3838 34.5 17.3242 34.5195C17.2637 34.5498 17.2041 34.5801 17.1445 34.6201C17.0937 34.6494 17.0439 34.6895 16.9941 34.7402C16.9043 34.8301 16.834 34.9395 16.7842 35.0596C16.7344 35.1895 16.7041 35.3193 16.7041 35.4502C16.7041 35.5801 16.7344 35.71 16.7842 35.8301C16.834 35.9502 16.9043 36.0596 16.9941 36.1494C17.0937 36.25 17.2041 36.3193 17.3242 36.3701C17.4443 36.4199 17.5742 36.4502 17.7041 36.4502C17.9746 36.4502 18.2246 36.3398 18.4141 36.1494C18.5039 36.0596 18.5742 35.9502 18.624 35.8301C18.6738 35.71 18.7041 35.5801 18.7041 35.4502C18.7041 35.3193 18.6738 35.1895 18.624 35.0596C18.5742 34.9395 18.5039 34.8301 18.4141 34.7402ZM42.8711 34.4482H23.2041C22.6514 34.4482 22.2041 34.8955 22.2041 35.4482C22.2041 36.001 22.6514 36.4482 23.2041 36.4482H42.8711C43.4238 36.4482 43.8711 36.001 43.8711 35.4482C43.8711 34.8955 43.4238 34.4482 42.8711 34.4482ZM18.4141 41.1602C18.3643 41.1094 18.3145 41.0693 18.2539 41.0303C18.2041 41 18.1445 40.9697 18.084 40.9395C18.0244 40.9102 17.9639 40.8994 17.8945 40.8799C17.7041 40.8398 17.5039 40.8594 17.3242 40.9395C17.1943 40.9902 17.0937 41.0596 16.9941 41.1602C16.9043 41.25 16.834 41.3594 16.7842 41.4795C16.7344 41.5996 16.7041 41.7295 16.7041 41.8594C16.7041 42.1299 16.8037 42.3799 16.9941 42.5693C17.0938 42.6602 17.2041 42.7402 17.3242 42.79C17.4443 42.8398 17.5742 42.8594 17.7041 42.8594C17.834 42.8594 17.9639 42.8398 18.084 42.79C18.2041 42.7402 18.3145 42.6602 18.4141 42.5693C18.5938 42.3799 18.7041 42.1299 18.7041 41.8594C18.7041 41.7295 18.6738 41.5996 18.624 41.4795C18.5742 41.3594 18.5039 41.25 18.4141 41.1602ZM42.8711 40.8643H23.2041C22.6514 40.8643 22.2041 41.3115 22.2041 41.8643C22.2041 42.417 22.6514 42.8643 23.2041 42.8643H42.8711C43.4238 42.8643 43.8711 42.417 43.8711 41.8643C43.8711 41.3115 43.4238 40.8643 42.8711 40.8643ZM18.4141 47.5693C18.3643 47.5303 18.3145 47.4902 18.2539 47.4502C18.2041 47.4102 18.1445 47.3799 18.084 47.3594C18.0244 47.3301 17.9639 47.3096 17.9043 47.2998C17.7744 47.2695 17.6338 47.2695 17.5039 47.2998C17.4443 47.3096 17.3838 47.3301 17.3242 47.3594C17.2637 47.3799 17.2041 47.4102 17.1445 47.4502C17.0937 47.4902 17.0439 47.5303 16.9941 47.5693C16.9043 47.6699 16.834 47.7803 16.7842 47.8994C16.7246 48.0195 16.7041 48.1494 16.7041 48.2803C16.7041 48.5498 16.8037 48.7998 16.9941 48.9902C17.0938 49.0801 17.2041 49.1494 17.3242 49.2002C17.4443 49.25 17.5742 49.2803 17.7041 49.2803C17.9746 49.2803 18.2246 49.1797 18.4141 48.9902C18.5938 48.7998 18.7041 48.5498 18.7041 48.2803C18.7041 48.1494 18.6738 48.0195 18.624 47.8994C18.5742 47.7803 18.5039 47.6699 18.4141 47.5693ZM42.8711 47.2812H23.2041C22.6514 47.2812 22.2041 47.7285 22.2041 48.2812C22.2041 48.834 22.6514 49.2812 23.2041 49.2812H42.8711C43.4238 49.2812 43.8711 48.834 43.8711 48.2812C43.8711 47.7285 43.4238 47.2812 42.8711 47.2812Z" fill="black"/>
</svg>
