<svg width="17" height="16" viewBox="0 0 17 16" fill="none" xmlns="http://www.w3.org/2000/svg">
<g clip-path="url(#clip0_12_20)">
<path fill-rule="evenodd" clip-rule="evenodd" d="M16.1666 13.3333C16.1666 13.7754 15.9911 14.1993 15.6785 14.5118C15.3659 14.8244 14.942 15 14.5 15H2.49998C2.28111 15 2.06438 14.9569 1.86217 14.8731C1.65996 14.7894 1.47623 14.6666 1.32147 14.5118C1.00891 14.1993 0.833313 13.7754 0.833313 13.3333V3.66666C0.833313 3.31304 0.973789 2.9739 1.22384 2.72385C1.47389 2.47381 1.81302 2.33333 2.16665 2.33333H8.89031L11.59 1.35533C11.6721 1.32544 11.7627 1.32933 11.8419 1.36613C11.9211 1.40294 11.9825 1.46966 12.0126 1.55166L12.297 2.33333H13.5C13.8536 2.33333 14.1927 2.47381 14.4428 2.72385C14.6928 2.9739 14.8333 3.31304 14.8333 3.66666V4.33333C15.1869 4.33333 15.5261 4.47381 15.7761 4.72385C16.0262 4.9739 16.1666 5.31304 16.1666 5.66666V13.3333ZM2.16665 3C1.98984 3 1.82027 3.07023 1.69524 3.19526C1.57022 3.32028 1.49998 3.48985 1.49998 3.66666C1.49998 3.84347 1.57022 4.01304 1.69524 4.13807C1.82027 4.26309 1.98984 4.33333 2.16665 4.33333H3.37798C3.38231 4.33166 3.38498 4.328 3.38931 4.32633L7.04998 3H2.16665ZM11.8593 3.06033L11.5053 2.08566L10.8213 2.33333H10.8223L8.98431 3H8.98098L5.30131 4.33333H12.322L11.8593 3.06033ZM14.1666 3.66666C14.1666 3.48985 14.0964 3.32028 13.9714 3.19526C13.8464 3.07023 13.6768 3 13.5 3H12.539L13.0236 4.33333H14.1666V3.66666ZM14.8333 5H2.16665C1.92265 5 1.69665 4.92966 1.49998 4.815V13.3333C1.49998 13.5985 1.60534 13.8529 1.79287 14.0404C1.98041 14.228 2.23476 14.3333 2.49998 14.3333H14.5C14.7652 14.3333 15.0195 14.228 15.2071 14.0404C15.3946 13.8529 15.5 13.5985 15.5 13.3333V11H14.1666C13.813 11 13.4739 10.8595 13.2238 10.6095C12.9738 10.3594 12.8333 10.0203 12.8333 9.66666C12.8333 9.31304 12.9738 8.9739 13.2238 8.72386C13.4739 8.47381 13.813 8.33333 14.1666 8.33333H15.5V5.66666C15.5 5.48985 15.4297 5.32028 15.3047 5.19526C15.1797 5.07023 15.0101 5 14.8333 5ZM15.5 10.3333V9H14.1666C13.9898 9 13.8203 9.07024 13.6952 9.19526C13.5702 9.32028 13.5 9.48985 13.5 9.66666C13.5 9.84347 13.5702 10.013 13.6952 10.1381C13.8203 10.2631 13.9898 10.3333 14.1666 10.3333H15.5ZM14.1666 9.33333H14.8333V10H14.1666V9.33333Z" fill="black"/>
</g>
<defs>
<clipPath id="clip0_12_20">
<rect width="16" height="16" fill="white" transform="translate(0.5)"/>
</clipPath>
</defs>
</svg>
