<svg width="17" height="16" viewBox="0 0 17 16" fill="none" xmlns="http://www.w3.org/2000/svg">
<path fill-rule="evenodd" clip-rule="evenodd" d="M8.75807 2.0387C5.46774 2.0387 2.79678 4.70966 2.79678 7.99999C2.79678 9.16128 3.11936 10.271 3.75161 11.2387L2.84839 13.2387C2.77097 13.4193 2.79678 13.6387 2.92581 13.7935C3.02903 13.9097 3.17097 13.9742 3.32581 13.9742C3.37742 13.9742 3.41613 13.9742 3.46774 13.9613L5.97097 13.2774C6.83549 13.7419 7.80323 13.9871 8.78387 13.9871C12.0742 13.9871 14.7452 11.3161 14.7452 8.02579C14.7194 4.70966 12.0484 2.0387 8.75807 2.0387ZM8.75807 12.929C7.88065 12.929 7.02903 12.6968 6.28065 12.258C6.20323 12.2064 6.1129 12.1806 6.02258 12.1806C5.97097 12.1806 5.93226 12.1806 5.88065 12.1935L4.24194 12.6451L4.80968 11.3935C4.8871 11.2258 4.86129 11.0193 4.75807 10.8774C4.15161 10.0387 3.82903 9.04515 3.82903 7.99999C3.82903 5.29031 6.04839 3.07095 8.75807 3.07095C11.4677 3.07095 13.6871 5.27741 13.6871 7.99999C13.6871 10.7097 11.4806 12.929 8.75807 12.929Z" fill="#333033"/>
<path fill-rule="evenodd" clip-rule="evenodd" d="M11.0548 8.89031C10.8097 8.73547 10.4742 8.56773 10.1903 8.69676C9.97097 8.78708 9.81613 9.14837 9.67419 9.32902C9.59677 9.41934 9.50645 9.43224 9.39032 9.39353C8.53871 9.05805 7.89355 8.49031 7.42903 7.71611C7.35161 7.59999 7.36451 7.49676 7.45484 7.38063C7.59677 7.21289 7.77742 7.01934 7.81613 6.79999C7.85484 6.58063 7.75161 6.30966 7.66129 6.11612C7.54516 5.85805 7.41613 5.49676 7.15806 5.35482C6.9258 5.22579 6.61613 5.29031 6.40967 5.47095C6.04838 5.76773 5.86774 6.23224 5.88064 6.68386C5.88064 6.81289 5.89355 6.94192 5.93226 7.07095C6.00967 7.36773 6.13871 7.6516 6.30645 7.92257C6.42258 8.12902 6.55161 8.32257 6.69355 8.50321C7.14516 9.12257 7.7129 9.6516 8.35806 10.0516C8.68064 10.2451 9.04193 10.4258 9.40322 10.5419C9.81613 10.671 10.1774 10.8129 10.6161 10.7355C11.0806 10.6451 11.5323 10.3613 11.7129 9.92257C11.7645 9.79353 11.7903 9.6387 11.7645 9.50966C11.6742 9.19999 11.2871 9.03224 11.0548 8.89031Z" fill="#333033"/>
</svg>
